<?xml version="1.0" encoding="UTF-8"?>
<svg width="136px" height="10px" viewBox="0 0 136 10" version="1.1" xmlns="http://www.w3.org/2000/svg" xmlns:xlink="http://www.w3.org/1999/xlink">
    <!-- Generator: Sketch 58 (84663) - https://sketch.com -->
    <title>l / grazalema</title>
    <desc>Created with Sketch.</desc>
    <g id="Page-1" stroke="none" stroke-width="1" fill="none" fill-rule="evenodd">
        <path d="M76.1913,1.0608 C77.3533,1.0608 77.9603,1.1158 78.5163,1.1708 C78.6323,1.1818 78.7363,1.2148 78.7363,1.3478 L78.7363,1.4578 C78.7363,1.6018 78.6583,1.6458 78.4643,1.6238 C77.5473,1.5458 77.1333,1.5128 76.1913,1.5128 C74.8983,1.5128 73.5163,2.1318 73.5163,4.5388 L73.5163,5.9078 C73.5163,7.9948 74.5503,8.9218 76.1913,8.9218 C77.2883,8.9218 77.9473,8.8448 78.1543,8.8228 L78.1543,5.3118 C78.1543,5.1898 78.2443,5.1018 78.3733,5.1018 L78.5033,5.1018 C78.6323,5.1018 78.7223,5.1898 78.7223,5.3118 L78.7223,9.0328 C78.7223,9.1428 78.6193,9.2318 78.5033,9.2428 C77.8833,9.3088 77.2883,9.3858 76.1913,9.3858 C74.3563,9.3858 72.9483,8.3488 72.9483,5.9078 L72.9483,4.5388 C72.9483,1.7788 74.6793,1.0608 76.1913,1.0608 Z M90.2067,1.0609 C90.6207,1.0609 90.9177,1.2599 91.0337,1.5909 L93.6827,9.0769 C93.7337,9.2319 93.6827,9.3529 93.5017,9.3529 L93.3467,9.3529 C93.2437,9.3529 93.1657,9.2869 93.1397,9.2099 L92.0547,6.2169 L88.3337,6.2169 L87.2747,9.2099 C87.2487,9.2759 87.1587,9.3529 87.0687,9.3529 L86.8997,9.3529 C86.7317,9.3529 86.6677,9.2319 86.7197,9.0769 L89.3677,1.6009 C89.4837,1.2709 89.7817,1.0609 90.2067,1.0609 Z M104.5982,1.0609 C105.0122,1.0609 105.3092,1.2599 105.4252,1.5909 L108.0742,9.0769 C108.1252,9.2319 108.0742,9.3529 107.8932,9.3529 L107.7382,9.3529 C107.6342,9.3529 107.5572,9.2869 107.5312,9.2099 L106.4462,6.2169 L102.7252,6.2169 L101.6662,9.2099 C101.6402,9.2759 101.5492,9.3529 101.4592,9.3529 L101.2912,9.3529 C101.1232,9.3529 101.0592,9.2319 101.1102,9.0769 L103.7592,1.6009 C103.8752,1.2709 104.1722,1.0609 104.5982,1.0609 Z M132.3092,1.0609 C132.7232,1.0609 133.0192,1.2599 133.1362,1.5909 L135.7852,9.0769 C135.8362,9.2319 135.7852,9.3529 135.6042,9.3529 L135.4482,9.3529 C135.3452,9.3529 135.2682,9.2869 135.2422,9.2099 L134.1572,6.2169 L130.4362,6.2169 L129.3762,9.2099 C129.3512,9.2759 129.2602,9.3529 129.1702,9.3529 L129.0022,9.3529 C128.8342,9.3529 128.7702,9.2319 128.8212,9.0769 L131.4702,1.6009 C131.5862,1.2709 131.8832,1.0609 132.3092,1.0609 Z M127.2582,1.0608 C127.6592,1.0608 127.9172,1.2378 127.9172,1.6018 L127.9172,9.1108 C127.9172,9.2208 127.8262,9.3198 127.6972,9.3198 L127.5682,9.3198 C127.4392,9.3198 127.3482,9.2208 127.3482,9.1108 L127.3482,1.6018 C127.3482,1.5458 127.3092,1.5238 127.2582,1.5238 C127.1942,1.5238 127.1802,1.5458 127.1292,1.6238 L124.8942,5.6538 C124.7132,5.9738 124.5192,6.0518 124.2352,6.0518 C123.9512,6.0518 123.7572,5.9738 123.5762,5.6538 L121.3412,1.6238 C121.2902,1.5458 121.2762,1.5238 121.2122,1.5238 C121.1602,1.5238 121.1222,1.5458 121.1222,1.6018 L121.1222,9.1108 C121.1222,9.2208 121.0312,9.3198 120.9022,9.3198 L120.7732,9.3198 C120.6442,9.3198 120.5532,9.2208 120.5532,9.1108 L120.5532,1.6018 C120.5532,1.2378 120.8112,1.0608 121.2122,1.0608 C121.5222,1.0608 121.7032,1.2158 121.8062,1.4028 L124.0672,5.4558 C124.1192,5.5548 124.1572,5.5988 124.2352,5.5988 C124.3122,5.5988 124.3512,5.5548 124.4032,5.4558 L126.6642,1.4028 C126.7672,1.2158 126.9482,1.0608 127.2582,1.0608 Z M99.3925,1.1158 C99.6255,1.1158 99.8055,1.1378 99.9225,1.2038 C100.0765,1.2818 100.1415,1.4028 100.1415,1.5578 C100.1415,1.7448 100.0515,1.8558 99.9995,1.9328 L95.0645,8.7458 L95.0385,8.8228 C95.0385,8.8558 95.0645,8.8668 95.1295,8.8668 L100.1935,8.8668 C100.3355,8.8668 100.4645,8.9218 100.4645,9.0328 L100.4645,9.1438 C100.4645,9.2538 100.3355,9.3198 100.1935,9.3198 L95.1295,9.3198 C94.6515,9.3198 94.4325,9.1538 94.4325,8.8448 C94.4325,8.7348 94.4705,8.5798 94.5735,8.4478 L99.4705,1.7118 L99.4955,1.6348 C99.4955,1.5908 99.4575,1.5678 99.3925,1.5678 L94.7155,1.5678 C94.5865,1.5678 94.4445,1.5128 94.4445,1.4028 L94.4445,1.2928 C94.4445,1.1828 94.5865,1.1158 94.7155,1.1158 L99.3925,1.1158 Z M109.327,1.1158 C109.457,1.1158 109.546,1.2158 109.546,1.3258 L109.546,8.0828 C109.546,8.7678 109.922,8.8668 110.541,8.8668 L113.487,8.8668 C113.629,8.8668 113.732,8.9328 113.732,9.0438 L113.732,9.1318 C113.732,9.2428 113.629,9.3198 113.487,9.3198 L110.541,9.3198 C109.56,9.3198 108.978,9.0108 108.978,8.0828 L108.978,1.3258 C108.978,1.2158 109.069,1.1158 109.198,1.1158 L109.327,1.1158 Z M119.2096,1.1158 C119.3526,1.1158 119.4556,1.1938 119.4556,1.3038 L119.4556,1.3918 C119.4556,1.5018 119.3526,1.5678 119.2096,1.5678 L115.8766,1.5678 C115.2566,1.5678 114.8826,1.6678 114.8826,2.3528 L114.8826,4.7818 L119.2096,4.7818 C119.3526,4.7818 119.4556,4.8478 119.4556,4.9578 L119.4556,5.0688 C119.4556,5.1788 119.3526,5.2558 119.2096,5.2558 L114.8826,5.2558 L114.8826,8.0828 C114.8826,8.7678 115.2566,8.8668 115.8766,8.8668 L119.2096,8.8668 C119.3526,8.8668 119.4556,8.9328 119.4556,9.0438 L119.4556,9.1318 C119.4556,9.2428 119.3526,9.3198 119.2096,9.3198 L115.8766,9.3198 C114.8946,9.3198 114.3136,9.0108 114.3136,8.0828 L114.3136,2.3528 C114.3136,1.4248 114.8946,1.1158 115.8766,1.1158 L119.2096,1.1158 Z M82.5353,1.0621 C84.8593,1.0621 86.0493,1.6261 86.0493,3.3141 L86.0493,3.3141 L86.0493,3.3701 C86.0493,4.7171 85.2613,5.3461 83.7363,5.5661 L83.7363,5.5661 L86.3463,9.0001 C86.3843,9.0541 86.4103,9.1111 86.4103,9.1551 C86.4103,9.2431 86.3463,9.3191 86.2033,9.3191 L86.2033,9.3191 L86.0353,9.3191 C85.9713,9.3191 85.8813,9.2651 85.8423,9.2201 L85.8423,9.2201 L83.0803,5.5891 C83.0433,5.5481 83.0073,5.4661 83.0073,5.4081 C83.0073,5.1751 83.1793,5.1411 83.2693,5.1361 C84.7673,5.0401 85.4803,4.5961 85.4803,3.3701 L85.4803,3.3701 L85.4803,3.3141 C85.4803,1.9351 84.4603,1.5261 82.5353,1.5261 C81.9943,1.5261 81.2573,1.5381 80.8693,1.5711 L80.8693,1.5711 L80.8693,9.1111 C80.8693,9.2201 80.7793,9.3191 80.6503,9.3191 L80.6503,9.3191 L80.5213,9.3191 C80.3913,9.3191 80.3013,9.2201 80.3013,9.1111 L80.3013,9.1111 L80.3013,1.3171 C80.3013,1.2171 80.4053,1.1181 80.5213,1.1061 C80.9733,1.0851 81.9803,1.0621 82.5353,1.0621 Z M6.66,1.1909 C6.66,1.1909 6.702,2.7289 5.36,2.6399 C4.334,2.5719 2.42,2.2549 2.371,3.0179 C2.309,3.9859 6.954,4.1209 6.832,6.7889 C6.638,11.0159 -7.99360578e-15,8.6579 -7.99360578e-15,8.6579 C-7.99360578e-15,8.6579 0.147,7.1249 1.527,7.3569 L1.85878827,7.4112586 C3.30832143,7.6409 4.86692857,7.76904286 4.814,6.8349 C4.754,5.7779 0.381,5.8599 0.353,3.0529 C0.318,-0.6121 6.66,1.1909 6.66,1.1909 Z M35.9891765,1.46087875 L35.9994,1.5912 L35.9994,7.4972 L39.4074,7.4972 C39.5084,8.1532 39.6214,8.9552 37.1854,9.2152 C35.0225852,9.44631111 34.0532025,9.12753471 33.9843632,8.25797783 L33.9804,8.1552 L33.9804,0.8612 C33.9804,0.8612 35.8346552,0.518635764 35.9891765,1.46087875 Z M66.2437767,1.21316306 L66.2999,1.3293 L69.3559,9.1903 L69.3195522,9.19765009 C69.0596358,9.24770817 67.4796465,9.5096838 66.9878626,8.58873394 L66.9299,8.4613 L66.6009,7.5283 L63.6459,7.5283 L63.0249,9.1903 C63.0249,9.1903 60.9245708,9.52227257 61.1217074,8.58872422 L61.1549,8.4753 L64.2169,0.8613 C64.2169,0.8613 65.7653271,0.380975347 66.2437767,1.21316306 Z M50.1038965,1.21316306 L50.1599,1.3293 L53.2169,9.1903 L53.1805522,9.19765009 C52.9206358,9.24770817 51.3406465,9.5096838 50.8488626,8.58873394 L50.7909,8.4613 L50.4619,7.5283 L47.5069,7.5283 L46.8849,9.1903 C46.8849,9.1903 44.7854981,9.52227257 44.9827034,8.58872422 L45.0159,8.4753 L48.0779,0.8613 C48.0779,0.8613 49.6263271,0.380975347 50.1038965,1.21316306 Z M12.0056965,1.21316306 L12.0617,1.3293 L15.1177,9.1903 L15.0813704,9.19765009 C14.821584,9.24770817 13.242377,9.5096838 12.7506583,8.58873394 L12.6927,8.4613 L12.3637,7.5283 L9.4087,7.5283 L8.7877,9.1903 C8.7877,9.1903 6.68644348,9.52227257 6.88440436,8.58872422 L6.9177,8.4753 L9.9797,0.8613 C9.9797,0.8613 11.5281271,0.380975347 12.0056965,1.21316306 Z M41.9468765,1.45949861 L41.9571,1.5897 L41.9571,7.4917 L44.8441,7.5007 C44.9451,8.1557 45.0571,8.9557 42.6201,9.2157 C40.6797154,9.42339231 39.9911799,8.97187604 39.941086,8.24430861 L39.9381,8.1557 L39.9381,0.8607 C39.9381,0.8607 41.7923552,0.518135764 41.9468765,1.45949861 Z M60.6621815,1.46107875 L60.6724,1.5914 L60.6724,9.1904 C60.6724,9.1904 60.3704,9.2524 59.9664,9.2504 C59.7664,9.2514 59.5514,9.2364 59.3524,9.1904 C58.9630667,9.11128889 58.5705728,8.93973333 58.2978266,8.59636982 L58.2014,8.4594 L55.5094,4.1174 L55.5094,9.1904 C55.5094,9.1904 53.6560632,9.53296424 53.5016185,8.58984112 L53.4914,8.4594 L53.4914,0.8614 C53.4914,0.8614 53.7934,0.7984 54.1964,0.8014 C54.3964,0.8004 54.6124,0.8144 54.8114,0.8614 C55.1998444,0.940511111 55.5930296,1.11127654 55.8659405,1.45446447 L55.9624,1.5914 L58.6544,5.9344 L58.6544,0.8614 C58.6544,0.8614 60.5077368,0.518835764 60.6621815,1.46107875 Z M22.6632815,1.46107875 L22.6735,1.5914 L22.6735,9.1904 C22.6735,9.1904 22.3715,9.2524 21.9685,9.2504 C21.7695,9.2514 21.5525,9.2364 21.3545,9.1904 C20.9651667,9.11128889 20.5718827,8.93973333 20.2996632,8.59636982 L20.2035,8.4594 L17.5105,4.1174 L17.5105,9.1904 C17.5105,9.1904 15.6580816,9.53296424 15.5037134,8.58984112 L15.4935,8.4594 L15.4935,0.8614 C15.4935,0.8614 15.7955,0.7984 16.1995,0.8014 C16.3975,0.8004 16.6145,0.8144 16.8135,0.8614 C17.2019444,0.940511111 17.5951296,1.11127654 17.8680405,1.45446447 L17.9645,1.5914 L20.6555,5.9344 L20.6555,0.8614 C20.6555,0.8614 22.5088368,0.518835764 22.6632815,1.46107875 Z M32.6028815,1.46107875 L32.6131,1.5914 L32.6131,9.1904 C32.6131,9.1904 30.7597632,9.53296424 30.6053185,8.58984112 L30.5951,8.4594 L30.5951,0.8614 C30.5951,0.8614 32.4484368,0.518835764 32.6028815,1.46107875 Z M29.7515,0.8346 C29.7515,0.8346 30.1238264,2.5082256 28.9716052,2.64211565 L28.8195,2.6506 L27.5855,2.6506 L27.5855,9.1896 L27.575241,9.19140896 C27.4269256,9.21695945 25.7180744,9.49119715 25.569759,8.58992125 L25.5595,8.4596 L25.5595,2.6506 L23.3905,2.6506 C23.3905,2.6506 23.0892639,0.982780556 24.1731322,0.843795602 L24.3225,0.8346 L29.7515,0.8346 Z M104.5982,1.5019 C104.4042,1.5019 104.3402,1.5909 104.3012,1.7119 L102.8802,5.7309 L106.3042,5.7309 L104.8952,1.7229 C104.8572,1.6129 104.7792,1.5019 104.5982,1.5019 Z M90.2067,1.5019 C90.0137,1.5019 89.9487,1.5909 89.9097,1.7119 L88.4887,5.7309 L91.9127,5.7309 L90.5047,1.7229 C90.4657,1.6129 90.3877,1.5019 90.2067,1.5019 Z M132.3092,1.5019 C132.1162,1.5019 132.0512,1.5909 132.0122,1.7119 L130.5912,5.7309 L134.0152,5.7309 L132.6062,1.7229 C132.5682,1.6129 132.4902,1.5019 132.3092,1.5019 Z M65.1669,3.4643 L64.3239,5.7203 L65.9629,5.7203 L65.1669,3.4643 Z M49.0279,3.4643 L48.1839,5.7203 L49.8239,5.7203 L49.0279,3.4643 Z M10.9297,3.4643 L10.0857,5.7203 L11.7257,5.7203 L10.9297,3.4643 Z" id="l-/-grazalema" fill="#29495e"></path>
    </g>
</svg>