<?xml version="1.0" encoding="UTF-8"?>
<svg width="158px" height="9px" viewBox="0 0 158 9" version="1.1" xmlns="http://www.w3.org/2000/svg" xmlns:xlink="http://www.w3.org/1999/xlink">
    <!-- Generator: Sketch 58 (84663) - https://sketch.com -->
    <title>l / gruppromotor</title>
    <desc>Created with Sketch.</desc>
    <g id="Page-1" stroke="none" stroke-width="1" fill="none" fill-rule="evenodd">
        <path d="M118.7843,0.4872 C120.7093,0.4872 122.0913,1.5022 122.0913,3.9652 L122.0913,5.3342 C122.0913,7.7972 120.7093,8.8122 118.7843,8.8122 C116.8593,8.8122 115.4763,7.7972 115.4763,5.3342 L115.4763,3.9652 C115.4763,1.5022 116.8593,0.4872 118.7843,0.4872 Z M134.829,0.4872 C136.754,0.4872 138.136,1.5022 138.136,3.9652 L138.136,5.3342 C138.136,7.7972 136.754,8.8122 134.829,8.8122 C132.904,8.8122 131.522,7.7972 131.522,5.3342 L131.522,3.9652 C131.522,1.5022 132.904,0.4872 134.829,0.4872 Z M147.532,0.4872 C149.457,0.4872 150.839,1.5022 150.839,3.9652 L150.839,5.3342 C150.839,7.7972 149.457,8.8122 147.532,8.8122 C145.607,8.8122 144.225,7.7972 144.225,5.3342 L144.225,3.9652 C144.225,1.5022 145.607,0.4872 147.532,0.4872 Z M76.1905,0.4871 C77.3535,0.4871 77.9605,0.5421 78.5165,0.5971 C78.6325,0.6081 78.7355,0.6411 78.7355,0.7741 L78.7355,0.8841 C78.7355,1.0271 78.6585,1.0721 78.4645,1.0501 C77.5475,0.9721 77.1335,0.9391 76.1905,0.9391 C74.8985,0.9391 73.5165,1.5581 73.5165,3.9651 L73.5165,5.3341 C73.5165,7.4211 74.5505,8.3481 76.1905,8.3481 C77.2885,8.3481 77.9475,8.2711 78.1545,8.2491 L78.1545,4.7381 C78.1545,4.6161 78.2445,4.5281 78.3735,4.5281 L78.5025,4.5281 C78.6325,4.5281 78.7225,4.6161 78.7225,4.7381 L78.7225,8.4591 C78.7225,8.5691 78.6195,8.6581 78.5025,8.6691 C77.8835,8.7351 77.2885,8.8121 76.1905,8.8121 C74.3565,8.8121 72.9485,7.7741 72.9485,5.3341 L72.9485,3.9651 C72.9485,1.2051 74.6795,0.4871 76.1905,0.4871 Z M87.3264,0.5412 C87.4554,0.5412 87.5464,0.6422 87.5464,0.7522 L87.5464,5.8312 C87.5464,7.4322 88.2304,8.3592 90.0394,8.3592 C91.8484,8.3592 92.5204,7.4322 92.5204,5.8312 L92.5204,0.7522 C92.5204,0.6422 92.6104,0.5412 92.7394,0.5412 L92.8694,0.5412 C92.9974,0.5412 93.0884,0.6422 93.0884,0.7522 L93.0884,5.8312 C93.0884,7.6972 92.1454,8.8122 90.0394,8.8122 C87.9334,8.8122 86.9774,7.6972 86.9774,5.8312 L86.9774,0.7522 C86.9774,0.6422 87.0684,0.5412 87.1974,0.5412 L87.3264,0.5412 Z M82.2816,0.4886 C84.6056,0.4886 85.7946,1.0526 85.7946,2.7416 L85.7946,2.7416 L85.7946,2.7966 C85.7946,4.1436 85.0066,4.7726 83.4826,4.9926 L83.4826,4.9926 L86.0916,8.4266 C86.1306,8.4816 86.1566,8.5376 86.1566,8.5816 C86.1566,8.6696 86.0916,8.7466 85.9496,8.7466 L85.9496,8.7466 L85.7816,8.7466 C85.7176,8.7466 85.6266,8.6916 85.5876,8.6476 L85.5876,8.6476 L82.8256,5.0156 C82.7886,4.9756 82.7536,4.8926 82.7536,4.8356 C82.7536,4.6026 82.9246,4.5686 83.0146,4.5626 C84.5136,4.4676 85.2266,4.0226 85.2266,2.7966 L85.2266,2.7966 L85.2266,2.7416 C85.2266,1.3616 84.2056,0.9526 82.2816,0.9526 C81.7396,0.9526 81.0026,0.9646 80.6146,0.9976 L80.6146,0.9976 L80.6146,8.5376 C80.6146,8.6476 80.5246,8.7466 80.3956,8.7466 L80.3956,8.7466 L80.2666,8.7466 C80.1366,8.7466 80.0466,8.6476 80.0466,8.5376 L80.0466,8.5376 L80.0466,0.7426 C80.0466,0.6436 80.1506,0.5446 80.2666,0.5336 C80.7186,0.5116 81.7256,0.4886 82.2816,0.4886 Z M111.0007,0.4886 C113.243597,0.4886 114.430284,1.01437408 114.509457,2.57086594 L114.5137,2.7416 L114.5137,2.7966 C114.5137,4.08503478 113.793647,4.71654707 112.395549,4.96155948 L112.2007,4.9926 L114.8107,8.4266 C114.8487,8.4816 114.8747,8.5376 114.8747,8.5816 C114.8747,8.65493333 114.830256,8.72062778 114.732686,8.74048889 L114.6677,8.7466 L114.4997,8.7466 C114.45245,8.7466 114.38945,8.7156625 114.34445,8.68163125 L114.3067,8.6476 L111.5437,5.0156 C111.5077,4.9756 111.4727,4.8926 111.4727,4.8356 C111.4727,4.6026 111.6427,4.5686 111.7327,4.5626 C113.166526,4.47173043 113.881214,4.06063403 113.940651,2.95211936 L113.9447,2.7966 L113.9447,2.7416 C113.9447,1.3616 112.9247,0.9526 111.0007,0.9526 C110.52645,0.9526 109.902903,0.9617875 109.494497,0.986191797 L109.3337,0.9976 L109.3337,8.5376 C109.3337,8.62926667 109.2712,8.71329444 109.175714,8.73875741 L109.1147,8.7466 L108.9857,8.7466 C108.877367,8.7466 108.796811,8.67785 108.772969,8.59127593 L108.7657,8.5376 L108.7657,0.7426 C108.7657,0.6436 108.8697,0.5446 108.9857,0.5336 C109.4377,0.5116 110.4447,0.4886 111.0007,0.4886 Z M154.1078,0.4886 C156.350697,0.4886 157.537384,1.01437408 157.616557,2.57086594 L157.6208,2.7416 L157.6208,2.7966 C157.6208,4.08503478 156.899832,4.71654707 155.502529,4.96155948 L155.3078,4.9926 L157.9178,8.4266 C157.9558,8.4816 157.9818,8.5376 157.9818,8.5816 C157.9818,8.65493333 157.937356,8.72062778 157.839786,8.74048889 L157.7748,8.7466 L157.6068,8.7466 C157.55955,8.7466 157.49655,8.7156625 157.45155,8.68163125 L157.4138,8.6476 L154.6508,5.0156 C154.6148,4.9756 154.5788,4.8926 154.5788,4.8356 C154.5788,4.6026 154.7498,4.5686 154.8398,4.5626 C156.273626,4.47173043 156.988314,4.06063403 157.047751,2.95211936 L157.0518,2.7966 L157.0518,2.7416 C157.0518,1.3616 156.0318,0.9526 154.1078,0.9526 C153.63355,0.9526 153.010003,0.9617875 152.601597,0.986191797 L152.4408,0.9976 L152.4408,8.5376 C152.4408,8.62926667 152.3783,8.71329444 152.282235,8.73875741 L152.2208,8.7466 L152.0928,8.7466 C151.983633,8.7466 151.903633,8.67785 151.879999,8.59127593 L151.8728,8.5376 L151.8728,0.7426 C151.8728,0.6436 151.9768,0.5446 152.0928,0.5336 C152.5448,0.5116 153.5518,0.4886 154.1078,0.4886 Z M143.8324,0.5415 C143.9744,0.5415 144.0774,0.6195 144.0774,0.7295 L144.0774,0.8295 C144.0774,0.9395 143.9744,0.9945 143.8324,0.9945 L141.4714,0.9945 L141.4714,8.5365 C141.4714,8.6465 141.3804,8.7465 141.2514,8.7465 L141.1224,8.7465 C140.9924,8.7465 140.9024,8.6465 140.9024,8.5365 L140.9024,0.9945 L138.5284,0.9945 C138.3864,0.9945 138.2824,0.9395 138.2824,0.8295 L138.2824,0.7295 C138.2824,0.6195 138.3864,0.5415 138.5284,0.5415 L143.8324,0.5415 Z M129.8294,0.4871 C130.2304,0.4871 130.4884,0.6641 130.4884,1.0271 L130.4884,8.5361 C130.4884,8.6471 130.3974,8.7461 130.2684,8.7461 L130.1394,8.7461 C130.0094,8.7461 129.9194,8.6471 129.9194,8.5361 L129.9194,1.0271 C129.9194,0.9721 129.8804,0.9501 129.8294,0.9501 C129.7654,0.9501 129.7514,0.9721 129.7004,1.0501 L127.4654,5.0801 C127.2844,5.4001 127.0904,5.4781 126.8064,5.4781 C126.5214,5.4781 126.3284,5.4001 126.1474,5.0801 L123.9124,1.0501 C123.8604,0.9721 123.8474,0.9501 123.7834,0.9501 C123.7314,0.9501 123.6924,0.9721 123.6924,1.0271 L123.6924,8.5361 C123.6924,8.6471 123.6024,8.7461 123.4724,8.7461 L123.3434,8.7461 C123.2154,8.7461 123.1244,8.6471 123.1244,8.5361 L123.1244,1.0271 C123.1244,0.6641 123.3824,0.4871 123.7834,0.4871 C124.0934,0.4871 124.2744,0.6411 124.3774,0.8291 L126.6384,4.8821 C126.6894,4.9811 126.7284,5.0261 126.8064,5.0261 C126.8834,5.0261 126.9224,4.9811 126.9734,4.8821 L129.2354,0.8291 C129.3384,0.6411 129.5194,0.4871 129.8294,0.4871 Z M104.5603,0.4867 C106.7563,0.4867 108.0743,1.1387 108.0743,2.7277 L108.0743,2.9157 C108.0743,4.6497 106.7563,5.2787 104.5603,5.2787 C104.0563,5.2787 103.5133,5.2567 103.1523,5.2347 L103.1523,8.5367 C103.1523,8.6467 103.0613,8.7457 102.9323,8.7457 L102.8033,8.7457 C102.6743,8.7457 102.5843,8.6467 102.5843,8.5367 L102.5843,0.7517 C102.5843,0.6527 102.6873,0.5537 102.8033,0.5417 C103.2553,0.5197 104.0053,0.4867 104.5603,0.4867 Z M96.357,0.4867 C98.553,0.4867 99.87,1.1387 99.87,2.7277 L99.87,2.9157 C99.87,4.6497 98.553,5.2787 96.357,5.2787 C95.853,5.2787 95.31,5.2567 94.949,5.2347 L94.949,8.5367 C94.949,8.6467 94.858,8.7457 94.729,8.7457 L94.6,8.7457 C94.471,8.7457 94.38,8.6467 94.38,8.5367 L94.38,0.7517 C94.38,0.6527 94.484,0.5537 94.6,0.5417 C95.052,0.5197 95.802,0.4867 96.357,0.4867 Z M6.66,0.6174 C6.66,0.6174 6.702,2.1554 5.36,2.0664 C4.334,1.9984 2.42,1.6814 2.371,2.4444 C2.309,3.4114 6.954,3.5474 6.832,6.2144 C6.638,10.4424 -7.99360578e-15,8.0844 -7.99360578e-15,8.0844 C-7.99360578e-15,8.0844 0.147,6.5504 1.528,6.7844 L1.85960313,6.83855926 C3.30845408,7.0674 4.86785714,7.19554286 4.814,6.2614 C4.754,5.2044 0.381,5.2854 0.353,2.4794 C0.319,-1.1856 6.66,0.6174 6.66,0.6174 Z M35.9893765,0.887178747 L35.9996,1.0175 L35.9996,6.9235 L39.4076,6.9235 C39.5086,7.5795 39.6216,8.3815 37.1856,8.6415 C35.0227852,8.87164815 34.0534025,8.55376337 33.9845632,7.68427387 L33.9806,7.5815 L33.9806,0.2875 C33.9806,0.2875 35.8348552,-0.0550642361 35.9893765,0.887178747 Z M66.2437767,0.639663064 L66.2999,0.7558 L69.3559,8.6158 L69.3195522,8.6231506 C69.0596358,8.67321435 67.4796465,8.93525788 66.9878626,8.01512294 L66.9299,7.8878 L66.6009,6.9548 L63.6459,6.9548 L63.0249,8.6158 C63.0249,8.6158 60.9245708,8.94869986 61.1217074,8.01432726 L61.1549,7.9008 L64.2169,0.2878 C64.2169,0.2878 65.7653271,-0.192524653 66.2437767,0.639663064 Z M12.0055965,0.639663064 L12.0616,0.7558 L15.1186,8.6158 L15.0822522,8.6231506 C14.8223358,8.67321435 13.2423465,8.93525788 12.7505626,8.01512294 L12.6926,7.8878 L12.3636,6.9548 L9.4086,6.9548 L8.7876,8.6158 C8.7876,8.6158 6.68634348,8.94869986 6.88430436,8.01432726 L6.9176,7.9008 L9.9796,0.2878 C9.9796,0.2878 11.5280271,-0.192524653 12.0055965,0.639663064 Z M50.1042915,0.639663064 L50.1603,0.7558 L53.2163,8.6158 C53.2163,8.6158 51.3847541,9.01890651 50.8491516,8.01512294 L50.7913,7.8878 L50.4623,6.9548 L47.5073,6.9548 L46.8853,8.6158 C46.8853,8.6158 44.7849708,8.94869986 44.9830004,8.01432726 L45.0163,7.9008 L48.0773,0.2878 C48.0773,0.2878 49.6266455,-0.192524653 50.1042915,0.639663064 Z M41.9470714,0.885798611 L41.9573,1.016 L41.9573,6.918 L44.8443,6.927 C44.9453,7.582 45.0573,8.382 42.6203,8.642 C40.6799154,8.84873077 39.9904553,8.39810207 39.9402903,7.67060435 L39.9373,7.582 L39.9373,0.287 C39.9373,0.287 41.7924736,-0.0555642361 41.9470714,0.885798611 Z M32.6030815,0.888258883 L32.6133,1.0187 L32.6133,8.6167 L32.6030815,8.61850888 C32.4553518,8.64405778 30.7532482,8.91825888 30.6055185,8.01614112 L30.5953,7.8857 L30.5953,0.2877 C30.5953,0.2877 32.4486368,-0.0548642361 32.6030815,0.888258883 Z M16.1987,0.226653369 C16.3977,0.226653369 16.6147,0.2407 16.8137,0.2877 C17.2021444,0.366811111 17.5953296,0.537576543 17.8675381,0.881466804 L17.9637,1.0187 L20.6557,5.3607 L20.6557,0.2877 C20.6557,0.2877 22.5090368,-0.0548642361 22.6634815,0.888258883 L22.6737,1.0187 L22.6737,8.6167 L22.6627905,8.61882209 C22.605342,8.62967531 22.3269222,8.67836667 21.9687,8.6757 C21.7687,8.6777 21.5527,8.6617 21.3547,8.6167 C20.9653667,8.53758889 20.5720827,8.36603333 20.2998632,8.02266982 L20.2037,7.8857 L17.5107,3.5437 L17.5107,8.6167 L17.5004815,8.61850888 C17.3527518,8.64405778 15.6506482,8.91825888 15.5029185,8.01614112 L15.4927,7.8857 L15.4927,0.2877 C15.4927,0.2877 15.7957,0.2247 16.1987,0.226653369 Z M54.1968,0.226653369 C54.3958,0.226653369 54.6128,0.2407 54.8118,0.2877 C55.1993556,0.366811111 55.592442,0.537576543 55.8653418,0.881466804 L55.9618,1.0187 L58.6548,5.3607 L58.6548,0.2877 C58.6548,0.2877 60.5081368,-0.0548642361 60.6625815,0.888258883 L60.6728,1.0187 L60.6728,8.6167 L60.6618892,8.61882209 C60.6044296,8.62967531 60.3259111,8.67836667 59.9668,8.6757 C59.7668,8.6777 59.5508,8.6617 59.3528,8.6167 C58.9634667,8.53758889 58.5709728,8.36603333 58.2982266,8.02266982 L58.2018,7.8857 L55.5088,3.5437 L55.5088,8.6167 L55.4985815,8.61850888 C55.3508518,8.64405778 53.6487482,8.91825888 53.5010185,8.01614112 L53.4908,7.8857 L53.4908,0.2877 C53.4908,0.2877 53.7938,0.2247 54.1968,0.226653369 Z M29.7515,0.2609 C29.7515,0.2609 30.1238264,1.9354472 28.9716052,2.06941098 L28.8195,2.0779 L27.5855,2.0779 L27.5855,8.6159 L27.5752461,8.61770896 C27.4270039,8.64325945 25.7189961,8.91749715 25.5707539,8.01622125 L25.5605,7.8859 L25.5605,2.0779 L23.3905,2.0779 C23.3905,2.0779 23.0892639,0.409162153 24.1731322,0.270100666 L24.3225,0.2609 L29.7515,0.2609 Z M134.829,0.9502 C133.266,0.9502 132.09,1.7122 132.09,3.9652 L132.09,5.3342 C132.09,7.5862 133.266,8.3482 134.829,8.3482 C136.392,8.3482 137.568,7.5862 137.568,5.3342 L137.568,3.9652 C137.568,1.7122 136.392,0.9502 134.829,0.9502 Z M118.7843,0.9502 C117.2213,0.9502 116.0453,1.7122 116.0453,3.9652 L116.0453,5.3342 C116.0453,7.5862 117.2213,8.3482 118.7843,8.3482 C120.3473,8.3482 121.5233,7.5862 121.5233,5.3342 L121.5233,3.9652 C121.5233,1.7122 120.3473,0.9502 118.7843,0.9502 Z M147.532,0.9502 C145.969,0.9502 144.793,1.7122 144.793,3.9652 L144.793,5.3342 C144.793,7.5862 145.969,8.3482 147.532,8.3482 C149.095,8.3482 150.271,7.5862 150.271,5.3342 L150.271,3.9652 C150.271,1.7122 149.095,0.9502 147.532,0.9502 Z M10.9296,2.8908 L10.0856,5.1468 L11.7256,5.1468 L10.9296,2.8908 Z M65.1669,2.8908 L64.3239,5.1468 L65.9639,5.1468 L65.1669,2.8908 Z M49.0283,2.8908 L48.1843,5.1468 L49.8243,5.1468 L49.0283,2.8908 Z M104.5603,0.9167 C104.0173,0.9167 103.5263,0.9287 103.1523,0.9497 L103.1523,4.8047 C103.5523,4.8257 104.1213,4.8487 104.5603,4.8487 C106.5623,4.8487 107.5063,4.3187 107.5063,2.9157 L107.5063,2.7277 C107.5063,1.3597 106.4853,0.9167 104.5603,0.9167 Z M96.357,0.9167 C95.814,0.9167 95.323,0.9287 94.949,0.9497 L94.949,4.8047 C95.349,4.8257 95.918,4.8487 96.357,4.8487 C98.359,4.8487 99.302,4.3187 99.302,2.9157 L99.302,2.7277 C99.302,1.3597 98.282,0.9167 96.357,0.9167 Z" id="l-/-gruppromotor" fill="#29495e"></path>
    </g>
</svg>