<?xml version="1.0" encoding="UTF-8"?>
<svg width="147px" height="10px" viewBox="0 0 147 10" version="1.1" xmlns="http://www.w3.org/2000/svg" xmlns:xlink="http://www.w3.org/1999/xlink">
    <!-- Generator: Sketch 58 (84663) - https://sketch.com -->
    <title>l / illes balears</title>
    <desc>Created with Sketch.</desc>
    <g id="Page-1" stroke="none" stroke-width="1" fill="none" fill-rule="evenodd">
        <path d="M102.9629,0.9281 C104.7329,0.9281 106.5159,1.2701 106.5159,2.9261 L106.5159,3.0481 C106.5159,3.9641 105.9339,4.5941 104.9779,4.8811 C105.9729,5.1341 106.5669,5.7751 106.5669,6.7581 L106.5669,6.9451 C106.5669,8.8991 104.5899,9.2641 102.9629,9.2641 C102.2909,9.2641 101.6069,9.2311 101.0249,9.1761 C100.8569,9.1651 100.7799,9.0991 100.7799,8.9661 L100.7799,1.2041 C100.7799,1.0941 100.8959,1.0051 101.0249,0.9941 C101.5549,0.9611 102.3039,0.9281 102.9629,0.9281 Z M144.191,0.9278 C144.734,0.9278 145.612,0.9828 145.987,1.0278 C146.246,1.0498 146.336,1.1048 146.336,1.2478 L146.336,1.3028 C146.336,1.4688 146.193,1.5018 145.935,1.4798 C145.819,1.4688 144.734,1.3918 144.178,1.3918 C142.473,1.3918 141.749,1.8228 141.749,2.6388 C141.749,3.4228 142.343,3.8208 143.494,4.4168 L144.32,4.8478 C145.845,5.6318 146.594,6.1288 146.594,7.1448 C146.594,8.1488 146.09,9.2528 143.597,9.2528 C142.757,9.2528 142.111,9.1978 141.711,9.1428 C141.478,9.1098 141.362,9.0658 141.362,8.9108 L141.362,8.8668 C141.362,8.6898 141.517,8.6678 141.659,8.6788 C142.072,8.7238 142.886,8.7898 143.597,8.7898 C145.547,8.7898 146,8.0498 146,7.1448 C146,6.3268 145.444,6.0408 144.01,5.2778 L143.196,4.8478 C142.021,4.2288 141.168,3.7098 141.168,2.6388 C141.168,1.2808 142.679,0.9278 144.191,0.9278 Z M94.8882,0.9278 C95.4312,0.9278 96.3092,0.9828 96.6842,1.0278 C96.9432,1.0498 97.0332,1.1048 97.0332,1.2478 L97.0332,1.3028 C97.0332,1.4688 96.8902,1.5018 96.6322,1.4798 C96.5162,1.4688 95.4312,1.3918 94.8752,1.3918 C93.1702,1.3918 92.4472,1.8228 92.4472,2.6388 C92.4472,3.4228 93.0402,3.8208 94.1912,4.4168 L95.0172,4.8478 C96.5422,5.6318 97.2912,6.1288 97.2912,7.1448 C97.2912,8.1488 96.7872,9.2528 94.2942,9.2528 C93.4542,9.2528 92.8082,9.1978 92.4082,9.1428 C92.1752,9.1098 92.0592,9.0658 92.0592,8.9108 L92.0592,8.8668 C92.0592,8.6898 92.2142,8.6678 92.3562,8.6788 C92.7692,8.7238 93.5832,8.7898 94.2942,8.7898 C96.2452,8.7898 96.6972,8.0498 96.6972,7.1448 C96.6972,6.3268 96.1412,6.0408 94.7072,5.2778 L93.8942,4.8478 C92.7182,4.2288 91.8652,3.7098 91.8652,2.6388 C91.8652,1.2808 93.3772,0.9278 94.8882,0.9278 Z M110.7267,0.9278 C111.1407,0.9278 111.4367,1.1268 111.5537,1.4578 L114.2027,8.9438 C114.2547,9.0988 114.2027,9.2198 114.0217,9.2198 L113.8667,9.2198 C113.7627,9.2198 113.6857,9.1538 113.6597,9.0768 L112.5747,6.0838 L108.8537,6.0838 L107.7937,9.0768 C107.7687,9.1428 107.6777,9.2198 107.5877,9.2198 L107.4197,9.2198 C107.2517,9.2198 107.1877,9.0988 107.2387,8.9438 L109.8877,1.4688 C110.0037,1.1378 110.3007,0.9278 110.7267,0.9278 Z M129.7741,0.9278 C130.1881,0.9278 130.4841,1.1268 130.6001,1.4578 L133.2491,8.9438 C133.3001,9.0988 133.2491,9.2198 133.0681,9.2198 L132.9131,9.2198 C132.8101,9.2198 132.7321,9.1538 132.7061,9.0768 L131.6211,6.0838 L127.9011,6.0838 L126.8411,9.0768 C126.8151,9.1428 126.7251,9.2198 126.6351,9.2198 L126.4661,9.2198 C126.2981,9.2198 126.2341,9.0988 126.2861,8.9438 L128.9341,1.4688 C129.0501,1.1378 129.3481,0.9278 129.7741,0.9278 Z M136.5191,0.9296 C138.8431,0.9296 140.0321,1.4926 140.0321,3.1826 L140.0321,3.1826 L140.0321,3.2366 C140.0321,4.5846 139.2451,5.2136 137.7201,5.4346 L137.7201,5.4346 L140.3291,8.8676 C140.3681,8.9226 140.3941,8.9786 140.3941,9.0226 C140.3941,9.1106 140.3291,9.1866 140.1861,9.1866 L140.1861,9.1866 L140.0191,9.1866 C139.9551,9.1866 139.8641,9.1336 139.8251,9.0876 L139.8251,9.0876 L137.0631,5.4566 C137.0261,5.4156 136.9911,5.3346 136.9911,5.2756 C136.9911,5.0426 137.1621,5.0086 137.2521,5.0036 C138.7511,4.9086 139.4641,4.4636 139.4641,3.2366 L139.4641,3.2366 L139.4641,3.1826 C139.4641,1.8026 138.4431,1.3936 136.5191,1.3936 C135.9771,1.3936 135.2401,1.4056 134.8521,1.4386 L134.8521,1.4386 L134.8521,8.9786 C134.8521,9.0876 134.7621,9.1866 134.6321,9.1866 L134.6321,9.1866 L134.5051,9.1866 C134.3741,9.1866 134.2841,9.0876 134.2841,8.9786 L134.2841,8.9786 L134.2841,1.1846 C134.2841,1.0846 134.3891,0.9856 134.5051,0.9746 C134.9561,0.9526 135.9631,0.9296 136.5191,0.9296 Z M90.716,0.9838 C90.858,0.9838 90.961,1.0608 90.961,1.1708 L90.961,1.2588 C90.961,1.3698 90.858,1.4358 90.716,1.4358 L87.383,1.4358 C86.763,1.4358 86.388,1.5348 86.388,2.2198 L86.388,4.6488 L90.716,4.6488 C90.858,4.6488 90.961,4.7148 90.961,4.8258 L90.961,4.9358 C90.961,5.0468 90.858,5.1238 90.716,5.1238 L86.388,5.1238 L86.388,7.9508 C86.388,8.6348 86.763,8.7338 87.383,8.7338 L90.716,8.7338 C90.858,8.7338 90.961,8.8008 90.961,8.9108 L90.961,8.9998 C90.961,9.1098 90.858,9.1868 90.716,9.1868 L87.383,9.1868 C86.4,9.1868 85.82,8.8778 85.82,7.9508 L85.82,2.2198 C85.82,1.2918 86.4,0.9838 87.383,0.9838 L90.716,0.9838 Z M81.2515,0.9838 C81.3815,0.9838 81.4715,1.0828 81.4715,1.1928 L81.4715,7.9508 C81.4715,8.6348 81.8465,8.7338 82.4665,8.7338 L85.0085,8.7338 C85.1505,8.7338 85.2545,8.8008 85.2545,8.9108 L85.2545,8.9998 C85.2545,9.1098 85.1505,9.1868 85.0085,9.1868 L82.4665,9.1868 C81.4845,9.1868 80.9035,8.8778 80.9035,7.9508 L80.9035,1.1928 C80.9035,1.0828 80.9935,0.9838 81.1225,0.9838 L81.2515,0.9838 Z M125.3297,0.9838 C125.4717,0.9838 125.5757,1.0608 125.5757,1.1708 L125.5757,1.2588 C125.5757,1.3698 125.4717,1.4358 125.3297,1.4358 L121.9967,1.4358 C121.3767,1.4358 121.0017,1.5348 121.0017,2.2198 L121.0017,4.6488 L125.3297,4.6488 C125.4717,4.6488 125.5757,4.7148 125.5757,4.8258 L125.5757,4.9358 C125.5757,5.0468 125.4717,5.1238 125.3297,5.1238 L121.0017,5.1238 L121.0017,7.9508 C121.0017,8.6348 121.3767,8.7338 121.9967,8.7338 L125.3297,8.7338 C125.4717,8.7338 125.5757,8.8008 125.5757,8.9108 L125.5757,8.9998 C125.5757,9.1098 125.4717,9.1868 125.3297,9.1868 L121.9967,9.1868 C121.0147,9.1868 120.4337,8.8778 120.4337,7.9508 L120.4337,2.2198 C120.4337,1.2918 121.0147,0.9838 121.9967,0.9838 L125.3297,0.9838 Z M115.5838,0.9838 C115.7138,0.9838 115.8038,1.0828 115.8038,1.1928 L115.8038,7.9508 C115.8038,8.6348 116.1788,8.7338 116.7978,8.7338 L119.3408,8.7338 C119.4828,8.7338 119.5868,8.8008 119.5868,8.9108 L119.5868,8.9998 C119.5868,9.1098 119.4828,9.1868 119.3408,9.1868 L116.7978,9.1868 C115.8168,9.1868 115.2348,8.8778 115.2348,7.9508 L115.2348,1.1928 C115.2348,1.0828 115.3258,0.9838 115.4548,0.9838 L115.5838,0.9838 Z M73.6842,0.9838 C73.8132,0.9838 73.9042,1.0828 73.9042,1.1928 L73.9042,8.9778 C73.9042,9.0878 73.8132,9.1868 73.6842,9.1868 L73.5552,9.1868 C73.4262,9.1868 73.3352,9.0878 73.3352,8.9778 L73.3352,1.1928 C73.3352,1.0828 73.4262,0.9838 73.5552,0.9838 L73.6842,0.9838 Z M75.932,0.9838 C76.062,0.9838 76.152,1.0828 76.152,1.1928 L76.152,7.9508 C76.152,8.6348 76.527,8.7338 77.147,8.7338 L79.689,8.7338 C79.831,8.7338 79.935,8.8008 79.935,8.9108 L79.935,8.9998 C79.935,9.1098 79.831,9.1868 79.689,9.1868 L77.147,9.1868 C76.165,9.1868 75.583,8.8778 75.583,7.9508 L75.583,1.1928 C75.583,1.0828 75.674,0.9838 75.803,0.9838 L75.932,0.9838 Z M6.66,1.058 C6.66,1.058 6.702,2.596 5.359,2.507 C4.334,2.439 2.42,2.122 2.371,2.885 C2.309,3.853 6.954,3.989 6.832,6.656 C6.638,10.883 -7.99360578e-15,8.525 -7.99360578e-15,8.525 C-7.99360578e-15,8.525 0.147,6.992 1.527,7.225 L1.85880248,7.27915926 C3.30845408,7.508 4.86785714,7.63614286 4.814,6.702 C4.754,5.645 0.381,5.727 0.353,2.92 C0.319,-0.745 6.66,1.058 6.66,1.058 Z M35.9893765,1.32817875 L35.9996,1.4585 L35.9996,7.3645 L39.4076,7.3645 C39.5086,8.0195 39.6206,8.8225 37.1846,9.0825 C35.0227481,9.31264815 34.0534011,8.99476337 33.9845631,8.12527387 L33.9806,8.0225 L33.9806,0.7285 C33.9806,0.7285 35.8348552,0.385935764 35.9893765,1.32817875 Z M66.2439767,1.08026306 L66.3001,1.1964 L69.3561,9.0564 C69.3561,9.0564 67.5245541,9.46043107 66.9880626,8.45582962 L66.9301,8.3284 L66.6011,7.3964 L63.6461,7.3964 L63.0251,9.0564 C63.0251,9.0564 60.9238435,9.38929986 61.1218044,8.45582021 L61.1551,8.3424 L64.2171,0.7284 C64.2171,0.7284 65.7655271,0.248075347 66.2439767,1.08026306 Z M12.0057915,1.08026306 L12.0618,1.1964 L15.1178,9.0564 L15.0814704,9.06376832 C14.821684,9.11395634 13.242477,9.37671428 12.7507583,8.45582962 L12.6928,8.3284 L12.3638,7.3964 L9.4088,7.3964 L8.7868,9.0564 C8.7868,9.0564 6.68739808,9.38929986 6.88460338,8.45582021 L6.9178,8.3424 L9.9788,0.7284 C9.9788,0.7284 11.5281455,0.248075347 12.0057915,1.08026306 Z M50.1044915,1.08026306 L50.1605,1.1964 L53.2165,9.0564 L53.1801527,9.06376832 C52.920242,9.11395634 51.3403206,9.37671428 50.8493516,8.45582962 L50.7915,8.3284 L50.4625,7.3964 L47.5075,7.3964 L46.8855,9.0564 C46.8855,9.0564 44.7860981,9.38929986 44.9824104,8.45582021 L45.0155,8.3424 L48.0775,0.7284 C48.0775,0.7284 49.6268455,0.248075347 50.1044915,1.08026306 Z M41.9468714,1.32679861 L41.9571,1.457 L41.9571,7.359 L44.8441,7.368 C44.9451,8.023 45.0581,8.823 42.6211,9.083 C40.6807154,9.29069231 39.9903308,8.83917604 39.9400947,8.11160861 L39.9371,8.023 L39.9371,0.728 C39.9371,0.728 41.7922736,0.385435764 41.9468714,1.32679861 Z M22.6636815,1.32837875 L22.6739,1.4587 L22.6739,9.0567 L22.6629892,9.05885781 C22.6055296,9.06989811 22.3270111,9.11948296 21.9679,9.11774663 C21.7689,9.1187 21.5529,9.1027 21.3539,9.0567 C20.9654556,8.97758889 20.5722704,8.80682346 20.3000619,8.46363553 L20.2039,8.3267 L17.5109,3.9837 L17.5109,9.0567 L17.5006866,9.05851395 C17.3530301,9.08413605 15.6517699,9.35918061 15.5041134,8.45713605 L15.4939,8.3267 L15.4939,0.7287 C15.4939,0.7287 15.7959,0.6657 16.1989,0.667653369 C16.3979,0.6667 16.6139,0.6817 16.8129,0.7287 C17.2022333,0.807811111 17.5955173,0.978576543 17.8684391,1.32176447 L17.9649,1.4587 L20.6559,5.8017 L20.6559,0.7287 C20.6559,0.7287 22.5092368,0.386135764 22.6636815,1.32837875 Z M60.6627815,1.32837875 L60.673,1.4587 L60.673,9.0567 L60.6620562,9.05885781 C60.6044321,9.06989811 60.3252222,9.11948296 59.967,9.11774663 C59.767,9.1187 59.551,9.1027 59.353,9.0567 C58.9636667,8.97758889 58.5703827,8.80682346 58.2981632,8.46363553 L58.202,8.3267 L55.509,3.9837 L55.509,9.0567 L55.4987815,9.05851395 C55.3510518,9.08413605 53.6489482,9.35918061 53.5012185,8.45713605 L53.491,8.3267 L53.491,0.7287 C53.491,0.7287 53.794,0.6657 54.197,0.667653369 C54.396,0.6667 54.613,0.6817 54.812,0.7287 C55.1995556,0.807811111 55.592642,0.978576543 55.8655418,1.32176447 L55.962,1.4587 L58.655,5.8017 L58.655,0.7287 C58.655,0.7287 60.5083368,0.386135764 60.6627815,1.32837875 Z M32.6028815,1.32837875 L32.6131,1.4587 L32.6131,9.0567 L32.6028815,9.05851395 C32.4551518,9.08413605 30.7530482,9.35918061 30.6053185,8.45713605 L30.5951,8.3267 L30.5951,0.7287 C30.5951,0.7287 32.4484368,0.386135764 32.6028815,1.32837875 Z M29.7519,0.7015 C29.7519,0.7015 30.1233048,2.3760472 28.9710099,2.51001098 L28.8189,2.5185 L27.5859,2.5185 L27.5859,9.0565 L27.575641,9.05831395 C27.4273256,9.08393605 25.7184744,9.35898061 25.570159,8.45693605 L25.5599,8.3265 L25.5599,2.5185 L23.3909,2.5185 C23.3909,2.5185 23.0896639,0.849762153 24.1735322,0.710700666 L24.3229,0.7015 L29.7519,0.7015 Z M103.6869,5.1121 L101.3479,5.1121 L101.3479,8.7561 C101.9029,8.7891 102.3299,8.8231 102.9629,8.8231 C104.5129,8.8231 105.9989,8.5461 105.9989,6.9451 L105.9989,6.7581 C105.9989,5.9071 105.5079,5.1121 103.6869,5.1121 Z M110.7267,1.3698 C110.5327,1.3698 110.4687,1.4578 110.4297,1.5798 L109.0087,5.5988 L112.4317,5.5988 L111.0237,1.5898 C110.9857,1.4798 110.9077,1.3698 110.7267,1.3698 Z M129.7741,1.3698 C129.5801,1.3698 129.5151,1.4578 129.4771,1.5798 L128.0561,5.5988 L131.4791,5.5988 L130.0711,1.5898 C130.0321,1.4798 129.9551,1.3698 129.7741,1.3698 Z M10.9298,3.3314 L10.0858,5.5884 L11.7258,5.5884 L10.9298,3.3314 Z M65.1671,3.3314 L64.3231,5.5884 L65.9641,5.5884 L65.1671,3.3314 Z M49.0285,3.3314 L48.1835,5.5884 L49.8245,5.5884 L49.0285,3.3314 Z M102.9629,1.3581 C102.3949,1.3581 101.7869,1.3911 101.3479,1.4031 L101.3479,4.6381 L103.6869,4.6381 C105.4949,4.6381 105.9469,3.8761 105.9469,3.0481 L105.9469,2.9261 C105.9469,1.5791 104.4749,1.3581 102.9629,1.3581 Z" id="l-/-illes-balears" fill="#29495e"></path>
    </g>
</svg>