<?xml version="1.0" encoding="UTF-8"?>
<svg width="134px" height="9px" viewBox="0 0 134 9" version="1.1" xmlns="http://www.w3.org/2000/svg" xmlns:xlink="http://www.w3.org/1999/xlink">
    <!-- Generator: Sketch 58 (84663) - https://sketch.com -->
    <title>l / obradoiro</title>
    <desc>Created with Sketch.</desc>
    <g id="Page-1" stroke="none" stroke-width="1" fill="none" fill-rule="evenodd">
        <path d="M83.0379,0.3288 C84.8079,0.3288 86.5909,0.6708 86.5909,2.3278 L86.5909,2.4498 C86.5909,3.3658 86.0089,3.9958 85.0529,4.2818 C86.0479,4.5358 86.6419,5.1768 86.6419,6.1598 L86.6419,6.3468 C86.6419,8.3008 84.6649,8.6658 83.0379,8.6658 C82.3659,8.6658 81.6819,8.6328 81.0999,8.5778 C80.9319,8.5668 80.8549,8.4998 80.8549,8.3678 L80.8549,0.6048 C80.8549,0.4948 80.9709,0.4068 81.0999,0.3958 C81.6289,0.3628 82.3789,0.3288 83.0379,0.3288 Z M76.2551,0.3295 C78.1801,0.3295 79.5631,1.3455 79.5631,3.8075 L79.5631,5.1765 C79.5631,7.6395 78.1801,8.6545 76.2551,8.6545 C74.3301,8.6545 72.9481,7.6395 72.9481,5.1765 L72.9481,3.8075 C72.9481,1.3455 74.3301,0.3295 76.2551,0.3295 Z M104.8569,0.3295 C107.0539,0.3295 108.6299,1.2235 108.6299,3.8075 L108.6299,5.1765 C108.6299,7.7155 107.0539,8.6545 104.8569,8.6545 C103.8239,8.6545 103.1129,8.6215 102.7389,8.5665 C102.6219,8.5445 102.5189,8.4555 102.5189,8.3565 L102.5189,0.6275 C102.5189,0.5285 102.6219,0.4395 102.7389,0.4175 C103.1129,0.3625 103.8239,0.3295 104.8569,0.3295 Z M112.9701,0.3295 C114.8951,0.3295 116.2771,1.3455 116.2771,3.8075 L116.2771,5.1765 C116.2771,7.6395 114.8951,8.6545 112.9701,8.6545 C111.0451,8.6545 109.6631,7.6395 109.6631,5.1765 L109.6631,3.8075 C109.6631,1.3455 111.0451,0.3295 112.9701,0.3295 Z M129.9016,0.3295 C131.8266,0.3295 133.2086,1.3455 133.2086,3.8075 L133.2086,5.1765 C133.2086,7.6395 131.8266,8.6545 129.9016,8.6545 C127.9766,8.6545 126.5936,7.6395 126.5936,5.1765 L126.5936,3.8075 C126.5936,1.3455 127.9766,0.3295 129.9016,0.3295 Z M98.0102,0.3295 C98.4242,0.3295 98.7202,0.5285 98.8372,0.8595 L101.4852,8.3455 C101.5372,8.5005 101.4852,8.6215 101.3052,8.6215 L101.1492,8.6215 C101.0462,8.6215 100.9692,8.5555 100.9432,8.4775 L99.8582,5.4855 L96.1372,5.4855 L95.0772,8.4775 C95.0522,8.5445 94.9612,8.6215 94.8712,8.6215 L94.7032,8.6215 C94.5352,8.6215 94.4702,8.5005 94.5222,8.3455 L97.1702,0.8705 C97.2872,0.5395 97.5842,0.3295 98.0102,0.3295 Z M118.0474,0.3844 C118.1764,0.3844 118.2674,0.4844 118.2674,0.5944 L118.2674,8.3784 C118.2674,8.4884 118.1764,8.5884 118.0474,8.5884 L117.9184,8.5884 C117.7894,8.5884 117.6984,8.4884 117.6984,8.3784 L117.6984,0.5944 C117.6984,0.4844 117.7894,0.3844 117.9184,0.3844 L118.0474,0.3844 Z M90.0717,0.3307 C92.3155621,0.3307 93.5013504,0.856474078 93.5804608,2.41296594 L93.5847,2.5837 L93.5847,2.6387 C93.5847,3.92713478 92.8637321,4.55864707 91.4673044,4.80453463 L91.2727,4.8357 L93.8817,8.2687 C93.9197,8.3237 93.9467,8.3797 93.9467,8.4237 C93.9467,8.49703333 93.9015611,8.56203333 93.8037602,8.58166296 L93.7387,8.5877 L93.5717,8.5877 C93.5237,8.5877 93.4605125,8.5578875 93.4154656,8.523575 L93.3777,8.4887 L90.6157,4.8577 C90.5787,4.8167 90.5437,4.7357 90.5437,4.6767 C90.5437,4.4437 90.7147,4.4097 90.8047,4.4047 C92.2385261,4.31383043 92.9532142,3.90273403 93.0126505,2.79421936 L93.0167,2.6387 L93.0167,2.5837 C93.0167,1.2037 91.9967,0.7947 90.0717,0.7947 C89.59745,0.7947 88.9739031,0.8038875 88.5654969,0.828291797 L88.4047,0.8397 L88.4047,8.3797 C88.4047,8.47053333 88.3428944,8.55442222 88.2464824,8.57986204 L88.1847,8.5877 L88.0577,8.5877 C87.9485333,8.5877 87.8678389,8.51895 87.8439731,8.43295463 L87.8367,8.3797 L87.8367,0.5857 C87.8367,0.4857 87.9417,0.3867 88.0577,0.3757 C88.5087,0.3537 89.5157,0.3307 90.0717,0.3307 Z M122.181,0.3311 C124.504,0.3311 125.694,0.8951 125.694,2.5841 L125.694,2.5841 L125.694,2.6391 C125.694,3.9861 124.906,4.6151 123.381,4.8361 L123.381,4.8361 L125.991,8.2691 C126.029,8.3241 126.056,8.3801 126.056,8.4241 C126.056,8.5121 125.991,8.5881 125.848,8.5881 L125.848,8.5881 L125.68,8.5881 C125.617,8.5881 125.526,8.5351 125.487,8.4891 L125.487,8.4891 L122.724,4.8581 C122.688,4.8181 122.652,4.7361 122.652,4.6771 C122.652,4.4441 122.824,4.4111 122.913,4.4051 C124.412,4.3101 125.125,3.8661 125.125,2.6391 L125.125,2.6391 L125.125,2.5841 C125.125,1.2041 124.105,0.7951 122.181,0.7951 C121.639,0.7951 120.902,0.8071 120.514,0.8401 L120.514,0.8401 L120.514,8.3801 C120.514,8.4891 120.424,8.5881 120.294,8.5881 L120.294,8.5881 L120.166,8.5881 C120.036,8.5881 119.946,8.4891 119.946,8.3801 L119.946,8.3801 L119.946,0.5861 C119.946,0.4861 120.05,0.3871 120.166,0.3761 C120.618,0.3541 121.624,0.3311 122.181,0.3311 Z M6.66,0.4587 C6.66,0.4587 6.702,1.9977 5.359,1.9087 C4.334,1.8407 2.42,1.5237 2.371,2.2867 C2.309,3.2537 6.955,3.3897 6.832,6.0567 C6.638,10.2847 -4.79616347e-14,7.9267 -4.79616347e-14,7.9267 C-4.79616347e-14,7.9267 0.148,6.3927 1.527,6.6257 L1.85880248,6.6800586 C3.30845408,6.9097 4.86785714,7.03784286 4.814,6.1037 C4.754,5.0467 0.381,5.1277 0.353,2.3217 C0.319,-1.3433 6.66,0.4587 6.66,0.4587 Z M35.9893765,0.729778747 L35.9996,0.8601 L35.9996,6.7661 L39.4076,6.7661 C39.5086,7.4221 39.6216,8.2241 37.1846,8.4841 C35.0227481,8.71424815 34.0534011,8.39636337 33.9845631,7.52687387 L33.9806,7.4241 L33.9806,0.1301 C33.9806,0.1301 35.8348552,-0.212464236 35.9893765,0.729778747 Z M12.0061915,0.481963064 L12.0622,0.5981 L15.1182,8.4581 C15.1182,8.4581 13.2875787,8.86120651 12.7502693,7.85831194 L12.6922,7.7311 L12.3642,6.7971 L9.4092,6.7971 L8.7872,8.4581 C8.7872,8.4581 6.68687078,8.79099986 6.88490035,7.85752021 L6.9182,7.7441 L9.9792,0.1301 C9.9792,0.1301 11.5285455,-0.350224653 12.0061915,0.481963064 Z M50.1044915,0.481963064 L50.1605,0.5981 L53.2165,8.4581 L53.1801527,8.46545112 C52.920242,8.51552052 51.3403206,8.77763196 50.8493516,7.85831194 L50.7915,7.7311 L50.4625,6.7971 L47.5075,6.7971 L46.8855,8.4581 C46.8855,8.4581 44.7860981,8.79099986 44.9824104,7.85752021 L45.0155,7.7441 L48.0775,0.1301 C48.0775,0.1301 49.6268455,-0.350224653 50.1044915,0.481963064 Z M66.2439767,0.481963064 L66.3001,0.5981 L69.3561,8.4581 C69.3561,8.4581 67.5245541,8.86120651 66.9880626,7.85831194 L66.9301,7.7311 L66.6011,6.7971 L63.6461,6.7971 L63.0251,8.4581 C63.0251,8.4581 60.9247708,8.79099986 61.1219074,7.85752021 L61.1551,7.7441 L64.2171,0.1301 C64.2171,0.1301 65.7655271,-0.350224653 66.2439767,0.481963064 Z M41.9472714,0.728398611 L41.9575,0.8586 L41.9575,6.7596 L44.8445,6.7696 C44.9455,7.4246 45.0575,8.2246 42.6205,8.4846 C40.6801154,8.69133077 39.9906553,8.24070207 39.9404903,7.51320435 L39.9375,7.4246 L39.9375,0.1296 C39.9375,0.1296 41.7926736,-0.212964236 41.9472714,0.728398611 Z M32.6032815,0.729878747 L32.6135,0.8602 L32.6135,8.4592 C32.6135,8.4592 30.7601632,8.80176424 30.6057185,7.85864112 L30.5955,7.7282 L30.5955,0.1302 C30.5955,0.1302 32.4488368,-0.212364236 32.6032815,0.729878747 Z M54.197,0.0691562077 C54.396,0.0682 54.613,0.0842 54.812,0.1302 C55.1995556,0.209311111 55.592642,0.380076543 55.8655418,0.723264472 L55.962,0.8602 L58.655,5.2032 L58.655,0.1302 C58.655,0.1302 60.5083368,-0.212364236 60.6627815,0.729878747 L60.673,0.8602 L60.673,8.4592 C60.673,8.4592 60.37,8.5212 59.967,8.5192 C59.767,8.5202 59.551,8.5042 59.353,8.4592 C58.9636667,8.3792 58.5711728,8.2083358 58.2984266,7.8651369 L58.202,7.7282 L55.509,3.3852 L55.509,8.4592 C55.509,8.4592 53.6556632,8.80176424 53.5012185,7.85864112 L53.491,7.7282 L53.491,0.1302 C53.491,0.1302 53.794,0.0682 54.197,0.0691562077 Z M16.1989,0.0691562077 C16.3979,0.0682 16.6139,0.0842 16.8129,0.1302 C17.2022333,0.209311111 17.5955173,0.380076543 17.8684391,0.723264472 L17.9649,0.8602 L20.6559,5.2032 L20.6559,0.1302 C20.6559,0.1302 22.5092368,-0.212364236 22.6636815,0.729878747 L22.6739,0.8602 L22.6739,8.4592 C22.6739,8.4592 22.3719,8.5212 21.9679,8.5192 C21.7689,8.5202 21.5529,8.5042 21.3549,8.4592 C20.9655667,8.3792 20.5722827,8.2083358 20.3000632,7.8651369 L20.2039,7.7282 L17.5109,3.3852 L17.5109,8.4592 C17.5109,8.4592 15.6584816,8.80176424 15.5041134,7.85864112 L15.4939,7.7282 L15.4939,0.1302 C15.4939,0.1302 15.7959,0.0682 16.1989,0.0691562077 Z M29.7519,0.1032 C29.7519,0.1032 30.1233048,1.7768256 28.9710099,1.91071565 L28.8189,1.9192 L27.5859,1.9192 L27.5859,8.4582 L27.575641,8.46000896 C27.4273256,8.48555945 25.7184744,8.75979715 25.570159,7.85852125 L25.5599,7.7282 L25.5599,1.9192 L23.3909,1.9192 C23.3909,1.9192 23.0896639,0.251380556 24.1735322,0.112395602 L24.3229,0.1032 L29.7519,0.1032 Z M104.8569,0.7595 C104.1079,0.7595 103.6559,0.7925 103.0879,0.8265 L103.0879,8.1805 C103.6559,8.2135 104.1079,8.2245 104.8569,8.2245 C106.6659,8.2245 108.0619,7.5065 108.0619,5.1765 L108.0619,3.8075 C108.0619,1.4555 106.6659,0.7595 104.8569,0.7595 Z M83.7609,4.5138 L81.4229,4.5138 L81.4229,8.1578 C81.9789,8.1918 82.4049,8.2248 83.0379,8.2248 C84.5879,8.2248 86.0739,7.9478 86.0739,6.3468 L86.0739,6.1598 C86.0739,5.3098 85.5829,4.5138 83.7609,4.5138 Z M129.9016,0.7925 C128.3386,0.7925 127.1626,1.5545 127.1626,3.8075 L127.1626,5.1765 C127.1626,7.4285 128.3386,8.1915 129.9016,8.1915 C131.4646,8.1915 132.6406,7.4285 132.6406,5.1765 L132.6406,3.8075 C132.6406,1.5545 131.4646,0.7925 129.9016,0.7925 Z M112.9701,0.7925 C111.4081,0.7925 110.2311,1.5545 110.2311,3.8075 L110.2311,5.1765 C110.2311,7.4285 111.4081,8.1915 112.9701,8.1915 C114.5331,8.1915 115.7091,7.4285 115.7091,5.1765 L115.7091,3.8075 C115.7091,1.5545 114.5331,0.7925 112.9701,0.7925 Z M76.2551,0.7925 C74.6921,0.7925 73.5161,1.5545 73.5161,3.8075 L73.5161,5.1765 C73.5161,7.4285 74.6921,8.1915 76.2551,8.1915 C77.8191,8.1915 78.9941,7.4285 78.9941,5.1765 L78.9941,3.8075 C78.9941,1.5545 77.8191,0.7925 76.2551,0.7925 Z M98.0102,0.7715 C97.8162,0.7715 97.7522,0.8595 97.7132,0.9805 L96.2922,4.9995 L99.7162,4.9995 L98.3072,0.9915 C98.2682,0.8815 98.1912,0.7715 98.0102,0.7715 Z M10.9302,2.7331 L10.0862,4.9891 L11.7262,4.9891 L10.9302,2.7331 Z M65.1671,2.7331 L64.3231,4.9891 L65.9641,4.9891 L65.1671,2.7331 Z M49.0285,2.7331 L48.1835,4.9891 L49.8245,4.9891 L49.0285,2.7331 Z M83.0379,0.7598 C82.4699,0.7598 81.8619,0.7928 81.4229,0.8038 L81.4229,4.0388 L83.7609,4.0388 C85.5699,4.0388 86.0219,3.2778 86.0219,2.4498 L86.0219,2.3278 C86.0219,0.9808 84.5489,0.7598 83.0379,0.7598 Z" id="l-/-obradoiro" fill="#29495e"></path>
    </g>
</svg>