<?xml version="1.0" encoding="UTF-8"?>
<svg width="69px" height="9px" viewBox="0 0 69 9" version="1.1" xmlns="http://www.w3.org/2000/svg" xmlns:xlink="http://www.w3.org/1999/xlink">
    <!-- Generator: Sketch 58 (84663) - https://sketch.com -->
    <title>l / santillana</title>
    <desc>Created with Sketch.</desc>
    <g id="Page-1" stroke="none" stroke-width="1" fill="none" fill-rule="evenodd">
        <path d="M6.594,0.4626 L6.59403762,0.492515509 C6.59131944,0.705245833 6.52425,1.97826667 5.306,1.8976 C4.291,1.8306 2.396,1.5166 2.347,2.2716 C2.286,3.2296 6.885,3.3646 6.764,6.0046 C6.572,10.1906 3.90798505e-14,7.8556 3.90798505e-14,7.8556 C3.90798505e-14,7.8556 0.146,6.3376 1.512,6.5686 C3.028,6.8236 4.823,7.0466 4.766,6.0506 C4.706,5.0046 0.377,5.0856 0.35,2.3066 C0.315,-1.3224 6.594,0.4626 6.594,0.4626 Z M33.644,0.1365 C33.644,0.1365 35.642,-0.2325 35.642,0.8595 L35.642,0.8595 L35.642,6.7065 L39.017,6.7065 C39.117,7.3555 39.228,8.1505 36.816,8.4075 C34.593,8.6445 33.644,8.2955 33.644,7.3585 L33.644,7.3585 Z M11.886757,0.485021586 L11.9422,0.6001 L14.9682,8.3821 C14.9682,8.3821 13.1551453,8.78150828 12.6236321,7.7872192 L12.5662,7.6611 L12.2412,6.7381 L9.3152,6.7381 L8.7002,8.3821 C8.7002,8.3821 6.62027133,8.71129067 6.81624024,7.78735875 L6.8492,7.6751 L9.8802,0.1371 C9.8802,0.1371 11.4139326,-0.339551042 11.886757,0.485021586 Z M65.5865422,0.485021586 L65.6421,0.6001 L68.6681,8.3821 C68.6681,8.3821 66.8541207,8.78150828 66.3234254,7.7872192 L66.2661,7.6611 L65.9411,6.7381 L63.0151,6.7381 L62.3991,8.3821 C62.3991,8.3821 60.3200986,8.71129067 60.5161362,7.78735875 L60.5491,7.6751 L63.5801,0.1371 C63.5801,0.1371 65.1129142,-0.339551042 65.5865422,0.485021586 Z M49.607557,0.485021586 L49.663,0.6001 L52.689,8.3821 C52.689,8.3821 50.8759453,8.78150828 50.3444321,7.7872192 L50.287,7.6611 L49.962,6.7381 L47.036,6.7381 L46.42,8.3821 C46.42,8.3821 44.3409986,8.71129067 44.5370362,7.78735875 L44.57,7.6751 L47.601,0.1371 C47.601,0.1371 49.1347326,-0.339551042 49.607557,0.485021586 Z M41.5310727,0.72928206 L41.5412,0.8583 L41.5412,6.7013 L44.3992,6.7103 C44.4992,7.3583 44.6112,8.1513 42.1982,8.4083 C40.2760846,8.61310769 39.5937991,8.16702781 39.544159,7.44610581 L39.5412,7.3583 L39.5412,0.1363 C39.5412,0.1363 41.3780056,-0.203509028 41.5310727,0.72928206 Z M22.4388828,0.730476997 L22.449,0.8595 L22.449,8.3825 L22.4381975,8.38462352 C22.3813086,8.39548824 22.1055556,8.44428304 21.75,8.44254737 C21.553,8.4435 21.339,8.4285 21.142,8.3825 C20.7571111,8.30427778 20.3674815,8.13519136 20.0981262,7.7951749 L20.003,7.6595 L17.337,3.3595 L17.337,8.3825 L17.3268828,8.3842895 C17.1806172,8.40956467 15.4953828,8.68083116 15.3491172,7.788523 L15.339,7.6595 L15.339,0.1365 C15.339,0.1365 15.639,0.0745 16.038,0.0764526329 C16.235,0.0755 16.449,0.0905 16.646,0.1365 C17.0308889,0.214722222 17.4205185,0.383808642 17.6905761,0.723825103 L17.786,0.8595 L20.451,5.1585 L20.451,0.1365 C20.451,0.1365 22.2859688,-0.202390625 22.4388828,0.730476997 Z M60.0603828,0.730476997 L60.0705,0.8595 L60.0705,8.3825 L60.0596975,8.38462352 C60.0028086,8.39548824 59.7270556,8.44428304 59.3715,8.44254737 C59.1745,8.4435 58.9605,8.4285 58.7635,8.3825 C58.3786111,8.30427778 57.9897716,8.13519136 57.7198896,7.7951749 L57.6245,7.6595 L54.9585,3.3595 L54.9585,8.3825 L54.9483828,8.3842895 C54.8021172,8.40956467 53.1168828,8.68083116 52.9706172,7.788523 L52.9605,7.6595 L52.9605,0.1365 C52.9605,0.1365 53.2605,0.0745 53.6595,0.0764526329 C53.8565,0.0755 54.0705,0.0905 54.2675,0.1365 C54.6523889,0.214722222 55.0420185,0.383808642 55.3120761,0.723825103 L55.4075,0.8595 L58.0725,5.1585 L58.0725,0.1365 C58.0725,0.1365 59.9074687,-0.202390625 60.0603828,0.730476997 Z M29.4563,0.1104 C29.4563,0.1104 29.82494,1.7674368 28.6839255,1.89999974 L28.5333,1.9084 L27.3113,1.9084 L27.3113,8.3824 L27.3011474,8.3841895 C27.1543693,8.40946467 25.4632307,8.68073116 25.3164526,7.788423 L25.3063,7.6594 L25.3063,1.9084 L23.1583,1.9084 C23.1349623,1.76780119 22.9056312,0.245395238 23.9392035,0.118772171 L24.0813,0.1104 L29.4563,0.1104 Z M32.2790828,0.730476997 L32.2892,0.8595 L32.2892,8.3825 L32.2790828,8.3842895 C32.1328172,8.40956467 30.4475828,8.68083116 30.3013172,7.788523 L30.2912,7.6595 L30.2912,0.1365 C30.2912,0.1365 32.1261688,-0.202390625 32.2790828,0.730476997 Z M10.8212,2.7141 L9.9852,4.9471 L11.6092,4.9471 L10.8212,2.7141 Z M64.5211,2.7141 L63.6851,4.9471 L65.3091,4.9471 L64.5211,2.7141 Z M48.542,2.7141 L47.706,4.9471 L49.33,4.9471 L48.542,2.7141 Z" id="l-/-santillana" fill="#29495e"></path>
    </g>
</svg>