<?xml version="1.0" encoding="UTF-8"?>
<svg width="125px" height="10px" viewBox="0 0 125 10" version="1.1" xmlns="http://www.w3.org/2000/svg" xmlns:xlink="http://www.w3.org/1999/xlink">
    <!-- Generator: Sketch 58 (84663) - https://sketch.com -->
    <title>l / santillana canarias</title>
    <desc>Created with Sketch.</desc>
    <g id="Page-1" stroke="none" stroke-width="1" fill="none" fill-rule="evenodd">
        <path d="M87.7394,1.227 C88.1014,1.227 88.2434,1.36 88.3604,1.569 L92.7004,9.012 C92.7264,9.056 92.7524,9.089 92.8034,9.089 C92.8554,9.089 92.8684,9.033 92.8684,8.989 L92.8684,1.492 C92.8684,1.382 92.9464,1.282 93.0754,1.282 L93.2304,1.282 C93.3724,1.282 93.4504,1.382 93.4504,1.492 L93.4504,8.989 C93.4504,9.343 93.1914,9.552 92.8684,9.552 C92.6754,9.552 92.5454,9.552 92.4294,9.475 C92.3514,9.42 92.2614,9.332 92.1964,9.221 L87.8424,1.768 C87.8174,1.724 87.7914,1.691 87.7394,1.691 C87.7144,1.691 87.6754,1.713 87.6754,1.768 L87.6754,9.277 C87.6754,9.387 87.5854,9.486 87.4554,9.486 L87.3264,9.486 C87.1974,9.486 87.1064,9.387 87.1064,9.277 L87.1064,1.768 C87.1064,1.437 87.3654,1.227 87.7394,1.227 Z M122.0435,1.227 C122.5865,1.227 123.4645,1.282 123.8395,1.327 C124.0985,1.349 124.1885,1.404 124.1885,1.547 L124.1885,1.602 C124.1885,1.768 124.0465,1.801 123.7875,1.779 C123.6715,1.768 122.5865,1.691 122.0315,1.691 C120.3255,1.691 119.6015,2.122 119.6015,2.938 C119.6015,3.722 120.1965,4.12 121.3465,4.716 L122.1725,5.147 C123.6975,5.931 124.4465,6.428 124.4465,7.444 C124.4465,8.448 123.9435,9.552 121.4495,9.552 C120.6095,9.552 119.9645,9.497 119.5635,9.442 C119.3305,9.409 119.2145,9.365 119.2145,9.21 L119.2145,9.166 C119.2145,8.989 119.3695,8.967 119.5115,8.978 C119.9255,9.023 120.7395,9.089 121.4495,9.089 C123.3995,9.089 123.8525,8.349 123.8525,7.444 C123.8525,6.626 123.2965,6.34 121.8635,5.577 L121.0485,5.147 C119.8735,4.528 119.0205,4.009 119.0205,2.938 C119.0205,1.58 120.5325,1.227 122.0435,1.227 Z M76.113,1.227 C77.301,1.227 78.012,1.304 78.348,1.338 C78.464,1.349 78.593,1.415 78.593,1.525 L78.593,1.657 C78.593,1.79 78.49,1.802 78.348,1.79 C77.883,1.746 76.914,1.69 76.113,1.69 C74.666,1.69 73.516,2.486 73.516,4.661 L73.516,6.118 C73.516,8.294 74.666,9.089 76.113,9.089 C76.914,9.089 77.883,9.033 78.348,8.989 C78.49,8.978 78.593,8.989 78.593,9.122 L78.593,9.254 C78.593,9.365 78.464,9.432 78.348,9.442 C78.012,9.475 77.301,9.552 76.113,9.552 C74.498,9.552 72.948,8.758 72.948,6.118 L72.948,4.661 C72.948,2.022 74.498,1.227 76.113,1.227 Z M115.0366,1.2269 C115.4506,1.2269 115.7476,1.4259 115.8636,1.7569 L118.5116,9.2429 C118.5636,9.3979 118.5116,9.5189 118.3316,9.5189 L118.1756,9.5189 C118.0726,9.5189 117.9956,9.4529 117.9696,9.3759 L116.8846,6.3829 L113.1636,6.3829 L112.1046,9.3759 C112.0786,9.4419 111.9876,9.5189 111.8976,9.5189 L111.7296,9.5189 C111.5616,9.5189 111.4976,9.3979 111.5486,9.2429 L114.1976,1.7679 C114.3136,1.4369 114.6106,1.2269 115.0366,1.2269 Z M97.9717,1.2269 C98.3847,1.2269 98.6817,1.4259 98.7977,1.7569 L101.4467,9.2429 C101.4987,9.3979 101.4467,9.5189 101.2657,9.5189 L101.1107,9.5189 C101.0077,9.5189 100.9297,9.4529 100.9037,9.3759 L99.8187,6.3829 L96.0977,6.3829 L95.0387,9.3759 C95.0127,9.4419 94.9227,9.5189 94.8317,9.5189 L94.6637,9.5189 C94.4957,9.5189 94.4317,9.3979 94.4837,9.2429 L97.1317,1.7679 C97.2477,1.4369 97.5457,1.2269 97.9717,1.2269 Z M82.5976,1.2269 C83.0116,1.2269 83.3086,1.4259 83.4246,1.7569 L86.0736,9.2429 C86.1246,9.3979 86.0736,9.5189 85.8926,9.5189 L85.7376,9.5189 C85.6336,9.5189 85.5566,9.4529 85.5306,9.3759 L84.4456,6.3829 L80.7246,6.3829 L79.6656,9.3759 C79.6396,9.4419 79.5486,9.5189 79.4586,9.5189 L79.2906,9.5189 C79.1226,9.5189 79.0576,9.3979 79.1096,9.2429 L81.7586,1.7679 C81.8746,1.4369 82.1716,1.2269 82.5976,1.2269 Z M104.7161,1.2288 C107.0401,1.2288 108.2291,1.7918 108.2291,3.4818 L108.2291,3.4818 L108.2291,3.5358 C108.2291,4.8838 107.4411,5.5128 105.9171,5.7338 L105.9171,5.7338 L108.5261,9.1668 C108.5651,9.2218 108.5911,9.2778 108.5911,9.3218 C108.5911,9.4098 108.5261,9.4858 108.3841,9.4858 L108.3841,9.4858 L108.2161,9.4858 C108.1521,9.4858 108.0611,9.4328 108.0221,9.3868 L108.0221,9.3868 L105.2601,5.7558 C105.2231,5.7148 105.1881,5.6338 105.1881,5.5748 C105.1881,5.3418 105.3591,5.3078 105.4491,5.3028 C106.9471,5.2078 107.6611,4.7628 107.6611,3.5358 L107.6611,3.5358 L107.6611,3.4818 C107.6611,2.1018 106.6411,1.6928 104.7161,1.6928 C104.1741,1.6928 103.4371,1.7048 103.0491,1.7378 L103.0491,1.7378 L103.0491,9.2778 C103.0491,9.3868 102.9591,9.4858 102.8301,9.4858 L102.8301,9.4858 L102.7011,9.4858 C102.5711,9.4858 102.4811,9.3868 102.4811,9.2778 L102.4811,9.2778 L102.4811,1.4838 C102.4811,1.3838 102.5851,1.2848 102.7011,1.2738 C103.1531,1.2518 104.1601,1.2288 104.7161,1.2288 Z M110.1663,1.2829 C110.2953,1.2829 110.3863,1.3819 110.3863,1.4919 L110.3863,9.2769 C110.3863,9.3869 110.2953,9.4859 110.1663,9.4859 L110.0373,9.4859 C109.9083,9.4859 109.8173,9.3869 109.8173,9.2769 L109.8173,1.4919 C109.8173,1.3819 109.9083,1.2829 110.0373,1.2829 L110.1663,1.2829 Z M6.66,1.3572 C6.66,1.3572 6.702,2.8952 5.359,2.8062 C4.334,2.7382 2.419,2.4212 2.371,3.1842 C2.308,4.1522 6.954,4.2882 6.831,6.9552 C6.638,11.1822 -4.79616347e-14,8.8242 -4.79616347e-14,8.8242 C-4.79616347e-14,8.8242 0.147,7.2912 1.527,7.5242 L1.8586035,7.57835926 C3.30745918,7.8072 4.86692857,7.93534286 4.814,7.0012 C4.754,5.9442 0.381,6.0262 0.353,3.2192 C0.318,-0.4458 6.66,1.3572 6.66,1.3572 Z M35.9893765,1.62737875 L35.9996,1.7577 L35.9996,7.6637 L39.4076,7.6637 C39.5086,8.3187 39.6206,9.1217 37.1846,9.3817 C35.0227481,9.61184815 34.0534011,9.29396337 33.9845631,8.42447387 L33.9806,8.3217 L33.9806,1.0277 C33.9806,1.0277 35.8348552,0.685135764 35.9893765,1.62737875 Z M50.1039817,1.37946306 L50.1601,1.4956 L53.2161,9.3556 C53.2161,9.3556 51.3854787,9.75963107 50.8481693,8.75502962 L50.7901,8.6276 L50.4621,7.6956 L47.5071,7.6956 L46.8851,9.3556 C46.8851,9.3556 44.7856981,9.68849986 44.9829034,8.75502021 L45.0161,8.6416 L48.0781,1.0276 C48.0781,1.0276 49.6256087,0.547275347 50.1039817,1.37946306 Z M66.2435767,1.37946306 L66.2997,1.4956 L69.3557,9.3556 L69.3193522,9.36296832 C69.0594358,9.41315634 67.4794465,9.67591428 66.9876626,8.75502962 L66.9297,8.6276 L66.6007,7.6956 L63.6457,7.6956 L63.0247,9.3556 C63.0247,9.3556 60.9243708,9.68849986 61.1215074,8.75502021 L61.1547,8.6416 L64.2167,1.0276 C64.2167,1.0276 65.7651271,0.547275347 66.2435767,1.37946306 Z M12.0054965,1.37946306 L12.0615,1.4956 L15.1175,9.3556 L15.0811704,9.36296832 C14.821384,9.41315634 13.242177,9.67591428 12.7504583,8.75502962 L12.6925,8.6276 L12.3635,7.6956 L9.4085,7.6956 L8.7875,9.3556 C8.7875,9.3556 6.68624348,9.68849986 6.88420436,8.75502021 L6.9175,8.6416 L9.9795,1.0276 C9.9795,1.0276 11.5279271,0.547275347 12.0054965,1.37946306 Z M41.9466765,1.62599861 L41.9569,1.7562 L41.9569,7.6582 L44.8439,7.6672 C44.9449,8.3222 45.0569,9.1222 42.6209,9.3822 C40.6805154,9.58989231 39.9910553,9.13837604 39.9408903,8.41080861 L39.9379,8.3222 L39.9379,1.0272 C39.9379,1.0272 41.7921552,0.684635764 41.9466765,1.62599861 Z M22.6634815,1.62757875 L22.6737,1.7579 L22.6737,9.3559 L22.6627905,9.35805781 C22.605342,9.36909811 22.3269222,9.41868296 21.9687,9.41694663 C21.7687,9.4179 21.5527,9.4019 21.3537,9.3559 C20.9652556,9.27678889 20.5720704,9.10602346 20.2998619,8.76283553 L20.2037,8.6259 L17.5107,4.2829 L17.5107,9.3559 L17.5004866,9.35771395 C17.3528301,9.38333605 15.6515699,9.65838061 15.5039134,8.75633605 L15.4937,8.6259 L15.4937,1.0279 C15.4937,1.0279 15.7957,0.9649 16.1987,0.966853369 C16.3977,0.9659 16.6137,0.9809 16.8127,1.0279 C17.2011444,1.10701111 17.5951198,1.27777654 17.8682062,1.62096447 L17.9647,1.7579 L20.6557,6.1009 L20.6557,1.0279 C20.6557,1.0279 22.5090368,0.685335764 22.6634815,1.62757875 Z M60.6619815,1.62757875 L60.6722,1.7579 L60.6722,9.3559 L60.6612892,9.35805781 C60.6038296,9.36909811 60.3253111,9.41868296 59.9662,9.41694663 C59.7662,9.4179 59.5502,9.4019 59.3522,9.3559 C58.9637556,9.27678889 58.5705704,9.10602346 58.2976595,8.76283553 L58.2012,8.6259 L55.5092,4.2829 L55.5092,9.3559 L55.4989815,9.35771395 C55.3512518,9.38333605 53.6491482,9.65838061 53.5014185,8.75633605 L53.4912,8.6259 L53.4912,1.0279 C53.4912,1.0279 53.7942,0.9649 54.1972,0.966853369 C54.3962,0.9659 54.6122,0.9809 54.8112,1.0279 C55.1996444,1.10701111 55.5928296,1.27777654 55.8657405,1.62096447 L55.9622,1.7579 L58.6542,6.1009 L58.6542,1.0279 C58.6542,1.0279 60.5075368,0.685335764 60.6619815,1.62757875 Z M32.6026815,1.62757875 L32.6129,1.7579 L32.6129,9.3559 L32.6026815,9.35771395 C32.4549518,9.38333605 30.7528482,9.65838061 30.6051185,8.75633605 L30.5949,8.6259 L30.5949,1.0279 C30.5949,1.0279 32.4482368,0.685335764 32.6026815,1.62757875 Z M29.7512,1.0006 C29.7512,1.0006 30.1235264,2.6751472 28.9713052,2.80911098 L28.8192,2.8176 L27.5852,2.8176 L27.5852,9.3556 L27.5749461,9.35741395 C27.4267039,9.38303605 25.7186961,9.65808061 25.5704539,8.75603605 L25.5602,8.6256 L25.5602,2.8176 L23.3902,2.8176 C23.3902,2.8176 23.0889639,1.14886215 24.1728322,1.00980067 L24.3222,1.0006 L29.7512,1.0006 Z M82.5976,1.6689 C82.4046,1.6689 82.3396,1.7569 82.3006,1.8789 L80.8796,5.8979 L84.3036,5.8979 L82.8946,1.8889 C82.8566,1.7789 82.7786,1.6689 82.5976,1.6689 Z M97.9717,1.6689 C97.7777,1.6689 97.7127,1.7569 97.6737,1.8789 L96.2537,5.8979 L99.6767,5.8979 L98.2687,1.8889 C98.2297,1.7789 98.1527,1.6689 97.9717,1.6689 Z M115.0366,1.6689 C114.8436,1.6689 114.7786,1.7569 114.7396,1.8789 L113.3186,5.8979 L116.7426,5.8979 L115.3336,1.8889 C115.2956,1.7789 115.2176,1.6689 115.0366,1.6689 Z M10.9295,3.6306 L10.0855,5.8876 L11.7255,5.8876 L10.9295,3.6306 Z M65.1667,3.6306 L64.3237,5.8876 L65.9627,5.8876 L65.1667,3.6306 Z M49.0281,3.6306 L48.1831,5.8876 L49.8241,5.8876 L49.0281,3.6306 Z" id="l-/-santillana-canarias" fill="#29495e"></path>
    </g>
</svg>