<?xml version="1.0" encoding="UTF-8"?>
<svg width="126px" height="10px" viewBox="0 0 126 10" version="1.1" xmlns="http://www.w3.org/2000/svg" xmlns:xlink="http://www.w3.org/1999/xlink">
    <!-- Generator: Sketch 58 (84663) - https://sketch.com -->
    <title>l / voramar</title>
    <desc>Created with Sketch.</desc>
    <g id="Page-1" stroke="none" stroke-width="1" fill="none" fill-rule="evenodd">
        <path d="M73.103,1.2276 C73.193,1.2276 73.284,1.2936 73.31,1.3816 L75.945,8.8126 C76.009,8.9896 76.1,9.0346 76.242,9.0346 C76.384,9.0346 76.475,8.9896 76.539,8.8126 L79.175,1.3816 C79.201,1.2936 79.291,1.2276 79.382,1.2276 L79.524,1.2276 C79.691,1.2276 79.782,1.3596 79.73,1.5036 L77.082,8.9566 C76.953,9.3316 76.656,9.4976 76.242,9.4976 C75.829,9.4976 75.532,9.3316 75.403,8.9566 L72.754,1.5036 C72.703,1.3596 72.793,1.2276 72.961,1.2276 L73.103,1.2276 Z M83.7763,1.1713 C85.7013,1.1713 87.0833,2.1883 87.0833,4.6503 L87.0833,6.0193 C87.0833,8.4813 85.7013,9.4973 83.7763,9.4973 C81.8513,9.4973 80.4693,8.4813 80.4693,6.0193 L80.4693,4.6503 C80.4693,2.1883 81.8513,1.1713 83.7763,1.1713 Z M98.6557,1.1723 C99.0697,1.1723 99.3657,1.3703 99.4827,1.7023 L102.1317,9.1883 C102.1827,9.3423 102.1317,9.4643 101.9507,9.4643 L101.7957,9.4643 C101.6917,9.4643 101.6147,9.3983 101.5887,9.3203 L100.5037,6.3283 L96.7827,6.3283 L95.7237,9.3203 C95.6977,9.3873 95.6067,9.4643 95.5167,9.4643 L95.3487,9.4643 C95.1807,9.4643 95.1157,9.3423 95.1677,9.1883 L97.8167,1.7133 C97.9327,1.3813 98.2297,1.1723 98.6557,1.1723 Z M115.0496,1.1723 C115.4636,1.1723 115.7606,1.3703 115.8766,1.7023 L118.5256,9.1883 C118.5766,9.3423 118.5256,9.4643 118.3446,9.4643 L118.1886,9.4643 C118.0856,9.4643 118.0086,9.3983 117.9826,9.3203 L116.8976,6.3283 L113.1766,6.3283 L112.1176,9.3203 C112.0916,9.3873 112.0006,9.4643 111.9106,9.4643 L111.7426,9.4643 C111.5746,9.4643 111.5106,9.3423 111.5626,9.1883 L114.2106,1.7133 C114.3266,1.3813 114.6236,1.1723 115.0496,1.1723 Z M109.87,1.1722 C110.27,1.1722 110.529,1.3482 110.529,1.7132 L110.529,9.2212 C110.529,9.3312 110.438,9.4312 110.309,9.4312 L110.18,9.4312 C110.051,9.4312 109.96,9.3312 109.96,9.2212 L109.96,1.7132 C109.96,1.6572 109.921,1.6352 109.87,1.6352 C109.805,1.6352 109.792,1.6572 109.741,1.7352 L107.506,5.7652 C107.325,6.0852 107.131,6.1632 106.847,6.1632 C106.562,6.1632 106.369,6.0852 106.188,5.7652 L103.952,1.7352 C103.901,1.6572 103.888,1.6352 103.824,1.6352 C103.772,1.6352 103.733,1.6572 103.733,1.7132 L103.733,9.2212 C103.733,9.3312 103.643,9.4312 103.513,9.4312 L103.385,9.4312 C103.255,9.4312 103.165,9.3312 103.165,9.2212 L103.165,1.7132 C103.165,1.3482 103.423,1.1722 103.824,1.1722 C104.134,1.1722 104.315,1.3272 104.418,1.5142 L106.679,5.5662 C106.73,5.6662 106.769,5.7102 106.847,5.7102 C106.924,5.7102 106.963,5.6662 107.014,5.5662 L109.276,1.5142 C109.379,1.3272 109.56,1.1722 109.87,1.1722 Z M90.7286,1.1735 C93.0526,1.1735 94.2416,1.7365 94.2416,3.4255 L94.2416,3.4255 L94.2416,3.4815 C94.2416,4.8285 93.4536,5.4575 91.9296,5.6775 L91.9296,5.6775 L94.5386,9.1115 C94.5776,9.1665 94.6026,9.2225 94.6026,9.2665 C94.6026,9.3545 94.5386,9.4305 94.3966,9.4305 L94.3966,9.4305 L94.2286,9.4305 C94.1636,9.4305 94.0736,9.3765 94.0346,9.3315 L94.0346,9.3315 L91.2716,5.7005 C91.2356,5.6595 91.2006,5.5775 91.2006,5.5195 C91.2006,5.2865 91.3716,5.2525 91.4606,5.2475 C92.9596,5.1525 93.6736,4.7075 93.6736,3.4815 L93.6736,3.4815 L93.6736,3.4255 C93.6736,2.0465 92.6526,1.6375 90.7286,1.6375 C90.1866,1.6375 89.4496,1.6485 89.0616,1.6825 L89.0616,1.6825 L89.0616,9.2225 C89.0616,9.3315 88.9716,9.4305 88.8426,9.4305 L88.8426,9.4305 L88.7136,9.4305 C88.5836,9.4305 88.4936,9.3315 88.4936,9.2225 L88.4936,9.2225 L88.4936,1.4275 C88.4936,1.3285 88.5976,1.2295 88.7136,1.2185 C89.1656,1.1965 90.1726,1.1735 90.7286,1.1735 Z M121.782,1.1735 C124.025862,1.1735 125.21165,1.69834185 125.290761,3.25476942 L125.295,3.4255 L125.295,3.4815 C125.295,4.76993478 124.574032,5.40144707 123.177604,5.64645948 L122.983,5.6775 L125.592,9.1115 C125.631,9.1665 125.656,9.2225 125.656,9.2665 C125.656,9.33983333 125.611556,9.40483333 125.514565,9.42446296 L125.45,9.4305 L125.282,9.4305 C125.234,9.4305 125.170812,9.400125 125.125766,9.36595313 L125.088,9.3315 L122.325,5.7005 C122.289,5.6595 122.254,5.5775 122.254,5.5195 C122.254,5.2865 122.425,5.2525 122.515,5.2475 C123.94787,5.15663043 124.663431,4.74553403 124.722945,3.63701936 L124.727,3.4815 L124.727,3.4255 C124.727,2.0465 123.706,1.6375 121.782,1.6375 C121.30775,1.6375 120.684203,1.64592188 120.275797,1.67080469 L120.115,1.6825 L120.115,9.2225 C120.115,9.31333333 120.0525,9.39722222 119.957014,9.42266204 L119.896,9.4305 L119.767,9.4305 C119.658667,9.4305 119.578111,9.36175 119.554269,9.27575463 L119.547,9.2225 L119.547,1.4275 C119.547,1.3285 119.651,1.2295 119.767,1.2185 C120.219,1.1965 121.226,1.1735 121.782,1.1735 Z M6.66,1.3015 C6.66,1.3015 6.702,2.8405 5.36,2.7515 C4.334,2.6835 2.42,2.3665 2.371,3.1295 C2.308,4.0965 6.954,4.2325 6.832,6.8995 C6.638,11.1275 -7.99360578e-15,8.7695 -7.99360578e-15,8.7695 C-7.99360578e-15,8.7695 0.147,7.2365 1.527,7.4685 L1.85878827,7.5228586 C3.30832143,7.7525 4.86692857,7.88064286 4.814,6.9465 C4.754,5.8895 0.381,5.9705 0.353,3.1645 C0.318,-0.5005 6.66,1.3015 6.66,1.3015 Z M35.9891765,1.57257368 L35.9994,1.7029 L35.9994,7.6089 L39.4074,7.6089 C39.5084,8.2649 39.6214,9.0669 37.1854,9.3269 C35.0225852,9.55704815 34.0532025,9.23916337 33.9843632,8.36967387 L33.9804,8.2669 L33.9804,0.9719 C33.9804,0.9719 35.8346552,0.630254167 35.9891765,1.57257368 Z M12.0055965,1.32476306 L12.0616,1.4409 L15.1176,9.3009 L15.0812704,9.3082506 C14.821484,9.35831435 13.242277,9.62035788 12.7505583,8.70022294 L12.6926,8.5729 L12.3636,7.6399 L9.4086,7.6399 L8.7876,9.3009 C8.7876,9.3009 6.68634348,9.63379986 6.88430436,8.69942726 L6.9176,8.5859 L9.9796,0.9729 C9.9796,0.9729 11.5280271,0.492575347 12.0055965,1.32476306 Z M50.1041817,1.32476306 L50.1603,1.4409 L53.2163,9.3009 C53.2163,9.3009 51.3856787,9.70400651 50.8483693,8.70022294 L50.7903,8.5729 L50.4623,7.6399 L47.5073,7.6399 L46.8853,9.3009 C46.8853,9.3009 44.7849708,9.63379986 44.9830004,8.69942726 L45.0163,8.5859 L48.0783,0.9729 C48.0783,0.9729 49.6258087,0.492575347 50.1041817,1.32476306 Z M66.2437767,1.32476306 L66.2999,1.4409 L69.3559,9.3009 L69.3195522,9.3082506 C69.0596358,9.35831435 67.4796465,9.62035788 66.9878626,8.70022294 L66.9299,8.5729 L66.6009,7.6399 L63.6459,7.6399 L63.0249,9.3009 C63.0249,9.3009 60.9245708,9.63379986 61.1217074,8.69942726 L61.1549,8.5859 L64.2169,0.9729 C64.2169,0.9729 65.7653271,0.492575347 66.2437767,1.32476306 Z M41.9468765,1.57167875 L41.9571,1.702 L41.9571,7.603 L44.8441,7.612 C44.9451,8.267 45.0571,9.068 42.6201,9.327 C40.6797154,9.53373077 39.9911799,9.08310207 39.941086,8.35560435 L39.9381,8.267 L39.9381,0.972 C39.9381,0.972 41.7923552,0.629435764 41.9468765,1.57167875 Z M32.6028815,1.57227875 L32.6131,1.7026 L32.6131,9.3016 L32.6028815,9.30340888 C32.4551518,9.32895778 30.7530482,9.60315888 30.6053185,8.70104112 L30.5951,8.5706 L30.5951,0.9726 C30.5951,0.9726 32.4484368,0.630035764 32.6028815,1.57227875 Z M60.6621815,1.57227875 L60.6724,1.7026 L60.6724,9.3016 L60.6614892,9.30372346 C60.6040296,9.31458765 60.3255111,9.36337778 59.9664,9.3616 C59.7664,9.3626 59.5504,9.3476 59.3524,9.3016 C58.9639556,9.22248889 58.5707704,9.05093333 58.2978595,8.70756982 L58.2014,8.5706 L55.5094,4.2286 L55.5094,9.3016 L55.4991815,9.30340888 C55.3514518,9.32895778 53.6493482,9.60315888 53.5016185,8.70104112 L53.4914,8.5706 L53.4914,0.9726 C53.4914,0.9726 53.7934,0.9096 54.1964,0.9126 C54.3954,0.9116 54.6124,0.9256 54.8114,0.9726 C55.1998444,1.05171111 55.5930296,1.22247654 55.8659405,1.56566447 L55.9624,1.7026 L58.6544,6.0456 L58.6544,0.9726 C58.6544,0.9726 60.5077368,0.630035764 60.6621815,1.57227875 Z M22.6632815,1.57227875 L22.6735,1.7026 L22.6735,9.3016 L22.6625905,9.30372346 C22.605142,9.31458765 22.3267222,9.36337778 21.9685,9.3616 C21.7695,9.3626 21.5525,9.3476 21.3545,9.3016 C20.9651667,9.22248889 20.5718827,9.05093333 20.2996632,8.70756982 L20.2035,8.5706 L17.5115,4.2286 L17.5115,9.3016 L17.5012815,9.30340888 C17.3535518,9.32895778 15.6514482,9.60315888 15.5037185,8.70104112 L15.4935,8.5706 L15.4935,0.9726 C15.4935,0.9726 15.7955,0.9096 16.1995,0.9126 C16.3975,0.9116 16.6145,0.9256 16.8135,0.9726 C17.2019444,1.05171111 17.5951296,1.22247654 17.8680405,1.56566447 L17.9645,1.7026 L20.6555,6.0456 L20.6555,0.9726 C20.6555,0.9726 22.5088368,0.630035764 22.6632815,1.57227875 Z M29.7514,0.946 C29.7514,0.946 30.1237264,2.6205472 28.9715052,2.75451098 L28.8194,2.763 L27.5854,2.763 L27.5854,9.301 L27.5751461,9.30280896 C27.4269039,9.32835945 25.7188961,9.60259715 25.5706539,8.70132125 L25.5604,8.571 L25.5604,2.763 L23.3904,2.763 C23.3904,2.763 23.0891639,1.09426215 24.1730322,0.955200666 L24.3224,0.946 L29.7514,0.946 Z M83.7763,1.6353 C82.2133,1.6353 81.0373,2.3973 81.0373,4.6503 L81.0373,6.0193 C81.0373,8.2713 82.2133,9.0343 83.7763,9.0343 C85.3393,9.0343 86.5153,8.2713 86.5153,6.0193 L86.5153,4.6503 C86.5153,2.3973 85.3393,1.6353 83.7763,1.6353 Z M98.6557,1.6133 C98.4617,1.6133 98.3977,1.7023 98.3587,1.8233 L96.9377,5.8423 L100.3617,5.8423 L98.9527,1.8343 C98.9147,1.7243 98.8367,1.6133 98.6557,1.6133 Z M115.0496,1.6133 C114.8556,1.6133 114.7916,1.7023 114.7526,1.8233 L113.3316,5.8423 L116.7556,5.8423 L115.3466,1.8343 C115.3086,1.7243 115.2306,1.6133 115.0496,1.6133 Z M10.9296,3.5759 L10.0856,5.8319 L11.7256,5.8319 L10.9296,3.5759 Z M65.1669,3.5759 L64.3239,5.8319 L65.9629,5.8319 L65.1669,3.5759 Z M49.0283,3.5759 L48.1833,5.8319 L49.8243,5.8319 L49.0283,3.5759 Z" id="l-/-voramar" fill="#29495e"></path>
    </g>
</svg>