<?xml version="1.0" encoding="UTF-8"?>
<svg width="104px" height="10px" viewBox="0 0 104 10" version="1.1" xmlns="http://www.w3.org/2000/svg" xmlns:xlink="http://www.w3.org/1999/xlink">
    <!-- Generator: Sketch 58 (84663) - https://sketch.com -->
    <title>l / zubia</title>
    <desc>Created with Sketch.</desc>
    <g id="Page-1" stroke="none" stroke-width="1" fill="none" fill-rule="evenodd">
        <path d="M89.7037,0.881 C91.4737,0.881 93.2567,1.223 93.2567,2.879 L93.2567,3.001 C93.2567,3.917 92.6747,4.547 91.7187,4.834 C92.7137,5.087 93.3077,5.728 93.3077,6.711 L93.3077,6.898 C93.3077,8.853 91.3307,9.217 89.7037,9.217 C89.0317,9.217 88.3477,9.184 87.7657,9.129 C87.5977,9.118 87.5207,9.051 87.5207,8.919 L87.5207,1.157 C87.5207,1.046 87.6367,0.958 87.7657,0.947 C88.2947,0.914 89.0447,0.881 89.7037,0.881 Z M80.3373,0.9351 C80.4663,0.9351 80.5563,1.0351 80.5563,1.1461 L80.5563,6.2251 C80.5563,7.8261 81.2413,8.7531 83.0503,8.7531 C84.8593,8.7531 85.5303,7.8261 85.5303,6.2251 L85.5303,1.1461 C85.5303,1.0351 85.6213,0.9351 85.7503,0.9351 L85.8793,0.9351 C86.0093,0.9351 86.0993,1.0351 86.0993,1.1461 L86.0993,6.2251 C86.0993,8.0911 85.1563,9.2061 83.0503,9.2061 C80.9443,9.2061 79.9883,8.0911 79.9883,6.2251 L79.9883,1.1461 C79.9883,1.0351 80.0793,0.9351 80.2083,0.9351 L80.3373,0.9351 Z M99.844,0.8811 C100.258,0.8811 100.555,1.0791 100.671,1.4111 L103.32,8.8971 C103.371,9.0521 103.32,9.1731 103.139,9.1731 L102.984,9.1731 C102.88,9.1731 102.803,9.1071 102.777,9.0291 L101.692,6.0371 L97.971,6.0371 L96.912,9.0291 C96.886,9.0961 96.796,9.1731 96.705,9.1731 L96.537,9.1731 C96.369,9.1731 96.305,9.0521 96.357,8.8971 L99.005,1.4221 C99.121,1.0901 99.419,0.8811 99.844,0.8811 Z M78.0122,0.9358 C78.2452,0.9358 78.4252,0.9578 78.5422,1.0248 C78.6962,1.1018 78.7612,1.2228 78.7612,1.3778 C78.7612,1.5658 78.6702,1.6758 78.6192,1.7528 L73.6842,8.5658 L73.6582,8.6428 C73.6582,8.6758 73.6842,8.6868 73.7492,8.6868 L78.8132,8.6868 C78.9552,8.6868 79.0842,8.7418 79.0842,8.8528 L79.0842,8.9628 C79.0842,9.0738 78.9552,9.1398 78.8132,9.1398 L73.7492,9.1398 C73.2712,9.1398 73.0512,8.9738 73.0512,8.6648 C73.0512,8.5548 73.0902,8.3998 73.1932,8.2678 L78.0892,1.5318 L78.1152,1.4548 C78.1152,1.4108 78.0772,1.3888 78.0122,1.3888 L73.3352,1.3888 C73.2062,1.3888 73.0642,1.3328 73.0642,1.2228 L73.0642,1.1118 C73.0642,1.0018 73.2062,0.9358 73.3352,0.9358 L78.0122,0.9358 Z M95.1036,0.9358 C95.2326,0.9358 95.3236,1.0358 95.3236,1.1458 L95.3236,8.9298 C95.3236,9.0398 95.2326,9.1398 95.1036,9.1398 L94.9746,9.1398 C94.8456,9.1398 94.7546,9.0398 94.7546,8.9298 L94.7546,1.1458 C94.7546,1.0358 94.8456,0.9358 94.9746,0.9358 L95.1036,0.9358 Z M6.66,1.0109 C6.66,1.0109 6.702,2.5489 5.359,2.4599 C4.334,2.3919 2.42,2.0749 2.371,2.8379 C2.309,3.8059 6.954,3.9409 6.831,6.6089 C6.638,10.8359 -3.10862447e-14,8.4779 -3.10862447e-14,8.4779 C-3.10862447e-14,8.4779 0.147,6.9449 1.527,7.1769 L1.8586035,7.2312586 C3.30745918,7.4609 4.86692857,7.58904286 4.814,6.6549 C4.753,5.5979 0.381,5.6799 0.353,2.8729 C0.318,-0.7921 6.66,1.0109 6.66,1.0109 Z M35.9893765,1.28097875 L35.9996,1.4113 L35.9996,7.3173 L39.4076,7.3173 C39.5086,7.9733 39.6206,8.7753 37.1846,9.0353 C35.0227481,9.26641111 34.0534011,8.94763471 33.9845631,8.07897078 L33.9806,7.9763 L33.9806,0.6813 C33.9806,0.6813 35.8348552,0.338735764 35.9893765,1.28097875 Z M12.0053965,1.03316306 L12.0614,1.1493 L15.1174,9.0103 L15.0810704,9.0176506 C14.821284,9.06771435 13.242077,9.32975788 12.7503583,8.40962294 L12.6924,8.2823 L12.3634,7.3483 L9.4084,7.3483 L8.7874,9.0103 C8.7874,9.0103 6.68707078,9.34227257 6.8842074,8.40872422 L6.9174,8.2953 L9.9794,0.6813 C9.9794,0.6813 11.5278271,0.200975347 12.0053965,1.03316306 Z M50.1040965,1.03316306 L50.1601,1.1493 L53.2161,9.0103 C53.2161,9.0103 51.3854787,9.41340651 50.8490583,8.40962294 L50.7911,8.2823 L50.4621,7.3483 L47.5071,7.3483 L46.8851,9.0103 C46.8851,9.0103 44.7847708,9.34227257 44.9828004,8.40872422 L45.0161,8.2953 L48.0781,0.6813 C48.0781,0.6813 49.6265271,0.200975347 50.1040965,1.03316306 Z M66.2435767,1.03316306 L66.2997,1.1493 L69.3557,9.0103 L69.3193522,9.0176506 C69.0594358,9.06771435 67.4794465,9.32975788 66.9876626,8.40962294 L66.9297,8.2823 L66.6017,7.3483 L63.6457,7.3483 L63.0247,9.0103 C63.0247,9.0103 60.9234435,9.34227257 61.1214044,8.40872422 L61.1547,8.2953 L64.2167,0.6813 C64.2167,0.6813 65.7651271,0.200975347 66.2435767,1.03316306 Z M41.9468714,1.27949861 L41.9571,1.4097 L41.9571,7.3107 L44.8441,7.3207 C44.9451,7.9757 45.0571,8.7767 42.6201,9.0357 C40.6806769,9.24339231 39.9903293,8.79187604 39.9400946,8.06430861 L39.9371,7.9757 L39.9371,0.6807 C39.9371,0.6807 41.7922736,0.338135764 41.9468714,1.27949861 Z M22.6636815,1.28107875 L22.6739,1.4114 L22.6739,9.0104 C22.6739,9.0104 22.3719,9.0724 21.9679,9.0704 C21.7689,9.0714 21.5529,9.0564 21.3539,9.0104 C20.9645667,8.9304 20.5720728,8.7595358 20.2993266,8.4163369 L20.2029,8.2794 L17.5109,3.9374 L17.5109,9.0104 C17.5109,9.0104 15.6575632,9.35296424 15.5031185,8.40984112 L15.4929,8.2794 L15.4929,0.6814 C15.4929,0.6814 15.7949,0.6194 16.1989,0.6214 C16.3979,0.6204 16.6139,0.6354 16.8129,0.6814 C17.2013444,0.760511111 17.5953198,0.931276543 17.8677038,1.27446447 L17.9639,1.4114 L20.6559,5.7544 L20.6559,0.6814 C20.6559,0.6814 22.5092368,0.338835764 22.6636815,1.28107875 Z M60.6623815,1.28107875 L60.6726,1.4114 L60.6726,9.0104 C60.6726,9.0104 60.3696,9.0724 59.9666,9.0704 C59.7666,9.0714 59.5506,9.0564 59.3526,9.0104 C58.9632667,8.9304 58.5699827,8.7595358 58.2977632,8.4163369 L58.2016,8.2794 L55.5086,3.9374 L55.5086,9.0104 C55.5086,9.0104 53.6561816,9.35296424 53.5018134,8.40984112 L53.4916,8.2794 L53.4916,0.6814 C53.4916,0.6814 53.7936,0.6194 54.1966,0.6214 C54.3956,0.6204 54.6126,0.6354 54.8116,0.6814 C55.1991556,0.760511111 55.592242,0.931276543 55.8658442,1.27446447 L55.9626,1.4114 L58.6546,5.7544 L58.6546,0.6814 C58.6546,0.6814 60.5079368,0.338835764 60.6623815,1.28107875 Z M32.6024815,1.28107875 L32.6127,1.4114 L32.6127,9.0104 C32.6127,9.0104 30.7593632,9.35296424 30.6049185,8.40984112 L30.5947,8.2794 L30.5947,0.6814 C30.5947,0.6814 32.4480368,0.338835764 32.6024815,1.28107875 Z M29.7515,0.6548 C29.7515,0.6548 30.1238264,2.3284256 28.9716052,2.46231565 L28.8195,2.4708 L27.5865,2.4708 L27.5865,9.0098 L27.576236,9.01160896 C27.4278474,9.03715945 25.7181526,9.31139715 25.569764,8.41012125 L25.5595,8.2798 L25.5595,2.4708 L23.3905,2.4708 C23.3905,2.4708 23.0892639,0.802980556 24.1731322,0.663995602 L24.3225,0.6548 L29.7515,0.6548 Z M90.4277,5.065 L88.0887,5.065 L88.0887,8.709 C88.6437,8.742 89.0707,8.776 89.7037,8.776 C91.2537,8.776 92.7397,8.499 92.7397,6.898 L92.7397,6.711 C92.7397,5.861 92.2487,5.065 90.4277,5.065 Z M99.844,1.3221 C99.651,1.3221 99.586,1.4111 99.547,1.5321 L98.127,5.5511 L101.55,5.5511 L100.142,1.5431 C100.103,1.4331 100.025,1.3221 99.844,1.3221 Z M10.9294,3.2843 L10.0854,5.5403 L11.7254,5.5403 L10.9294,3.2843 Z M65.1667,3.2843 L64.3227,5.5403 L65.9637,5.5403 L65.1667,3.2843 Z M49.0281,3.2843 L48.1841,5.5403 L49.8241,5.5403 L49.0281,3.2843 Z M89.7037,1.311 C89.1357,1.311 88.5277,1.344 88.0887,1.355 L88.0887,4.59 L90.4277,4.59 C92.2357,4.59 92.6877,3.829 92.6877,3.001 L92.6877,2.879 C92.6877,1.532 91.2147,1.311 89.7037,1.311 Z" id="l-/-zubia" fill="#29495e"></path>
    </g>
</svg>