<svg xmlns="http://www.w3.org/2000/svg" xmlns:xlink="http://www.w3.org/1999/xlink" width="8" height="8" viewBox="0 0 8 8">
  <defs>
    <path id="checkbox-ok-a" d="M131.93864,522.576849 L127.328004,529.804322 C127.269615,529.892674 127.179996,529.951695 127.079514,529.962558 C127.065935,529.966179 127.056091,529.966179 127.042173,529.966179 C126.955948,529.966179 126.869045,529.929245 126.804206,529.862982 L124.107483,527.137471 C124.037892,527.071569 124.000211,526.975976 124.000211,526.876399 C123.996817,526.777184 124.034497,526.681228 124.100354,526.611705 L124.986702,525.666268 C125.055613,525.592762 125.148627,525.548948 125.245375,525.559449 C125.342123,525.563432 125.431742,525.607246 125.493186,525.684735 L126.772975,527.269999 L131.40432,522.113002 C131.528225,521.973232 131.731905,521.962731 131.873123,522.083672 C132.010947,522.201354 132.042178,522.418612 131.93864,522.576849"/>
  </defs>
  <use fill="#FFF" fill-rule="evenodd" transform="translate(-124 -522)" xlink:href="#checkbox-ok-a"/>
</svg>
