<svg xmlns="http://www.w3.org/2000/svg" xmlns:xlink="http://www.w3.org/1999/xlink" width="16" height="400" viewBox="0 0 16 400">
  <defs>
    <path id="ckeditor-a" d="M2,0 L7.47239264,0 C8.30675264,0 9.07975104,0.0613490798 9.79141104,0.18404908 C10.503071,0.30674908 11.1247417,0.523515828 11.6564417,0.834355828 C12.1881417,1.14519583 12.6053155,1.55418969 12.9079755,2.06134969 C13.2106355,2.56850969 13.3619632,3.20654012 13.3619632,3.97546012 C13.3619632,4.33538012 13.308794,4.69529472 13.202454,5.05521472 C13.096114,5.41513472 12.9366064,5.75050969 12.7239264,6.06134969 C12.5112464,6.37218969 12.2331306,6.65030552 11.8895706,6.89570552 C11.5460106,7.14110552 11.1451966,7.32106282 10.6871166,7.43558282 L10.6871166,7.53374233 C11.8323166,7.74642233 12.6952936,8.1554162 13.2760736,8.7607362 C13.8568536,9.3660562 14.1472393,10.2085836 14.1472393,11.2883436 C14.1472393,12.1063436 13.9877317,12.809813 13.6687117,13.398773 C13.3496917,13.987733 12.9079783,14.4744357 12.3435583,14.8588957 C11.7791383,15.2433557 11.1206582,15.5296514 10.3680982,15.7177914 C9.61553816,15.9059314 8.80573031,16 7.93865031,16 L2,16 L2,0 Z M7.3006135,6.45398773 C8.1840535,6.45398773 8.82617387,6.27812037 9.22699387,5.92638037 C9.62781387,5.57464037 9.82822086,5.09611755 9.82822086,4.49079755 C9.82822086,3.88547755 9.62372393,3.45194405 9.21472393,3.19018405 C8.80572393,2.92842405 8.17587337,2.79754601 7.32515337,2.79754601 L5.60736196,2.79754601 L5.60736196,6.45398773 L7.3006135,6.45398773 Z M7.64417178,13.202454 C9.62373178,13.202454 10.6134969,12.4744449 10.6134969,11.0184049 C10.6134969,10.3149249 10.3681006,9.80368258 9.87730061,9.48466258 C9.38650061,9.16564258 8.64213178,9.00613497 7.64417178,9.00613497 L5.60736196,9.00613497 L5.60736196,13.202454 L7.64417178,13.202454 Z"/>
    <path id="ckeditor-b" d="M1.92749245,40 L5.82477341,40 L5.82477341,46.0664653 C5.82477341,47.3806712 6.00226409,48.3058886 6.35725076,48.842145 C6.71223742,49.3784015 7.27492062,49.6465257 8.04531722,49.6465257 C8.81571382,49.6465257 9.38594981,49.3784015 9.7560423,48.842145 C10.1261348,48.3058886 10.3111782,47.3806712 10.3111782,46.0664653 L10.3111782,40 L14.0725076,40 L14.0725076,45.6132931 C14.0725076,48.1359643 13.5815759,49.9977281 12.5996979,51.1986405 C11.6178199,52.3995528 10.0997082,53 8.04531722,53 C5.97582047,53 4.43882677,52.3995528 3.43429003,51.1986405 C2.42975329,49.9977281 1.92749245,48.1359643 1.92749245,45.6132931 L1.92749245,40 Z M1.92749245,56 L1.92749245,54 L13.9274924,54 L13.9274924,56 L1.92749245,56 Z"/>
    <path id="ckeditor-c" d="M4.34772825,126.785041 C4.61144702,126.518631 5.04120111,126.516449 5.30761089,126.780168 L5.31248135,126.785039 L8,129.499958 L10.6875186,126.785039 C10.9512385,126.51863 11.3809927,126.51645 11.6474013,126.78017 L11.6522718,126.785041 C11.9194689,127.054964 11.9194689,127.489712 11.6522718,127.759636 L8,131.449176 L4.34772825,127.759636 C4.08053111,127.489712 4.08053111,127.054964 4.34772825,126.785041 Z"/>
    <path id="ckeditor-d" d="M1.44237472,5.61914155 C1.30567614,5.61914155 1.18737184,5.56248402 1.08736502,5.44938813 C0.987455005,5.33640183 0.9375,5.20237443 0.9375,5.0476347 L0.9375,3.90473059 C0.9375,3.74999087 0.987455005,3.61607306 1.08736502,3.50297717 C1.18727503,3.38988128 1.30557932,3.33333333 1.44237472,3.33333333 L13.5578189,3.33333333 C13.6945175,3.33333333 13.8128218,3.38988128 13.9127318,3.50297717 C14.012545,3.61607306 14.0625,3.74988128 14.0625,3.90473059 L14.0625,5.0476347 C14.0625,5.20237443 14.012545,5.33640183 13.9127318,5.44938813 C13.8128218,5.56248402 13.6945175,5.61914155 13.5578189,5.61914155 L1.44237472,5.61914155 Z M3.28131293,2.28580822 C3.15437834,2.28580822 3.04452419,2.22926027 2.95166058,2.11616438 C2.85888686,2.00306849 2.8125,1.86915068 2.8125,1.71441096 L2.8125,0.571506849 C2.8125,0.416767123 2.85888686,0.282739726 2.95166058,0.169643836 C3.0444343,0.0566575342 3.15428845,0 3.28131293,0 L11.7186871,0 C11.8456217,0 11.9555657,0.0566575342 12.0484293,0.169643836 C12.1411131,0.282849315 12.1875,0.416767123 12.1875,0.571506849 L12.1875,1.71441096 C12.1875,1.86915068 12.1411131,2.00306849 12.0484293,2.11616438 C11.9555657,2.22926027 11.8456217,2.28580822 11.7186871,2.28580822 L3.28131293,2.28580822 Z M14.8410616,10.1696438 C14.947089,10.2827397 15.0001027,10.4166575 15.0001027,10.5713973 L15.0001027,11.7143014 C15.0001027,11.8690411 14.947089,12.0030685 14.8410616,12.116274 C14.7350342,12.2291507 14.6093836,12.2858082 14.4643151,12.2858082 L0.535787671,12.2858082 C0.390719178,12.2858082 0.265171233,12.2291507 0.159041096,12.116274 C0.0530136986,12.0030685 0,11.8690411 0,11.7143014 L0,10.5713973 C0,10.4166575 0.0530136986,10.2827397 0.159041096,10.1696438 C0.265068493,10.0565479 0.390616438,10 0.535787671,10 L14.4643151,10 C14.6093836,10 14.7350342,10.0565479 14.8410616,10.1696438 Z M4.0909507,8.95247489 C3.99863576,8.95247489 3.91874281,8.89592694 3.85120646,8.78283105 C3.78373549,8.66984475 3.75,8.53581735 3.75,8.38107763 L3.75,7.23817352 C3.75,7.08354338 3.78373549,6.94940639 3.85120646,6.83642009 C3.91867743,6.7233242 3.99857038,6.66666667 4.0909507,6.66666667 L10.9090493,6.66666667 C11.0013642,6.66666667 11.0813226,6.7233242 11.1487282,6.83642009 C11.2161991,6.94940639 11.25,7.08354338 11.25,7.23817352 L11.25,8.38096804 C11.25,8.53570776 11.2161991,8.66973516 11.1487282,8.78272146 C11.0813226,8.89581735 11.0013642,8.95247489 10.9090493,8.95247489 L4.0909507,8.95247489 Z"/>
    <path id="ckeditor-f" d="M0.535684932,6.67528767 C0.390616438,6.67528767 0.265068493,6.61863014 0.158938356,6.50553425 C0.0529109589,6.39254795 -0.000102739726,6.25852055 -0.000102739726,6.10378082 L-0.000102739726,4.96087671 C-0.000102739726,4.80613699 0.0529109589,4.67221918 0.158938356,4.55912329 C0.264965753,4.4460274 0.390513699,4.38947945 0.535684932,4.38947945 L13.3929452,4.38947945 C13.5380137,4.38947945 13.6635616,4.4460274 13.769589,4.55912329 C13.8755137,4.67221918 13.9285274,4.8060274 13.9285274,4.96087671 L13.9285274,6.10378082 C13.9285274,6.25852055 13.8755137,6.39254795 13.769589,6.50553425 C13.6635616,6.61863014 13.5380137,6.67528767 13.3929452,6.67528767 L0.535684932,6.67528767 Z M0.535684932,3.24657534 C0.390616438,3.24657534 0.265068493,3.1900274 0.158938356,3.07693151 C0.0529109589,2.96383562 -0.000102739726,2.82991781 -0.000102739726,2.67517808 L-0.000102739726,1.53227397 C-0.000102739726,1.37753425 0.0529109589,1.24350685 0.158938356,1.13041096 C0.264965753,1.01742466 0.390513699,0.960767123 0.535684932,0.960767123 L10.1784247,0.960767123 C10.3234932,0.960767123 10.4491438,1.01742466 10.555274,1.13041096 C10.6611986,1.24361644 10.7142123,1.37753425 10.7142123,1.53227397 L10.7142123,2.67517808 C10.7142123,2.82991781 10.6611986,2.96383562 10.555274,3.07693151 C10.4491438,3.1900274 10.3234932,3.24657534 10.1784247,3.24657534 L0.535684932,3.24657534 Z M14.8409589,11.4162192 C14.9469863,11.5293151 15,11.6632329 15,11.8179726 L15,12.9608767 C15,13.1156164 14.9469863,13.2496438 14.8409589,13.3628493 C14.7349315,13.475726 14.6092808,13.5323836 14.4642123,13.5323836 L0.535684932,13.5323836 C0.390616438,13.5323836 0.265068493,13.475726 0.158938356,13.3628493 C0.0529109589,13.2496438 -0.000102739726,13.1156164 -0.000102739726,12.9608767 L-0.000102739726,11.8179726 C-0.000102739726,11.6632329 0.0529109589,11.5293151 0.158938356,11.4162192 C0.264965753,11.3031233 0.390513699,11.2465753 0.535684932,11.2465753 L14.4642123,11.2465753 C14.6092808,11.2465753 14.7349315,11.3031233 14.8409589,11.4162192 Z M0.535684932,10.1037808 C0.390616438,10.1037808 0.265068493,10.0472329 0.158938356,9.93413699 C0.0529109589,9.82115068 -0.000102739726,9.68712329 -0.000102739726,9.53238356 L-0.000102739726,8.38947945 C-0.000102739726,8.23484932 0.0529109589,8.10071233 0.158938356,7.98772603 C0.264965753,7.87463014 0.390513699,7.8179726 0.535684932,7.8179726 L11.25,7.8179726 C11.3950685,7.8179726 11.5207192,7.87463014 11.6266438,7.98772603 C11.7326712,8.10071233 11.7857877,8.23484932 11.7857877,8.38947945 L11.7857877,9.53227397 C11.7857877,9.6870137 11.7326712,9.8210411 11.6266438,9.9340274 C11.5207192,10.0471233 11.3950685,10.1037808 11.25,10.1037808 L0.535684932,10.1037808 Z"/>
    <path id="ckeditor-h" d="M0.535684932,6.67528767 C0.390616438,6.67528767 0.265068493,6.61863014 0.158938356,6.50553425 C0.0529109589,6.39254795 -0.000102739726,6.25852055 -0.000102739726,6.10378082 L-0.000102739726,4.96087671 C-0.000102739726,4.80613699 0.0529109589,4.67221918 0.158938356,4.55912329 C0.264965753,4.4460274 0.390513699,4.38947945 0.535684932,4.38947945 L13.3929452,4.38947945 C13.5380137,4.38947945 13.6635616,4.4460274 13.769589,4.55912329 C13.8755137,4.67221918 13.9285274,4.8060274 13.9285274,4.96087671 L13.9285274,6.10378082 C13.9285274,6.25852055 13.8755137,6.39254795 13.769589,6.50553425 C13.6635616,6.61863014 13.5380137,6.67528767 13.3929452,6.67528767 L0.535684932,6.67528767 Z M0.535684932,3.24657534 C0.390616438,3.24657534 0.265068493,3.1900274 0.158938356,3.07693151 C0.0529109589,2.96383562 -0.000102739726,2.82991781 -0.000102739726,2.67517808 L-0.000102739726,1.53227397 C-0.000102739726,1.37753425 0.0529109589,1.24350685 0.158938356,1.13041096 C0.264965753,1.01742466 0.390513699,0.960767123 0.535684932,0.960767123 L10.1784247,0.960767123 C10.3234932,0.960767123 10.4491438,1.01742466 10.555274,1.13041096 C10.6611986,1.24361644 10.7142123,1.37753425 10.7142123,1.53227397 L10.7142123,2.67517808 C10.7142123,2.82991781 10.6611986,2.96383562 10.555274,3.07693151 C10.4491438,3.1900274 10.3234932,3.24657534 10.1784247,3.24657534 L0.535684932,3.24657534 Z M14.8409589,11.4162192 C14.9469863,11.5293151 15,11.6632329 15,11.8179726 L15,12.9608767 C15,13.1156164 14.9469863,13.2496438 14.8409589,13.3628493 C14.7349315,13.475726 14.6092808,13.5323836 14.4642123,13.5323836 L0.535684932,13.5323836 C0.390616438,13.5323836 0.265068493,13.475726 0.158938356,13.3628493 C0.0529109589,13.2496438 -0.000102739726,13.1156164 -0.000102739726,12.9608767 L-0.000102739726,11.8179726 C-0.000102739726,11.6632329 0.0529109589,11.5293151 0.158938356,11.4162192 C0.264965753,11.3031233 0.390513699,11.2465753 0.535684932,11.2465753 L14.4642123,11.2465753 C14.6092808,11.2465753 14.7349315,11.3031233 14.8409589,11.4162192 Z M0.535684932,10.1037808 C0.390616438,10.1037808 0.265068493,10.0472329 0.158938356,9.93413699 C0.0529109589,9.82115068 -0.000102739726,9.68712329 -0.000102739726,9.53238356 L-0.000102739726,8.38947945 C-0.000102739726,8.23484932 0.0529109589,8.10071233 0.158938356,7.98772603 C0.264965753,7.87463014 0.390513699,7.8179726 0.535684932,7.8179726 L11.25,7.8179726 C11.3950685,7.8179726 11.5207192,7.87463014 11.6266438,7.98772603 C11.7326712,8.10071233 11.7857877,8.23484932 11.7857877,8.38947945 L11.7857877,9.53227397 C11.7857877,9.6870137 11.7326712,9.8210411 11.6266438,9.9340274 C11.5207192,10.0471233 11.3950685,10.1037808 11.25,10.1037808 L0.535684932,10.1037808 Z"/>
    <path id="ckeditor-j" d="M0.576999675,5.61914155 C0.420772726,5.61914155 0.285567816,5.56248402 0.171274304,5.44938813 C0.0570914348,5.33640183 0,5.20237443 0,5.0476347 L0,3.90473059 C0,3.74999087 0.0570914348,3.61607306 0.171274304,3.50297717 C0.285457174,3.38988128 0.420662084,3.33333333 0.576999675,3.33333333 L14.4232216,3.33333333 C14.5794486,3.33333333 14.7146535,3.38988128 14.8288363,3.50297717 C14.9429086,3.61607306 15,3.74988128 15,3.90473059 L15,5.0476347 C15,5.20237443 14.9429086,5.33640183 14.8288363,5.44938813 C14.7146535,5.56248402 14.5794486,5.61914155 14.4232216,5.61914155 L0.576999675,5.61914155 Z M0.750100685,2.28580822 C0.547005351,2.28580822 0.371238709,2.22926027 0.222656924,2.11616438 C0.0742189747,2.00306849 0,1.86915068 0,1.71441096 L0,0.571506849 C0,0.416767123 0.0742189747,0.282739726 0.222656924,0.169643836 C0.371094874,0.0566575342 0.546861515,0 0.750100685,0 L14.2498993,0 C14.4529946,0 14.6289051,0.0566575342 14.7774869,0.169643836 C14.925781,0.282849315 15,0.416767123 15,0.571506849 L15,1.71441096 C15,1.86915068 14.925781,2.00306849 14.7774869,2.11616438 C14.6289051,2.22926027 14.4529946,2.28580822 14.2498993,2.28580822 L0.750100685,2.28580822 Z M14.84096,10.1696438 C14.9469867,10.2827397 15,10.4166575 15,10.5713973 L15,11.7143014 C15,11.8690411 14.9469867,12.0030685 14.84096,12.116274 C14.7349333,12.2291507 14.6092835,12.2858082 14.464216,12.2858082 L0.535784001,12.2858082 C0.390716502,12.2858082 0.265169417,12.2291507 0.159040007,12.116274 C0.0530133355,12.0030685 0,11.8690411 0,11.7143014 L0,10.5713973 C0,10.4166575 0.0530133355,10.2827397 0.159040007,10.1696438 C0.265066678,10.0565479 0.390613763,10 0.535784001,10 L14.464216,10 C14.6092835,10 14.7349333,10.0565479 14.84096,10.1696438 Z M0.681901391,8.95247489 C0.497271523,8.95247489 0.337485617,8.89592694 0.202412915,8.78283105 C0.0674709718,8.66984475 0,8.53581735 0,8.38107763 L0,7.23817352 C0,7.08354338 0.0674709718,6.94940639 0.202412915,6.83642009 C0.337354859,6.7233242 0.497140765,6.66666667 0.681901391,6.66666667 L14.3180986,6.66666667 C14.5027285,6.66666667 14.6626451,6.7233242 14.7974563,6.83642009 C14.9323983,6.94940639 15,7.08354338 15,7.23817352 L15,8.38096804 C15,8.53570776 14.9323983,8.66973516 14.7974563,8.78272146 C14.6626451,8.89581735 14.5027285,8.95247489 14.3180986,8.95247489 L0.681901391,8.95247489 Z"/>
    <path id="ckeditor-l" d="M14.5540809,1.40847059 C14.2725,1.10811765 13.9341176,0.958 13.5386029,0.958 L1.46139706,0.958 C1.06599265,0.958 0.7275,1.10811765 0.445919118,1.40847059 C0.164338235,1.70894118 0.0236029412,2.06988235 0.0236029412,2.49164706 L0.0236029412,12.9203529 C0.0236029412,13.3421176 0.164338235,13.7028235 0.445919118,14.0034118 C0.7275,14.3038824 1.06599265,14.4537647 1.46139706,14.4537647 L13.5386029,14.4537647 C13.9341176,14.4537647 14.2725,14.3038824 14.5540809,14.0034118 C14.8356618,13.7028235 14.9762868,13.342 14.9762868,12.9203529 L14.9762868,2.49164706 C14.9762868,2.06988235 14.8356618,1.70882353 14.5540809,1.40847059 L14.5540809,1.40847059 Z M4.62452206,12.92 C4.62452206,13.0096471 4.5975,13.0830588 4.54356618,13.1405882 C4.48963235,13.198 4.42080882,13.2265882 4.336875,13.2265882 L1.46139706,13.2265882 C1.37757353,13.2265882 1.30863971,13.198 1.25470588,13.1405882 C1.20077206,13.0830588 1.17386029,13.0096471 1.17386029,12.92 L1.17386029,11.0795294 C1.17386029,10.99 1.20077206,10.9165882 1.25470588,10.8592941 C1.30863971,10.8016471 1.37757353,10.7729412 1.46139706,10.7729412 L4.33698529,10.7729412 C4.42091912,10.7729412 4.48985294,10.8016471 4.54367647,10.8592941 C4.5975,10.9165882 4.62452206,10.99 4.62452206,11.0795294 L4.62452206,12.92 L4.62452206,12.92 Z M4.62452206,9.23952941 C4.62452206,9.32894118 4.5975,9.40247059 4.54356618,9.45988235 C4.48963235,9.51741176 4.42080882,9.54611765 4.336875,9.54611765 L1.46139706,9.54611765 C1.37757353,9.54611765 1.30863971,9.51741176 1.25470588,9.45988235 C1.20077206,9.40247059 1.17386029,9.32894118 1.17386029,9.23952941 L1.17386029,7.39905882 C1.17386029,7.30964706 1.20077206,7.23611765 1.25470588,7.17858824 C1.30863971,7.12117647 1.37757353,7.09247059 1.46139706,7.09247059 L4.33698529,7.09247059 C4.42091912,7.09247059 4.48974265,7.12117647 4.54367647,7.17858824 C4.5975,7.23611765 4.62452206,7.30964706 4.62452206,7.39905882 L4.62452206,9.23952941 L4.62452206,9.23952941 Z M4.62452206,5.55882353 C4.62452206,5.64835294 4.5975,5.72176471 4.54356618,5.77929412 C4.48963235,5.83670588 4.42080882,5.86552941 4.336875,5.86552941 L1.46139706,5.86552941 C1.37757353,5.86552941 1.30863971,5.83670588 1.25470588,5.77929412 C1.20077206,5.72176471 1.17386029,5.64835294 1.17386029,5.55882353 L1.17386029,3.71847059 C1.17386029,3.62894118 1.20077206,3.55541176 1.25470588,3.498 C1.30863971,3.44047059 1.37757353,3.41176471 1.46139706,3.41176471 L4.33698529,3.41176471 C4.42091912,3.41176471 4.48974265,3.44047059 4.54367647,3.498 C4.5975,3.55541176 4.62452206,3.62894118 4.62452206,3.71847059 L4.62452206,5.55882353 L4.62452206,5.55882353 Z M9.22533088,12.92 C9.22533088,13.0096471 9.19841912,13.0830588 9.14470588,13.1405882 C9.09088235,13.198 9.02194853,13.2265882 8.93790441,13.2265882 L6.06220588,13.2265882 C5.97838235,13.2265882 5.90944853,13.198 5.85551471,13.1405882 C5.80158088,13.0830588 5.77466912,13.0096471 5.77466912,12.92 L5.77466912,11.0795294 C5.77466912,10.99 5.80158088,10.9165882 5.85551471,10.8592941 C5.90944853,10.8016471 5.97838235,10.7729412 6.06220588,10.7729412 L8.93779412,10.7729412 C9.02183824,10.7729412 9.09077206,10.8016471 9.14459559,10.8592941 C9.19830882,10.9165882 9.22522059,10.99 9.22522059,11.0795294 L9.22522059,12.92 L9.22533088,12.92 Z M9.22533088,9.23952941 C9.22533088,9.32894118 9.19841912,9.40247059 9.14470588,9.45988235 C9.09088235,9.51741176 9.02194853,9.54611765 8.93790441,9.54611765 L6.06220588,9.54611765 C5.97838235,9.54611765 5.90944853,9.51741176 5.85551471,9.45988235 C5.80158088,9.40247059 5.77466912,9.32894118 5.77466912,9.23952941 L5.77466912,7.39905882 C5.77466912,7.30964706 5.80158088,7.23611765 5.85551471,7.17858824 C5.90944853,7.12117647 5.97838235,7.09247059 6.06220588,7.09247059 L8.93779412,7.09247059 C9.02183824,7.09247059 9.09077206,7.12117647 9.14459559,7.17858824 C9.19830882,7.23611765 9.22522059,7.30964706 9.22522059,7.39905882 L9.22522059,9.23952941 L9.22533088,9.23952941 Z M9.22533088,5.55882353 C9.22533088,5.64835294 9.19841912,5.72176471 9.14470588,5.77929412 C9.09088235,5.83670588 9.02194853,5.86552941 8.93790441,5.86552941 L6.06220588,5.86552941 C5.97838235,5.86552941 5.90944853,5.83670588 5.85551471,5.77929412 C5.80158088,5.72176471 5.77466912,5.64835294 5.77466912,5.55882353 L5.77466912,3.71847059 C5.77466912,3.62894118 5.80158088,3.55541176 5.85551471,3.498 C5.90944853,3.44047059 5.97838235,3.41176471 6.06220588,3.41176471 L8.93779412,3.41176471 C9.02183824,3.41176471 9.09077206,3.44047059 9.14459559,3.498 C9.19830882,3.55541176 9.22522059,3.62894118 9.22522059,3.71847059 L9.22522059,5.55882353 L9.22533088,5.55882353 Z M13.8261397,12.92 C13.8261397,13.0096471 13.7992279,13.0830588 13.7454044,13.1405882 C13.6913603,13.198 13.6224265,13.2265882 13.5386029,13.2265882 L10.6632353,13.2265882 C10.5791912,13.2265882 10.5102574,13.198 10.4564338,13.1405882 C10.4026103,13.0830588 10.3759191,13.0096471 10.3759191,12.92 L10.3759191,11.0795294 C10.3759191,10.99 10.4026103,10.9165882 10.4564338,10.8592941 C10.5102574,10.8016471 10.5791912,10.7729412 10.6632353,10.7729412 L13.5386029,10.7729412 C13.6224265,10.7729412 13.6913603,10.8016471 13.7454044,10.8592941 C13.7992279,10.9165882 13.8261397,10.99 13.8261397,11.0795294 L13.8261397,12.92 L13.8261397,12.92 Z M13.8261397,9.23952941 C13.8261397,9.32894118 13.7992279,9.40247059 13.7454044,9.45988235 C13.6913603,9.51741176 13.6224265,9.54611765 13.5386029,9.54611765 L10.6632353,9.54611765 C10.5791912,9.54611765 10.5102574,9.51741176 10.4564338,9.45988235 C10.4026103,9.40247059 10.3759191,9.32894118 10.3759191,9.23952941 L10.3759191,7.39905882 C10.3759191,7.30964706 10.4026103,7.23611765 10.4564338,7.17858824 C10.5102574,7.12117647 10.5791912,7.09247059 10.6632353,7.09247059 L13.5386029,7.09247059 C13.6224265,7.09247059 13.6913603,7.12117647 13.7454044,7.17858824 C13.7992279,7.23611765 13.8261397,7.30964706 13.8261397,7.39905882 L13.8261397,9.23952941 L13.8261397,9.23952941 Z M13.8261397,5.55882353 C13.8261397,5.64835294 13.7992279,5.72176471 13.7454044,5.77929412 C13.6913603,5.83670588 13.6224265,5.86552941 13.5386029,5.86552941 L10.6632353,5.86552941 C10.5791912,5.86552941 10.5102574,5.83670588 10.4564338,5.77929412 C10.4026103,5.72176471 10.3759191,5.64835294 10.3759191,5.55882353 L10.3759191,3.71847059 C10.3759191,3.62894118 10.4026103,3.55541176 10.4564338,3.498 C10.5102574,3.44047059 10.5791912,3.41176471 10.6632353,3.41176471 L13.5386029,3.41176471 C13.6224265,3.41176471 13.6913603,3.44047059 13.7454044,3.498 C13.7992279,3.55541176 13.8261397,3.62894118 13.8261397,3.71847059 L13.8261397,5.55882353 L13.8261397,5.55882353 Z"/>
    <path id="ckeditor-n" d="M14.5563699,7.43583562 C13.6522603,5.0370411 11.2108562,3.83758904 7.23205479,3.83758904 L5.35705479,3.83758904 L5.35705479,1.55189041 C5.35705479,1.3970411 5.3040411,1.26312329 5.1980137,1.1500274 C5.0919863,1.03693151 4.9665411,0.980383562 4.82136986,0.980383562 C4.67619863,0.980383562 4.55065068,1.03693151 4.44462329,1.1500274 L0.158938356,5.72142466 C0.0529109589,5.83463014 -0.000102739726,5.96854795 -0.000102739726,6.12328767 C-0.000102739726,6.2780274 0.0529109589,6.41194521 0.158938356,6.5250411 L4.44462329,11.0965479 C4.55075342,11.2095342 4.67630137,11.2663014 4.82136986,11.2663014 C4.96643836,11.2663014 5.0919863,11.2095342 5.1980137,11.0965479 C5.3040411,10.9835616 5.35705479,10.8495342 5.35705479,10.6947945 L5.35705479,8.4089863 L7.23205479,8.4089863 C7.77883562,8.4089863 8.26849315,8.42673973 8.70092466,8.46246575 C9.13335616,8.49819178 9.56321918,8.56219178 9.99,8.65446575 C10.4169863,8.74673973 10.7880822,8.87320548 11.1033904,9.0339726 C11.4186986,9.19484932 11.7130479,9.40153425 11.9865411,9.65446575 C12.2600342,9.90761644 12.4832877,10.208 12.6563014,10.556274 C12.8292123,10.9045479 12.9645205,11.3166027 13.062226,11.7928767 C13.1598288,12.2690411 13.2087329,12.8077808 13.2087329,13.4088767 C13.2087329,13.7361096 13.1946575,14.1023562 13.1669178,14.5070685 C13.1669178,14.5426849 13.1600342,14.6126027 13.1459589,14.7168219 C13.132089,14.8210411 13.1251027,14.8998356 13.1251027,14.9534247 C13.1251027,15.0425205 13.1487329,15.1170411 13.1960959,15.1765479 C13.2436644,15.2360548 13.3093151,15.2657534 13.3929452,15.2657534 C13.482226,15.2657534 13.5603082,15.2151233 13.6272945,15.113863 C13.6662329,15.0603836 13.7023973,14.9948493 13.7360959,14.9174795 C13.769589,14.8401096 13.8072945,14.7509041 13.8491096,14.6497534 C13.8910274,14.5483836 13.9203082,14.4772603 13.9369521,14.4355068 C14.6456507,12.7392877 15,11.3970411 15,10.4089863 C15,9.22454795 14.8521575,8.23342466 14.5563699,7.43583562 L14.5563699,7.43583562 Z"/>
    <path id="ckeditor-p" d="M15.0563699,347.435836 C14.1522603,345.037041 11.7108562,343.837589 7.73205479,343.837589 L5.85705479,343.837589 L5.85705479,341.55189 C5.85705479,341.397041 5.8040411,341.263123 5.6980137,341.150027 C5.5919863,341.036932 5.4665411,340.980384 5.32136986,340.980384 C5.17619863,340.980384 5.05065068,341.036932 4.94462329,341.150027 L0.658938356,345.721425 C0.552910959,345.83463 0.49989726,345.968548 0.49989726,346.123288 C0.49989726,346.278027 0.552910959,346.411945 0.658938356,346.525041 L4.94462329,351.096548 C5.05075342,351.209534 5.17630137,351.266301 5.32136986,351.266301 C5.46643836,351.266301 5.5919863,351.209534 5.6980137,351.096548 C5.8040411,350.983562 5.85705479,350.849534 5.85705479,350.694795 L5.85705479,348.408986 L7.73205479,348.408986 C8.27883562,348.408986 8.76849315,348.42674 9.20092466,348.462466 C9.63335616,348.498192 10.0632192,348.562192 10.49,348.654466 C10.9169863,348.74674 11.2880822,348.873205 11.6033904,349.033973 C11.9186986,349.194849 12.2130479,349.401534 12.4865411,349.654466 C12.7600342,349.907616 12.9832877,350.208 13.1563014,350.556274 C13.3292123,350.904548 13.4645205,351.316603 13.562226,351.792877 C13.6598288,352.269041 13.7087329,352.807781 13.7087329,353.408877 C13.7087329,353.73611 13.6946575,354.102356 13.6669178,354.507068 C13.6669178,354.542685 13.6600342,354.612603 13.6459589,354.716822 C13.632089,354.821041 13.6251027,354.899836 13.6251027,354.953425 C13.6251027,355.042521 13.6487329,355.117041 13.6960959,355.176548 C13.7436644,355.236055 13.8093151,355.265753 13.8929452,355.265753 C13.982226,355.265753 14.0603082,355.215123 14.1272945,355.113863 C14.1662329,355.060384 14.2023973,354.994849 14.2360959,354.917479 C14.269589,354.84011 14.3072945,354.750904 14.3491096,354.649753 C14.3910274,354.548384 14.4203082,354.47726 14.4369521,354.435507 C15.1456507,352.739288 15.5,351.397041 15.5,350.408986 C15.5,349.224548 15.3521575,348.233425 15.0563699,347.435836 L15.0563699,347.435836 Z"/>
    <path id="ckeditor-q" d="M14.2459274,390.67071 L8.51979839,384.562839 C8.11891129,384.12129 7.62947581,383.900516 7.05125,383.900516 C6.51245968,383.900516 6.05592742,384.100258 5.68141129,384.499742 C5.30677419,384.899226 5.11951613,385.386323 5.11951613,385.961032 C5.11951613,386.577806 5.32649194,387.1 5.74044355,387.527484 L9.78125,391.837677 C9.84693548,391.907742 9.91939516,391.94271 9.99814516,391.94271 C10.1032661,391.94271 10.2577419,391.834065 10.4612097,391.616903 C10.6649194,391.399613 10.7666532,391.234839 10.7666532,391.12271 C10.7666532,391.038839 10.733871,390.961677 10.6681855,390.891484 L6.6275,386.58129 C6.46322581,386.392 6.38108871,386.18529 6.38108871,385.961032 C6.38108871,385.757677 6.44350806,385.589548 6.56834677,385.456387 C6.69318548,385.323226 6.85092742,385.256645 7.04145161,385.256645 C7.26487903,385.256645 7.46193548,385.340645 7.6328629,385.508903 L13.358871,391.616774 C13.7729435,392.058194 13.9799194,392.566194 13.9799194,393.140903 C13.9799194,393.589677 13.8418952,393.961032 13.5659677,394.255355 C13.2897984,394.549677 12.9417742,394.697032 12.5211694,394.697032 C11.982379,394.697032 11.506129,394.476129 11.0922984,394.034581 L3.4441129,385.866194 C2.94475806,385.333548 2.69520161,384.699226 2.69520161,383.963355 C2.69520161,383.220387 2.93495968,382.586065 3.41459677,382.060516 C3.89423387,381.534968 4.48225806,381.272129 5.17879032,381.272129 C5.84895161,381.272129 6.44350806,381.541935 6.96258065,382.081419 L12.935121,388.462581 C13.0008065,388.532774 13.0762903,388.567613 13.1618145,388.567613 C13.2669355,388.567613 13.4197177,388.460774 13.6200403,388.246968 C13.8204839,388.03329 13.9205242,387.870323 13.9205242,387.758194 C13.9205242,387.674194 13.8877419,387.597032 13.8221774,387.526968 L7.85943548,381.156258 C7.10387097,380.364258 6.20701613,379.968258 5.16887097,379.968258 C4.12419355,379.968258 3.24052419,380.35729 2.51774194,381.135226 C1.79495968,381.913161 1.43362903,382.859355 1.43362903,383.973677 C1.43362903,385.066968 1.80475806,386.016645 2.54725806,386.822581 L10.205121,394.980516 C10.8622177,395.681161 11.6341129,396.031742 12.5211694,396.031742 C13.2899194,396.031742 13.9338306,395.75471 14.4529032,395.201032 C14.9719758,394.647613 15.2316935,393.960645 15.2316935,393.140516 C15.2315726,392.180387 14.9029032,391.357161 14.2459274,390.67071 L14.2459274,390.67071 Z"/>
  </defs>
  <g fill="none" fill-rule="evenodd">
    <use fill="#2A495D" xlink:href="#ckeditor-a"/>
    <polygon fill="#2A495D" points="10.312 36 1.694 36 2.391 33.206 4.691 33.206 7.29 22.794 4.991 22.794 5.688 20 14.306 20 13.609 22.794 11.309 22.794 8.71 33.206 11.009 33.206"/>
    <use fill="#2A495D" xlink:href="#ckeditor-b"/>
    <path fill="#2A495D" fill-rule="nonzero" d="M3.63269002,67 C3.51150144,66.7859201 3.40693547,66.557434 3.3189911,66.3145401 C3.15281816,65.8555862 3.06973294,65.349162 3.06973294,64.7952522 C3.06973294,64.1305605 3.21216475,63.5093995 3.49703264,62.9317507 C3.78190053,62.354102 4.17754445,61.8476777 4.68397626,61.4124629 C5.19040807,60.9772481 5.79574326,60.6330379 6.5,60.379822 C7.20425674,60.1266061 7.97576237,60 8.81454006,60 C9.70079573,60 10.5989074,60.1661704 11.5089021,60.4985163 C12.4188967,60.8308622 13.2299668,61.3531122 13.9421365,62.0652819 L11.9005935,64.6290801 C11.3783357,64.2650823 10.8758679,63.9881315 10.3931751,63.7982196 C9.91048226,63.6083077 9.38427585,63.5133531 8.81454006,63.5133531 C8.30810825,63.5133531 7.91246433,63.6003948 7.62759644,63.7744807 C7.34272855,63.9485666 7.20029674,64.2096916 7.20029674,64.5578635 C7.20029674,64.9218614 7.40207513,65.2027685 7.80563798,65.4005935 C8.20920083,65.5984184 8.76705875,65.8318483 9.47922849,66.1008902 L11.3545994,66.8367953 C11.4858112,66.8884196 11.6129298,66.9428211 11.7359552,67 L15.5,67 L15.5,69 L13.9413343,69 C14.2267366,69.5793307 14.3694362,70.2667653 14.3694362,71.0623145 C14.3694362,71.7111803 14.2349173,72.3362977 13.9658754,72.9376855 C13.6968335,73.5390732 13.305146,74.0652796 12.7908012,74.5163205 C12.2764564,74.9673613 11.6473826,75.3273973 10.9035608,75.5964392 C10.1597391,75.8654811 9.30514825,76 8.33976261,76 C7.35855098,76 6.34965899,75.8219602 5.31305638,75.4658754 C4.27645377,75.1097905 3.33877769,74.5519326 2.5,73.7922849 L4.8264095,70.9910979 C5.38031929,71.4342258 5.9777416,71.7942617 6.61869436,72.0712166 C7.25964712,72.3481715 7.86498231,72.4866469 8.4347181,72.4866469 C9.05193187,72.4866469 9.4990095,72.3916923 9.77596439,72.2017804 C10.0529193,72.0118685 10.1913947,71.7428306 10.1913947,71.3946588 C10.1913947,71.2047468 10.1439174,71.0464893 10.0489614,70.9198813 C9.95400546,70.7932734 9.81553009,70.6745802 9.63353116,70.5637982 C9.45153223,70.4530163 9.23392807,70.3461924 8.98071217,70.2433234 C8.72749626,70.1404545 8.43471976,70.0257177 8.10237389,69.8991098 L6.17952522,69.0919881 C6.10427453,69.0630456 6.02955335,69.0323829 5.95536159,69 L0.5,69 L0.5,67 L3.63269002,67 Z"/>
    <path fill="#2A495D" d="M8.962 106.822L8.764 106.012C8.61999928 105.447997 8.47600072 104.836003 8.332 104.176 8.18799928 103.515997 8.04400072 102.892003 7.9 102.304L7.828 102.304C7.69599934 102.904003 7.56100069 103.530997 7.423 104.185 7.28499931 104.839003 7.14400072 105.447997 7 106.012L6.802 106.822 8.962 106.822zM9.52 109.216L6.244 109.216 5.668 111.7 2.5 111.7 6.064 100 9.808 100 13.372 111.7 10.096 111.7 9.52 109.216zM.5 116L.5 113 15.5 113 15.5 116 .5 116zM3.5 80L12.5 80C14.1568542 80 15.5 81.3431458 15.5 83L15.5 93C15.5 94.6568542 14.1568542 96 12.5 96L3.5 96C1.84314575 96 .5 94.6568542.5 93L.5 83C.5 81.3431458 1.84314575 80 3.5 80zM9.33124989 90.4283075L9.82509604 92.6999998 12.633846 92.6999998 9.57817297 82 6.36817302 82 3.3125 92.6999998 6.0286538 92.6999998 6.52249994 90.4283075 9.33124989 90.4283075zM8.85283644 88.238923L7.0009134 88.238923 7.17067301 87.4981537C7.29413516 86.9823563 7.41502337 86.4254132 7.53334127 85.8273076 7.65165917 85.2292021 7.7674032 84.6557976 7.88057684 84.1070769L7.94230761 84.1070769C8.06576976 84.6448232 8.18923006 85.2154841 8.31269222 85.8190769 8.43615437 86.4226696 8.55961467 86.9823563 8.68307683 87.4981537L8.85283644 88.238923z"/>
    <use fill="#2A495D" xlink:href="#ckeditor-c"/>
    <path fill="#2A495D" d="M15.3737072 142.287096C15.4266182 142.343644 15.453125 142.410603 15.453125 142.487973L15.453125 144.202384C15.453125 144.279753 15.4267209 144.346603 15.3737072 144.40326 15.3205908 144.459808 15.2579195 144.487973 15.1852825 144.487973L5.0066524 144.487973C4.93411815 144.487973 4.87134418 144.459699 4.81833048 144.40326 4.76531678 144.346603 4.73880993 144.279753 4.73880993 144.202384L4.73880993 142.487973C4.73880993 142.410603 4.76531678 142.343753 4.81833048 142.287096 4.87134418 142.230548 4.93411815 142.202384 5.0066524 142.202384L15.1852825 142.202384C15.2579195 142.202384 15.320488 142.230658 15.3737072 142.287096zM15.1852825 146.773781C15.2579195 146.773781 15.320488 146.802055 15.3737072 146.858603 15.4266182 146.915041 15.453125 146.98211 15.453125 147.059479L15.453125 148.77389C15.453125 148.851151 15.4267209 148.91811 15.3737072 148.974658 15.3205908 149.031315 15.2579195 149.059479 15.1852825 149.059479L5.0066524 149.059479C4.93411815 149.059479 4.87134418 149.031315 4.81833048 148.974658 4.76531678 148.91811 4.73880993 148.851151 4.73880993 148.77389L4.73880993 147.059479C4.73880993 146.98211 4.76531678 146.915151 4.81833048 146.858603 4.87134418 146.801945 4.93411815 146.773781 5.0066524 146.773781L15.1852825 146.773781zM15.1852825 151.345178C15.2579195 151.345178 15.320488 151.373562 15.3737072 151.43 15.4266182 151.486438 15.453125 151.553507 15.453125 151.630767L15.453125 153.345178C15.453125 153.422658 15.4267209 153.489507 15.3737072 153.546164 15.3205908 153.602603 15.2579195 153.630767 15.1852825 153.630767L5.0066524 153.630767C4.93411815 153.630767 4.87134418 153.602603 4.81833048 153.546164 4.76531678 153.489507 4.73880993 153.422658 4.73880993 153.345178L4.73880993 151.630767C4.73880993 151.553507 4.76531678 151.486548 4.81833048 151.43 4.87134418 151.373452 4.93411815 151.345178 5.0066524 151.345178L15.1852825 151.345178zM.7625 143.98L1.4 143.98 1.4 142.34.8375 142.34.8375 141.81C1.00625084 141.773333 1.14999941 141.731667 1.26875 141.685 1.38750059 141.638333 1.50312444 141.576667 1.615625 141.5L2.20625 141.5 2.20625 143.98 2.740625 143.98 2.740625 144.67.7625 144.67.7625 143.98zM.621875 148.68C.796875875 148.506666.960155492 148.343334 1.11171875 148.19 1.26328201 148.036666 1.39531194 147.892501 1.5078125 147.7575 1.62031306 147.622499 1.70859343 147.494167 1.77265625 147.3725 1.83671907 147.250833 1.86875 147.136667 1.86875 147.03 1.86875 146.886666 1.83515659 146.780834 1.76796875 146.7125 1.70078091 146.644166 1.61250055 146.61 1.503125 146.61 1.4031245 146.61 1.31484413 146.640833 1.23828125 146.7025 1.16171837 146.764167 1.08750036 146.833333 1.015625 146.91L.584375 146.45C.662500391 146.363333.739062125 146.2875.8140625 146.2225.889062875 146.1575.967968336 146.104167 1.05078125 146.0625 1.13359416 146.020833 1.22109329 145.99 1.31328125 145.97 1.40546921 145.95 1.50624945 145.94 1.615625 145.94 1.76562575 145.94 1.90312437 145.965 2.028125 146.015 2.15312562 146.065 2.26093705 146.135 2.3515625 146.225 2.44218795 146.315 2.51249975 146.424166 2.5625 146.5525 2.61250025 146.680834 2.6375 146.823333 2.6375 146.98 2.6375 147.106667 2.61171901 147.235833 2.56015625 147.3675 2.50859349 147.499167 2.44218791 147.629999 2.3609375 147.76 2.27968709 147.890001 2.18828176 148.016666 2.08671875 148.14 1.98515574 148.263334 1.8843755 148.379999 1.784375 148.49 1.85937537 148.48 1.94453077 148.470833 2.03984375 148.4625 2.13515673 148.454167 2.21562467 148.45 2.28125 148.45L2.778125 148.45 2.778125 149.17.621875 149.17.621875 148.68zM.9125 152.74C1.00312545 152.83 1.10078073 152.9025 1.20546875 152.9575 1.31015677 153.0125 1.41562447 153.04 1.521875 153.04 1.65312566 153.04 1.75781211 153.015 1.8359375 152.965 1.91406289 152.915 1.953125 152.840001 1.953125 152.74 1.953125 152.68 1.94375009 152.626667 1.925 152.58 1.90624991 152.533333 1.87031277 152.493334 1.8171875 152.46 1.76406223 152.426667 1.68906298 152.401667 1.5921875 152.385 1.49531202 152.368333 1.36875078 152.36 1.2125 152.36L1.2125 151.76C1.33750063 151.76 1.44140584 151.751667 1.52421875 151.735 1.60703166 151.718333 1.67343725 151.694167 1.7234375 151.6625 1.77343775 151.630833 1.80859365 151.593334 1.82890625 151.55 1.84921885 151.506666 1.859375 151.456667 1.859375 151.4 1.859375 151.206666 1.75625103 151.11 1.55 151.11 1.4499995 151.11 1.36093789 151.131666 1.2828125 151.175 1.20468711 151.218334 1.11875047 151.283333 1.025 151.37L.621875 150.85C.768750734 150.719999.920311719 150.619167 1.0765625 150.5475 1.23281328 150.475833 1.40312408 150.44 1.5875 150.44 1.91562664 150.44 2.17734277 150.517499 2.37265625 150.6725 2.56796973 150.827501 2.665625 151.048332 2.665625 151.335 2.665625 151.641668 2.50625159 151.869999 2.1875 152.02L2.1875 152.04C2.35625084 152.096667 2.49374947 152.187499 2.6 152.3125 2.70625053 152.437501 2.759375 152.599999 2.759375 152.8 2.759375 152.950001 2.72812531 153.082499 2.665625 153.1975 2.60312469 153.312501 2.51953177 153.41 2.41484375 153.49 2.31015573 153.57 2.1875007 153.63 2.046875 153.67 1.9062493 153.71 1.75937577 153.73 1.60625 153.73 1.36249878 153.73 1.15312588 153.69.978125 153.61.803124125 153.53.659375563 153.420001.546875 153.28L.9125 152.74zM2.10715753 166.071507C2.55366438 166.071507 2.93308219 166.238192 3.2455137 166.571452 3.55804795 166.904712 3.71431507 167.309425 3.71431507 167.785699 3.71431507 168.261863 3.55804795 168.666685 3.24561644 168.999945 2.93308219 169.333205 2.55366438 169.49989 2.10726027 169.49989 1.66085616 169.49989 1.28133562 169.333205.96880137 168.999945.656267123 168.666685.5 168.261863.5 167.785699.5 167.309425.656267123 166.904712.96869863 166.571452 1.28123288 166.238082 1.66065068 166.071507 2.10715753 166.071507zM2.10726027 161.5C2.55376712 161.5 2.93318493 161.666685 3.24561644 161.999945 3.55804795 162.333315 3.71431507 162.738027 3.71431507 163.214192 3.71431507 163.690466 3.55804795 164.095178 3.24561644 164.428548 2.93308219 164.761808 2.55366438 164.928493 2.10726027 164.928493 1.66085616 164.928493 1.28133562 164.761808.96880137 164.428548.656267123 164.095178.50010274 163.690466.50010274 163.214192.50010274 162.738027.656369863 162.333315.96880137 161.999945 1.28133562 161.666685 1.66075342 161.5 2.10726027 161.5zM2.10726027 170.642904C2.55376712 170.642904 2.93318493 170.809589 3.24561644 171.142849 3.55804795 171.47611 3.71431507 171.880932 3.71431507 172.357096 3.71431507 172.833479 3.55804795 173.238082 3.24561644 173.571452 2.93308219 173.904712 2.55366438 174.071397 2.10726027 174.071397 1.66085616 174.071397 1.28133562 173.904712.96880137 173.571452.656267123 173.238082.50010274 172.833479.50010274 172.357096.50010274 171.880932.656369863 171.476219.96880137 171.142849 1.28123288 170.809479 1.66075342 170.642904 2.10726027 170.642904zM15.4205822 162.156219C15.4734932 162.212767 15.5 162.279726 15.5 162.357096L15.5 164.071507C15.5 164.148877 15.4735959 164.215726 15.4205822 164.272384 15.3674658 164.328932 15.3047945 164.357096 15.2321575 164.357096L5.0535274 164.357096C4.98099315 164.357096 4.91821918 164.328822 4.86520548 164.272384 4.81219178 164.215726 4.78568493 164.148877 4.78568493 164.071507L4.78568493 162.357096C4.78568493 162.279726 4.81219178 162.212877 4.86520548 162.156219 4.91821918 162.099671 4.98099315 162.071507 5.0535274 162.071507L15.2321575 162.071507C15.3047945 162.071507 15.367363 162.099781 15.4205822 162.156219zM15.2321575 166.642904C15.3047945 166.642904 15.367363 166.671178 15.4205822 166.727726 15.4734932 166.784164 15.5 166.851233 15.5 166.928603L15.5 168.643014C15.5 168.720274 15.4735959 168.787233 15.4205822 168.843781 15.3674658 168.900438 15.3047945 168.928603 15.2321575 168.928603L5.0535274 168.928603C4.98099315 168.928603 4.91821918 168.900438 4.86520548 168.843781 4.81219178 168.787233 4.78568493 168.720274 4.78568493 168.643014L4.78568493 166.928603C4.78568493 166.851233 4.81219178 166.784274 4.86520548 166.727726 4.91821918 166.671068 4.98099315 166.642904 5.0535274 166.642904L15.2321575 166.642904zM15.2321575 171.214301C15.3047945 171.214301 15.367363 171.242685 15.4205822 171.299123 15.4734932 171.355562 15.5 171.42263 15.5 171.49989L15.5 173.214301C15.5 173.291781 15.4735959 173.35863 15.4205822 173.415288 15.3674658 173.471726 15.3047945 173.49989 15.2321575 173.49989L5.0535274 173.49989C4.98099315 173.49989 4.91821918 173.471726 4.86520548 173.415288 4.81219178 173.35863 4.78568493 173.291781 4.78568493 173.214301L4.78568493 171.49989C4.78568493 171.42263 4.81219178 171.355671 4.86520548 171.299123 4.91821918 171.242575 4.98099315 171.214301 5.0535274 171.214301L15.2321575 171.214301zM.767945205 191.142795C.695410959 191.142795.632636986 191.114411.579623288 191.058082.526609589 191.001425.50010274 190.934575.50010274 190.857096L.50010274 185.714301C.50010274 185.636932.526609589 185.569973.579623288 185.513315.632636986 185.456767.695410959 185.428603.767945205 185.428603.846130137 185.428603.910239726 185.455342.960479452 185.508932L3.37116438 188.080329C3.42130137 188.133918 3.4464726 188.202301 3.4464726 188.285699 3.4464726 188.369096 3.42130137 188.437479 3.37116438 188.491068L.960479452 191.062466C.910239726 191.116055.846130137 191.142795.767945205 191.142795zM15.2321575 192.285699C15.3047945 192.285699 15.3674658 192.313973 15.4205822 192.370411 15.4734932 192.427068 15.5 192.493918 15.5 192.571397L15.5 194.285699C15.5 194.363068 15.4735959 194.429918 15.4205822 194.486575 15.3674658 194.543123 15.3047945 194.571397 15.2321575 194.571397L.767842466 194.571397C.695308219 194.571397.632534247 194.543233.579520548 194.486575.526506849 194.429918.5 194.363068.5 194.285699L.5 192.571397C.5 192.493918.526506849 192.426959.579520548 192.370411.632534247 192.313863.695308219 192.285699.767842466 192.285699L15.2321575 192.285699zM15.2321575 188.857096C15.3047945 188.857096 15.3674658 188.885479 15.4205822 188.941918 15.4734932 188.998466 15.5 189.065425 15.5 189.142795L15.5 190.857096C15.5 190.934575 15.4735959 191.001425 15.4205822 191.058082 15.3674658 191.11463 15.3047945 191.142685 15.2321575 191.142685L6.125 191.142685C6.05246575 191.142685 5.98969178 191.114521 5.93667808 191.058082 5.88366438 191.001425 5.85715753 190.934575 5.85715753 190.857096L5.85715753 189.142795C5.85715753 189.065425 5.88366438 188.998356 5.93667808 188.941918 5.98969178 188.885479 6.05246575 188.857096 6.125 188.857096L15.2321575 188.857096zM15.2321575 185.428603C15.3047945 185.428603 15.3674658 185.456877 15.4205822 185.513315 15.4734932 185.569973 15.5 185.636932 15.5 185.714301L15.5 187.428603C15.5 187.505973 15.4735959 187.572932 15.4205822 187.629479 15.3674658 187.686027 15.3047945 187.714301 15.2321575 187.714301L6.125 187.714301C6.05246575 187.714301 5.98969178 187.685918 5.93667808 187.629479 5.88366438 187.572932 5.85715753 187.505973 5.85715753 187.428603L5.85715753 185.714301C5.85715753 185.636932 5.88366438 185.569973 5.93667808 185.513315 5.98969178 185.456767 6.05246575 185.428603 6.125 185.428603L15.2321575 185.428603zM15.4205822 182.084822C15.4734932 182.14137 15.5 182.208329 15.5 182.285699L15.5 184C15.5 184.07737 15.4735959 184.144329 15.4205822 184.200877 15.3674658 184.257534 15.3047945 184.285699 15.2321575 184.285699L.767842466 184.285699C.695308219 184.285699.632534247 184.257425.579520548 184.200877.526506849 184.144329.5 184.07737.5 184L.5 182.285699C.5 182.208329.526506849 182.14137.579520548 182.084822.632534247 182.028274.695308219 182 .767842466 182L15.2321575 182C15.3047945 182 15.3674658 182.028384 15.4205822 182.084822z"/>
    <g transform="translate(.5 242)">
      <mask id="ckeditor-e" fill="#fff">
        <use xlink:href="#ckeditor-d"/>
      </mask>
      <use fill="#2A495D" xlink:href="#ckeditor-d"/>
      <g fill="#2A495D" mask="url(#ckeditor-e)">
        <rect width="15" height="16" transform="translate(-15 -2)"/>
      </g>
    </g>
    <path fill="#2A495D" d="M15.2321575,212.285699 C15.3047945,212.285699 15.3674658,212.313973 15.4205822,212.370411 C15.4734932,212.427068 15.5,212.493918 15.5,212.571397 L15.5,214.285699 C15.5,214.363068 15.4735959,214.429918 15.4205822,214.486575 C15.3674658,214.543123 15.3047945,214.571397 15.2321575,214.571397 L0.767842466,214.571397 C0.695308219,214.571397 0.632534247,214.543233 0.579520548,214.486575 C0.526506849,214.429918 0.5,214.363068 0.5,214.285699 L0.5,212.571397 C0.5,212.493918 0.526506849,212.426959 0.579520548,212.370411 C0.632534247,212.313863 0.695308219,212.285699 0.767842466,212.285699 L15.2321575,212.285699 Z M3.4464726,211.142685 C3.36828767,211.142685 3.30417808,211.116055 3.25393836,211.062466 L0.843253425,208.491068 C0.793013699,208.437479 0.767945205,208.369096 0.767945205,208.285699 C0.767945205,208.202301 0.793116438,208.133918 0.843253425,208.080329 L3.25393836,205.508932 C3.30417808,205.455342 3.36828767,205.428603 3.4464726,205.428603 C3.51900685,205.428603 3.58178082,205.456877 3.63479452,205.513315 C3.68780822,205.569973 3.71431507,205.636932 3.71431507,205.714301 L3.71431507,210.857096 C3.71431507,210.934575 3.68780822,211.001425 3.63479452,211.058082 C3.58178082,211.11463 3.51900685,211.142685 3.4464726,211.142685 Z M15.2321575,205.428603 C15.3047945,205.428603 15.3674658,205.456877 15.4205822,205.513315 C15.4734932,205.569973 15.5,205.636932 15.5,205.714301 L15.5,207.428603 C15.5,207.505973 15.4735959,207.572932 15.4205822,207.629479 C15.3674658,207.686027 15.3047945,207.714301 15.2321575,207.714301 L6.125,207.714301 C6.05246575,207.714301 5.98969178,207.685918 5.93667808,207.629479 C5.88366438,207.572932 5.85715753,207.505973 5.85715753,207.428603 L5.85715753,205.714301 C5.85715753,205.636932 5.88366438,205.569973 5.93667808,205.513315 C5.98969178,205.456767 6.05246575,205.428603 6.125,205.428603 L15.2321575,205.428603 Z M15.2321575,208.857096 C15.3047945,208.857096 15.3674658,208.885479 15.4205822,208.941918 C15.4734932,208.998466 15.5,209.065425 15.5,209.142795 L15.5,210.857096 C15.5,210.934575 15.4735959,211.001425 15.4205822,211.058082 C15.3674658,211.11463 15.3047945,211.142685 15.2321575,211.142685 L6.125,211.142685 C6.05246575,211.142685 5.98969178,211.114521 5.93667808,211.058082 C5.88366438,211.001425 5.85715753,210.934575 5.85715753,210.857096 L5.85715753,209.142795 C5.85715753,209.065425 5.88366438,208.998356 5.93667808,208.941918 C5.98969178,208.885479 6.05246575,208.857096 6.125,208.857096 L15.2321575,208.857096 Z M15.4205822,202.084822 C15.4734932,202.14137 15.5,202.208329 15.5,202.285699 L15.5,204 C15.5,204.07737 15.4735959,204.144329 15.4205822,204.200877 C15.3674658,204.257534 15.3047945,204.285699 15.2321575,204.285699 L0.767842466,204.285699 C0.695308219,204.285699 0.632534247,204.257425 0.579520548,204.200877 C0.526506849,204.144329 0.5,204.07737 0.5,204 L0.5,202.285699 C0.5,202.208329 0.526506849,202.14137 0.579520548,202.084822 C0.632534247,202.028274 0.695308219,202 0.767842466,202 L15.2321575,202 C15.3047945,202 15.3674658,202.028384 15.4205822,202.084822 Z"/>
    <g transform="matrix(-1 0 0 1 15.5 261)">
      <mask id="ckeditor-g" fill="#fff">
        <use xlink:href="#ckeditor-f"/>
      </mask>
      <use fill="#2A495D" xlink:href="#ckeditor-f"/>
      <g fill="#2A495D" mask="url(#ckeditor-g)">
        <rect width="15" height="16" transform="translate(0 -1)"/>
      </g>
    </g>
    <g transform="translate(.5 221)">
      <mask id="ckeditor-i" fill="#fff">
        <use xlink:href="#ckeditor-h"/>
      </mask>
      <use fill="#2A495D" xlink:href="#ckeditor-h"/>
      <g fill="#2A495D" mask="url(#ckeditor-i)">
        <rect width="15" height="16" transform="translate(0 -1)"/>
      </g>
    </g>
    <g transform="translate(.5 282)">
      <mask id="ckeditor-k" fill="#fff">
        <use xlink:href="#ckeditor-j"/>
      </mask>
      <use fill="#2A495D" xlink:href="#ckeditor-j"/>
      <g fill="#2A495D" mask="url(#ckeditor-k)">
        <rect width="15" height="16" transform="translate(0 -2)"/>
      </g>
    </g>
    <g transform="translate(.5 300)">
      <mask id="ckeditor-m" fill="#fff">
        <use xlink:href="#ckeditor-l"/>
      </mask>
      <use fill="#2A495D" xlink:href="#ckeditor-l"/>
      <g fill="#2A495D" mask="url(#ckeditor-m)">
        <rect width="15" height="16"/>
      </g>
    </g>
    <g transform="translate(.5 320)">
      <mask id="ckeditor-o" fill="#fff">
        <use xlink:href="#ckeditor-n"/>
      </mask>
      <use fill="#2A495D" xlink:href="#ckeditor-n"/>
      <g fill="#2A495D" mask="url(#ckeditor-o)">
        <rect width="15" height="16"/>
      </g>
    </g>
    <use fill="#2A495D" transform="matrix(-1 0 0 1 16 0)" xlink:href="#ckeditor-p"/>
    <path fill="#2A495D" fill-rule="nonzero" d="M1.4375,367 L1.4375,365 L14.5625,365 L14.5625,367 L1.4375,367 Z M3.3125,364 L3.3125,363 L12.6875,363 L12.6875,364 L3.3125,364 Z M3.3125,362 L3.3125,361 L12.6875,361 L12.6875,362 L3.3125,362 Z M3.3125,369 L3.3125,368 L12.6875,368 L12.6875,369 L3.3125,369 Z M3.3125,371 L3.3125,370 L12.6875,370 L12.6875,371 L3.3125,371 Z M3.3125,373 L3.3125,372 L12.6875,372 L12.6875,373 L3.3125,373 Z M3.3125,375 L3.3125,374 L12.6875,374 L12.6875,375 L3.3125,375 Z"/>
    <use fill="#2A495D" xlink:href="#ckeditor-q"/>
  </g>
</svg>
