<svg xmlns="http://www.w3.org/2000/svg" xmlns:xlink="http://www.w3.org/1999/xlink" width="83" height="85" viewBox="0 0 83 85">
  <defs>
    <polygon id="discover-icon-a" points=".056 .107 42.076 .107 42.076 43.589 .056 43.589"/>
  </defs>
  <g fill="none" fill-rule="evenodd" transform="translate(.28 .849)">
    <path fill="#031023" fill-opacity=".522" d="M41.321275,0 C64.1423319,0 82.64255,18.8040945 82.64255,42 C82.64255,65.1959055 64.1423319,84 41.321275,84 C18.5002181,84 0,65.1959055 0,42 C0,18.8040945 18.5002181,0 41.321275,0"/>
    <path fill="#FFF" fill-opacity=".56" d="M45.0216044,8.26255698 C43.8095119,8.12631849 42.5708421,8.05132075 41.3400149,8.05132075 L41.3212801,8.05132075 L41.3212801,6.72 L41.3400149,6.72 C42.6174611,6.72 43.9031854,6.81052981 45.1610256,6.95164981 L45.0216044,8.26255698 Z M33.8700914,8.91889811 L33.5860208,7.65148075 C34.8412468,7.35903396 36.1282782,7.13581585 37.4118241,6.98803925 L37.5556022,8.27942038 C36.3191109,8.4218717 35.0795698,8.63710189 33.8700914,8.91889811 Z M52.3033094,9.94179623 C51.1299933,9.52598038 49.9200792,9.17406792 48.7079866,8.89537811 L48.9885717,7.62707321 C50.2477189,7.91641358 51.5038163,8.28208302 52.7228799,8.71387472 L52.3033094,9.94179623 Z M26.8284522,11.4395321 L26.2729461,10.2693011 C27.4371126,9.69550189 28.6426698,9.18427472 29.8569409,8.75026415 L30.2799969,9.97641057 C29.1106021,10.3948891 27.9494853,10.887034 26.8284522,11.4395321 Z M59.0347365,13.23504 C57.9807998,12.5618355 56.8793727,11.9423275 55.7605181,11.3951547 L56.31341,10.2231487 C57.4749624,10.7916226 58.6190872,11.4342068 59.7131075,12.133594 L59.0347365,13.23504 Z M20.5179027,15.4978415 L19.720588,14.4829313 C20.7265987,13.6619502 21.7901206,12.8902279 22.8806554,12.1895094 L23.5620762,13.2882928 C22.511625,13.96416 21.4873153,14.707037 20.5179027,15.4978415 Z M64.8773538,17.9701042 C63.9959508,17.0750128 63.0566008,16.2225238 62.0858811,15.436157 L62.8805816,14.4185842 C63.8883351,15.2351275 64.862976,16.1200121 65.7787987,17.0488302 L64.8773538,17.9701042 Z M15.2447336,20.8812589 L14.2465653,20.0713721 C15.0491083,19.0449238 15.918312,18.0522023 16.8302134,17.1216091 L17.7338367,18.0393328 C16.8559192,18.9361992 16.0185209,19.8925313 15.2447336,20.8812589 Z M69.545348,23.9038008 C68.8822262,22.835194 68.1515722,21.792326 67.3747351,20.804486 L68.3702892,19.9914928 C69.177189,21.0170536 69.9357272,22.0994174 70.6245548,23.2088513 L69.545348,23.9038008 Z M11.2742808,27.3221887 L10.1236207,26.75904 C10.6826123,25.5754958 11.3143644,24.411034 12.0014492,23.2967185 L13.0819631,23.9885615 C12.420584,25.0611623 11.8119236,26.1830219 11.2742808,27.3221887 Z M72.8008317,30.7445706 C72.388668,29.5525947 71.9046152,28.3699381 71.3621798,27.2298838 L72.5110971,26.6631849 C73.0744457,27.8467291 73.5767975,29.0742068 74.0046462,30.3127789 L72.8008317,30.7445706 Z M8.81611177,34.5042204 L7.57134237,34.2170989 C7.85628433,32.9341494 8.21572947,31.6547502 8.64052826,30.414403 L9.84564978,30.8426445 C9.43697155,32.0363955 9.09059715,33.2683109 8.81611177,34.5042204 Z M74.4703999,38.1542581 C74.3301074,36.89616 74.1179258,35.6336242 73.8408263,34.4008211 L75.0847243,34.1105932 C75.3727161,35.3904362 75.5927401,36.7017872 75.7382609,38.0078128 L74.4703999,38.1542581 Z M6.99710153,42.0541404 L6.720002,42.0483713 C6.71956631,40.7228196 6.79014827,39.4079185 6.92956941,38.1165374 L8.19830182,38.2589887 C8.06410897,39.5024423 7.99614116,40.7703034 7.99614116,42.0261826 L6.99710153,42.0541404 Z M75.8541548,45.9722174 L74.6237632,45.8279909 C74.7614416,44.5747743 74.8694929,43.2953751 74.8694929,42.0261826 L74.8694929,41.7781132 L76.1765662,41.7781132 L76.1765662,42.0261826 C76.1765662,43.3437464 75.9961901,44.6710732 75.8541548,45.9722174 Z M7.58746294,49.906714 C7.30034252,48.6268709 7.08206129,47.31552 6.93741185,46.0090506 L8.20614426,45.8630491 C8.34469402,47.1220347 8.55556851,48.3850143 8.83179665,49.6169298 L7.58746294,49.906714 Z M74.0277378,53.6725766 L72.823052,53.2434475 C73.2330373,52.0496966 73.5807187,50.8182249 73.8560755,49.5827592 L75.1008449,49.8707683 C74.8145959,51.1537177 74.453408,52.4326732 74.0277378,53.6725766 Z M10.1541191,57.3567849 C9.59207757,56.172797 9.09059715,54.9439879 8.66405558,53.7049721 L9.86787002,53.2745117 C10.2795981,54.4678189 10.7619081,55.6509192 11.3026007,56.7909736 L10.1541191,57.3567849 Z M70.6594101,60.7867109 L69.5793319,60.0944242 C70.242018,59.0218234 70.8515498,57.9004075 71.3904997,56.7616845 L72.5402884,57.3270521 C71.9804254,58.5092649 71.347802,59.6737268 70.6594101,60.7867109 Z M14.2870846,64.0324709 C13.4810561,63.0060226 12.7242607,61.9232151 12.0367402,60.8124498 L13.1163827,60.1192755 C13.7786331,61.1887698 14.50798,62.2320815 15.2835101,63.2203653 L14.2870846,64.0324709 Z M65.8245462,66.9564951 L64.9217943,66.03744 C65.8001475,65.1423487 66.6384171,64.1873479 67.4139473,63.1981766 L68.4112441,64.0093947 C67.6065227,65.035843 66.7364476,66.0272332 65.8245462,66.9564951 Z M19.7711282,69.6111487 C18.7625033,68.7919426 17.7887338,67.9057268 16.875961,66.9777962 L17.7782772,66.0578536 C18.6570661,66.9520574 19.5959804,67.8058777 20.5667001,68.5944634 L19.7711282,69.6111487 Z M59.768876,71.8828257 L59.0887622,70.7831547 C60.1392134,70.1090626 61.1639588,69.3666294 62.1346785,68.5767125 L62.9311218,69.5925102 C61.923804,70.4126038 60.8598464,71.1834385 59.768876,71.8828257 Z M26.3343785,73.8132408 C25.1723904,73.2434355 24.029137,72.59952 22.9364238,71.8992453 L23.6156662,70.7986868 C24.6682959,71.4727789 25.7692872,72.0931743 26.8885776,72.6421223 L26.3343785,73.8132408 Z M52.7899763,75.3149706 L52.3677917,74.0874928 C53.5384936,73.6703457 54.700046,73.1790883 55.8202077,72.6279215 L56.3752782,73.79904 C55.211983,74.3710642 54.0055544,74.88096 52.7899763,75.3149706 Z M33.6557314,76.4168604 C32.3961485,76.1261887 31.1404868,75.7591879 29.9222945,75.3256211 L30.3436078,74.0981434 C31.5160525,74.5157343 32.7250952,74.8689781 33.9376235,75.1489992 L33.6557314,76.4168604 Z M45.2320432,77.0687638 L45.0900079,75.7764951 C46.3269349,75.6349313 47.5669117,75.4214762 48.7755187,75.1410113 L49.0591536,76.4093162 C47.8039276,76.6999879 46.5164605,76.9218747 45.2320432,77.0687638 Z M41.3574425,77.28 L41.3400149,77.28 C40.0516763,77.28 38.7541883,77.2116589 37.4837131,77.06832 L37.6240057,75.7782702 C38.8482976,75.9162838 40.0982953,75.9877313 41.3400149,75.9877313 L41.3888123,75.9855125 L41.3574425,77.28 Z"/>
    <g transform="translate(8.4 16.8)">
      <g transform="translate(10.74 .04)">
        <mask id="discover-icon-b" fill="#fff">
          <use xlink:href="#discover-icon-a"/>
        </mask>
        <path fill="red" d="M36.3012063,34.95844 C29.3035828,42.207 18.3566803,42.8681733 10.6308209,36.9272933 L4.54530612,43.2305867 C4.1077551,43.68364 3.39011338,43.71972 2.95270748,43.2668133 L0.379501134,40.601 C-0.0579047619,40.1480933 -0.0491972789,39.3778 0.388063492,38.9246 L6.4792381,32.6151467 C0.826485261,24.6636133 1.44152381,13.3182133 8.42550567,6.08402667 C16.1226304,-1.88877333 28.6071293,-1.88393333 36.3043991,6.08916 C44.0016689,14.0622533 43.9984762,26.98564 36.3012063,34.95844 Z M12.5373243,30.7147867 C17.9593288,36.33124 26.7818957,36.33124 32.2040454,30.7149333 C37.6260499,25.0983333 37.6260499,15.9598267 32.2040454,10.3433733 C26.7818957,4.72692 17.9593288,4.72706667 12.5373243,10.3436667 C7.11531973,15.9598267 7.11531973,25.0981867 12.5373243,30.7147867 Z" mask="url(#discover-icon-b)"/>
      </g>
      <path fill="#000" fill-opacity=".177" d="M11.2203175,38.9643467 C10.7829116,39.4175467 10.7280544,40.18784 11.1650249,40.6407467 L13.7153016,43.30656 C14.1527075,43.7594667 14.9517642,43.7233867 15.3893152,43.2703333 L16.5700499,42.13132 L16.5700499,33.5190533 L11.2203175,38.9643467 Z"/>
      <path fill="#FFF" fill-opacity=".729" d="M43.6031565,31.4378533 C37.8078912,37.44092 28.4119365,37.44092 22.6166712,31.4378533 C16.821551,25.4349333 16.821551,15.7024267 22.6169615,9.6998 C28.4120816,3.69688 37.8078912,3.69688 43.6031565,9.6998 C49.3982766,15.70228 49.3982766,25.4349333 43.6031565,31.4378533"/>
      <path fill="#FFF" fill-opacity=".073" d="M23.2765533,30.7545333 C17.8545488,25.1379333 17.8545488,15.9995733 23.2765533,10.3834133 C28.6985578,4.76681333 37.5211247,4.76666667 42.9432744,10.38312 C48.3652789,15.9995733 48.3652789,25.13808 42.9432744,30.75468 C37.5211247,36.3709867 28.6985578,36.3709867 23.2765533,30.7545333"/>
      <path fill="#FBFFFF" d="M45.6740862,6.76118667 C42.5446168,3.97452 38.6488889,2.34226667 34.5299592,2.08384 C30.4596463,1.82834667 26.32722,3.04670667 22.9757098,5.44294667 C22.2376054,5.97050667 22.9249161,7.23462667 23.6670839,6.70398667 C26.7861043,4.47406667 30.4921542,3.36570667 34.2780227,3.52058667 C38.085805,3.67634667 41.7986757,5.21664 44.6843356,7.78638667 C45.3646803,8.39197333 46.35922,7.37117333 45.6740862,6.76118667"/>
      <path fill="#FFF" d="M43.0402177 28.29508C40.7810612 30.6351467 37.1181134 30.6351467 34.8589569 28.29508 32.5998005 25.9548667 32.5998005 22.1611867 34.8589569 19.8209733 37.1181134 17.4806133 40.7810612 17.4806133 43.0402177 19.8209733 45.2993741 22.1611867 45.2993741 25.9548667 43.0402177 28.29508M42.7776871 15.4494267C42.1575692 16.0915333 41.1524354 16.0915333 40.5324626 15.4491333 39.9124898 14.8070267 39.9124898 13.7659867 40.5324626 13.1237333 41.1524354 12.48148 42.1575692 12.48148 42.777542 13.1240267 43.3973696 13.7661333 43.3976599 14.8071733 42.7776871 15.4494267M12.1614512 37.0727867L0 49.6701333C1.50581406 51.73476 3.21262585 53.63292 5.09097506 55.33308L17.4403628 42.5412533C18.8921905 41.03748 13.613424 35.5693067 12.1614512 37.0727867"/>
      <path fill="#FFF" d="M17.3783946,42.5414 C18.8300771,41.03748 13.5906395,35.5693067 12.1388118,37.0729333 L8.1526712,41.2431067 L8.1526712,52.1793067 L17.3783946,42.5414 Z"/>
      <path fill="#CACACA" d="M18.2321633,43.7714933 C17.8679002,44.1490133 17.2769524,44.1490133 16.9125442,43.7714933 L10.9077188,37.55136 C10.5433107,37.1739867 10.5433107,36.5618 10.9077188,36.1844267 L12.4254331,34.6123067 C12.7898413,34.2349333 13.3807891,34.2349333 13.7450522,34.6123067 L19.7498776,40.83244 C20.114576,41.20996 20.114576,41.8218533 19.7498776,42.19952 L18.2321633,43.7714933 Z"/>
    </g>
  </g>
</svg>
