<svg xmlns="http://www.w3.org/2000/svg" width="13" height="13" viewBox="0 0 13 13">
  <path fill="#29495E" fill-rule="evenodd" d="M792,589.819059 C792,589.661763 792.030885,589.513085 792.086908,589.362971 C792.276526,588.894672 792.725432,588.587262 793.224615,588.587262 L795.879983,588.587262 L795.879983,584.46882 C795.879983,583.657198 796.5458,583 797.357422,583 L799.644328,583 C800.458104,583 801.12033,583.657198 801.12033,584.46882 L801.12033,588.587262 L803.769952,588.587262 C804.282064,588.587262 804.738152,588.906164 804.919151,589.381645 C805.10015,589.857126 804.970865,590.394377 804.59522,590.731954 L801.695648,593.332017 L799.351282,595.581574 C798.888011,596.031916 798.157552,596.044126 797.674888,595.613177 L795.230686,593.400969 L792.382827,590.712561 C792.132158,590.475539 792,590.15089 792,589.819059 Z" transform="translate(-792 -583)"/>
</svg>
