<svg xmlns="http://www.w3.org/2000/svg" width="25" height="26" viewBox="0 0 25 26">
  <path fill="#29495E" fill-rule="evenodd" d="M810.638818,664.30021 C811.162256,662.866177 811.467432,661.336147 811.537354,659.798257 L815.510596,659.798257 C815.405615,661.413833 814.956348,662.945718 814.235693,664.30021 L810.638818,664.30021 Z M806.984619,669.884585 C808.229297,668.702456 809.246631,667.30856 810.012891,665.755288 L813.302588,665.755288 C811.76543,667.797769 809.543457,669.297915 806.984619,669.884585 Z M805.281299,669.432534 L805.281299,665.755288 L808.344629,665.755288 C807.559473,667.14103 806.526562,668.395571 805.281299,669.432534 Z M810.070703,659.798257 C809.992188,661.364614 809.644971,662.891226 809.060156,664.30021 L805.28125,664.30021 L805.28125,659.798257 L810.070703,659.798257 Z M805.28125,653.948647 L809.060156,653.948647 C809.632812,655.328335 809.977588,656.811392 810.06543,658.343179 L805.28125,658.343179 L805.28125,653.948647 Z M805.281299,648.816323 C806.526562,649.853237 807.559473,651.098062 808.344629,652.483804 L805.281299,652.483804 L805.281299,648.816323 Z M813.332373,652.483804 L810.012939,652.483804 C809.246484,650.930239 808.228467,649.544888 806.981299,648.361099 C809.557861,648.945767 811.793408,650.438394 813.332373,652.483804 Z M814.262939,653.948647 C814.966553,655.276431 815.405713,656.764663 815.510156,658.343179 L811.532227,658.343179 C811.454053,656.838638 811.151123,655.35231 810.63877,653.948647 L814.262939,653.948647 Z M803.816455,652.483804 L800.753516,652.483804 C801.538672,651.098062 802.571191,649.852944 803.816455,648.81603 L803.816455,652.483804 Z M803.816455,658.343179 L799.032324,658.343179 C799.120166,656.811294 799.465723,655.328433 800.038477,653.948647 L803.816455,653.948647 L803.816455,658.343179 Z M803.816455,669.432778 C802.571143,668.395913 801.538623,667.150796 800.753418,665.765054 L803.816406,665.765054 L803.816406,669.432778 L803.816455,669.432778 Z M799.027393,659.808022 L803.816357,659.808022 L803.816357,664.30021 L800.038379,664.30021 C799.453516,662.891128 799.105957,661.374478 799.027393,659.808022 Z M795.717236,665.765054 L799.084766,665.765054 C799.851807,667.319839 800.870947,668.706265 802.119629,669.890737 C799.526221,669.30856 797.273779,667.815005 795.717236,665.765054 Z M794.775928,664.30021 C794.048877,662.945718 793.595605,661.423599 793.489697,659.808022 L797.5604,659.808022 C797.630322,661.345913 797.935498,662.866177 798.458936,664.30021 L794.775928,664.30021 Z M794.74834,653.938882 L798.458838,653.938882 C797.946484,655.342544 797.643555,656.838638 797.565381,658.343179 L793.490088,658.343179 C793.59541,656.764663 794.038525,655.266665 794.74834,653.938882 Z M802.1229,648.355044 C800.873828,649.539224 799.853271,650.926138 799.084766,652.483804 L795.687256,652.483804 C797.24541,650.431069 799.511572,648.93522 802.1229,648.355044 Z M804.56333,646.624624 C804.562451,646.624624 804.561621,646.624624 804.560742,646.624575 C804.556738,646.624575 804.552783,646.624429 804.548828,646.624429 L804.54707,646.624429 C804.545508,646.624429 804.543896,646.624478 804.542334,646.624478 C797.653613,646.627993 792,652.20314 792,659.075601 C792,660.756069 792.334717,662.392593 792.994922,663.939761 C794.273096,666.935269 796.682764,669.34855 799.684619,670.629458 C801.231592,671.289565 802.86792,671.624331 804.548145,671.62438 C804.548584,671.62438 804.549023,671.624478 804.549463,671.624478 C804.550586,671.624478 804.551758,671.62438 804.552881,671.624331 C811.464551,671.622134 817,665.927456 817,659.075601 C817,652.204214 811.44541,646.632388 804.56333,646.624624 Z" transform="translate(-792 -646)"/>
</svg>
