<svg xmlns="http://www.w3.org/2000/svg" width="16" height="19" viewBox="0 0 16 19">
  <path fill="#2A495D" fill-rule="evenodd" d="M502.429333,878.083175 C501.905016,877.558984 501.28419,877.296889 500.566984,877.296889 L496.697651,877.296889 C496.849397,876.883048 496.925333,876.441651 496.925333,875.972571 C496.925333,875.131175 496.64419,874.479492 496.082032,874.01727 C495.519746,873.555175 494.807746,873.32419 493.945651,873.32419 C493.683556,873.32419 493.44381,873.384508 493.22654,873.50527 C493.00927,873.625905 492.819556,873.796698 492.657524,874.01727 C492.495492,874.237968 492.35581,874.455238 492.238603,874.669079 C492.12127,874.882921 491.993651,875.131175 491.855746,875.413968 C491.717841,875.696889 491.604063,875.910603 491.514413,876.055492 C491.273016,876.434921 490.928127,876.879619 490.479873,877.390095 C490.466032,877.410794 490.417778,877.46946 490.334984,877.565968 C490.25219,877.662603 490.186667,877.736762 490.138413,877.788444 C490.090159,877.840127 490.019556,877.914286 489.926349,878.010921 C489.833143,878.107556 489.750349,878.185016 489.677968,878.243683 C489.605587,878.302349 489.528,878.364317 489.445206,878.429968 C489.362413,878.495492 489.281397,878.543746 489.202032,878.574857 C489.122794,878.605841 489.048635,878.621333 488.979683,878.621333 L486.000127,878.621333 C485.63454,878.621333 485.322413,878.750857 485.063746,879.009397 C484.805206,879.267937 484.67581,879.580063 484.67581,879.945651 L484.67581,886.566984 C484.67581,886.932571 484.805079,887.244698 485.063746,887.503365 C485.32254,887.761905 485.63454,887.891429 486.000127,887.891429 L488.979683,887.891429 C489.38654,887.891429 490.155556,888.094984 491.28673,888.501841 C492.590222,888.977778 493.700698,889.215619 494.618032,889.215619 C495.590476,889.215619 496.373333,888.937905 496.966476,888.38273 C497.559619,887.827556 497.852825,887.070603 497.845841,886.111746 C498.259937,885.580571 498.466794,884.96673 498.466794,884.270222 C498.466794,884.118603 498.456381,883.970286 498.43581,883.825397 C498.663492,883.432254 498.790984,883.021841 498.818667,882.594286 L500.567111,882.594286 C501.291302,882.594286 501.913905,882.33219 502.434667,881.808127 C502.955302,881.283937 503.215619,880.65981 503.215619,879.935619 C503.215492,879.225143 502.953397,878.607746 502.429333,878.083175 L502.429333,878.083175 Z M487.127746,886.37054 C486.996698,886.501587 486.841524,886.567111 486.662222,886.567111 C486.482794,886.567111 486.327619,886.501587 486.196571,886.37054 C486.065524,886.239492 486,886.084317 486,885.905016 C486,885.725714 486.065524,885.570413 486.196571,885.439492 C486.327746,885.308444 486.482794,885.242794 486.662222,885.242794 C486.841524,885.242794 486.996698,885.308444 487.127746,885.439492 C487.258794,885.570413 487.324317,885.725714 487.324317,885.905016 C487.324317,886.084317 487.258794,886.239492 487.127746,886.37054 L487.127746,886.37054 Z M501.498032,880.877333 C501.236063,881.139429 500.925333,881.270476 500.56673,881.270476 L497.142349,881.270476 C497.245714,881.387683 497.331937,881.551619 497.400889,881.761905 C497.469968,881.97219 497.504381,882.163683 497.504381,882.336 C497.504381,882.811937 497.321651,883.222222 496.956063,883.566984 C497.080381,883.787683 497.142349,884.025778 497.142349,884.280889 C497.142349,884.536127 497.081905,884.789587 496.96127,885.04127 C496.840508,885.292952 496.676698,885.474032 496.469714,885.584381 C496.504127,885.790984 496.521524,885.984254 496.521524,886.163683 C496.521524,887.315302 495.869714,887.891175 494.566222,887.891175 C494.007492,887.891175 493.388444,887.780825 492.709079,887.560254 C492.029714,887.339683 491.362413,887.118857 490.707175,886.898159 C490.051937,886.67746 489.476063,886.567111 488.979429,886.567111 L488.648381,886.567111 L488.648381,879.945905 L488.979429,879.945905 C489.469079,879.945905 489.951873,879.749333 490.42781,879.356063 C490.634794,879.183492 490.983111,878.817905 491.472762,878.259302 C491.969397,877.700698 492.355683,877.200762 492.631492,876.759238 C492.721143,876.614349 492.848762,876.390222 493.014349,876.08673 C493.469587,875.128 493.779937,874.648762 493.945524,874.648762 C494.435175,874.648762 494.833524,874.753905 495.140444,874.96419 C495.447365,875.174603 495.600762,875.51073 495.600762,875.972825 C495.600762,876.26946 495.549079,876.560889 495.445587,876.847111 C495.342095,877.133333 495.228317,877.367873 495.104254,877.550603 C494.98019,877.733333 494.866286,877.923048 494.762921,878.119619 C494.659429,878.31619 494.607746,878.483429 494.607746,878.621333 L500.566984,878.621333 C500.911746,878.621333 501.218794,878.754159 501.487873,879.019683 C501.756698,879.285333 501.891175,879.593778 501.891175,879.945651 C501.891048,880.304508 501.760127,880.614857 501.498032,880.877333 L501.498032,880.877333 Z" opacity=".5" transform="rotate(-90 -185.054 688.27)"/>
</svg>
