<svg xmlns="http://www.w3.org/2000/svg" width="28" height="28" viewBox="0 0 28 28">
  <g fill="#4B4B4B" fill-rule="evenodd">
    <path fill-rule="nonzero" d="M14,27.4615385 C6.5653976,27.4615385 0.538461538,21.4346024 0.538461538,14 C0.538461538,6.5653976 6.5653976,0.538461538 14,0.538461538 C21.4346024,0.538461538 27.4615385,6.5653976 27.4615385,14 C27.4615385,21.4346024 21.4346024,27.4615385 14,27.4615385 Z M14,26.3846154 C20.8398342,26.3846154 26.3846154,20.8398342 26.3846154,14 C26.3846154,7.16016579 20.8398342,1.61538462 14,1.61538462 C7.16016579,1.61538462 1.61538462,7.16016579 1.61538462,14 C1.61538462,20.8398342 7.16016579,26.3846154 14,26.3846154 Z"/>
    <path d="M18.8014848,15.5596233 C19.3513654,14.6395262 19.7161376,13.4757939 19.7869143,12.3243114 C19.8318303,11.5852393 19.6671383,10.8094177 19.3105326,10.0798733 C18.7511245,8.93383513 17.7901946,8.29003936 16.861931,7.66802103 C16.1691359,7.2038892 15.5144514,6.76561808 15.0516807,6.13951649 L14.9686542,6.02790707 C14.695075,5.66041266 14.3861075,5.24391898 14.3371082,4.89411874 C14.288109,4.54023523 13.9668916,4.2884335 13.6157303,4.30884986 C13.2591246,4.33334949 12.9828232,4.62870611 12.9828232,4.98667289 L12.9828232,17.1139886 C12.4125264,16.7682716 11.7102037,16.5559415 10.9411876,16.5559415 C9.065605,16.5559415 7.53846154,17.7768396 7.53846154,19.2781224 C7.53846154,20.7794051 9.065605,22.0003032 10.9411876,22.0003032 C12.8167702,22.0003032 14.3439137,20.7794051 14.3439137,19.2781224 L14.3439137,11.3456874 C15.3660926,11.7363203 17.0388727,12.7312774 17.4989213,15.0546588 C17.4131726,15.1812402 17.3315072,15.3173492 17.2362308,15.4262365 C16.9871513,15.7079822 17.0143731,16.1380868 17.2974799,16.3858052 C17.5778645,16.6362459 18.0079691,16.6063019 18.2570487,16.3245562 C18.4394348,16.1176704 18.6014045,15.8753963 18.7565688,15.6222335 C18.7729019,15.6031782 18.7879165,15.5827619 18.8014848,15.5596233"/>
  </g>
</svg>
