<?xml version="1.0" encoding="UTF-8"?>
<svg width="28px" height="28px" viewBox="0 0 28 28" version="1.1" xmlns="http://www.w3.org/2000/svg" xmlns:xlink="http://www.w3.org/1999/xlink">
    <!-- Generator: Sketch 64 (93537) - https://sketch.com -->
    <title>icon_3d</title>
    <desc>Created with Sketch.</desc>
    <g id="Page-1" stroke="none" stroke-width="1" fill="none" fill-rule="evenodd">
        <g id="Artboard-2" transform="translate(-644.000000, -723.000000)" fill="#4B4B4B" fill-rule="nonzero">
            <g id="icon_3d" transform="translate(644.538462, 723.538462)">
                <path d="M13.4615385,26.9230769 C6.02693606,26.9230769 1.0658141e-13,20.8961409 1.0658141e-13,13.4615385 C1.0658141e-13,6.02693606 6.02693606,-7.10542736e-15 13.4615385,-7.10542736e-15 C20.8961409,-7.10542736e-15 26.9230769,6.02693606 26.9230769,13.4615385 C26.9230769,20.8961409 20.8961409,26.9230769 13.4615385,26.9230769 Z M13.4615385,25.8461538 C20.3013727,25.8461538 25.8461538,20.3013727 25.8461538,13.4615385 C25.8461538,6.62170425 20.3013727,1.07692308 13.4615385,1.07692308 C6.62170425,1.07692308 1.07692308,6.62170425 1.07692308,13.4615385 C1.07692308,20.3013727 6.62170425,25.8461538 13.4615385,25.8461538 Z" id="Oval"></path>
                <path d="M5.7480861,9.11631736 L5.81094287,9.1438374 L12.3270719,12.4601796 C12.5030958,12.5497657 12.6214056,12.7219182 12.6455236,12.9167224 L12.6500813,12.9907188 L12.6500813,21.8815191 C12.6500813,21.9740948 12.6287091,22.0653878 12.5876715,22.1481076 C12.4526923,22.420186 12.1392378,22.541515 11.8635293,22.4395769 L11.8006728,22.4120563 L5.28454374,19.0956494 C5.10852185,19.0060624 4.99021372,18.8339109 4.96609613,18.639108 L4.96153846,18.5651123 L4.96153846,9.67437665 C4.96153846,9.5818026 4.98290994,9.49051101 5.02394616,9.40779241 C5.15892328,9.13571286 5.47237686,9.01438137 5.7480861,9.11631736 Z M20.8569778,9.08062665 C21.1576058,9.08062665 21.4053786,9.30983802 21.4392409,9.60513286 L21.4431847,9.67437665 L21.4431847,18.5651123 C21.4431847,18.7646418 21.3444346,18.9490092 21.1834111,19.0583011 L21.1201794,19.0956494 L14.6040504,22.4120563 C14.5223816,22.453622 14.4322483,22.4752691 14.3408488,22.4752691 C14.0402209,22.4752691 13.792448,22.2460578 13.7585857,21.9507629 L13.7546419,21.8815191 L13.7546419,12.9907188 C13.7546419,12.7911878 13.8533935,12.6068192 14.0144189,12.4975276 L14.0776513,12.4601796 L20.5937803,9.1438374 C20.6754481,9.10227313 20.7655798,9.08062665 20.8569778,9.08062665 Z M12.9279714,4.09282587 C13.0922918,4.01012452 13.2853643,4.01012452 13.4496847,4.09282587 L13.4496847,4.09282587 L19.7734109,7.2755146 C19.8878922,7.33313228 19.9806403,7.4270746 20.0375251,7.54302949 C20.18159,7.83669369 20.0633402,8.19304601 19.7734067,8.33896466 L19.7734067,8.33896466 L13.4496806,11.5215903 C13.2853624,11.6042889 13.0922937,11.6042889 12.9279755,11.5215903 L12.9279755,11.5215903 L6.60424936,8.33896466 C6.48976758,8.2813479 6.39701872,8.18740631 6.34013303,8.07145188 C6.19606586,7.77778883 6.31431291,7.42143558 6.60424521,7.2755146 L6.60424521,7.2755146 L12.9279714,4.09282587 Z" id="path-1"></path>
            </g>
        </g>
    </g>
</svg>