<svg xmlns="http://www.w3.org/2000/svg" width="28" height="28" viewBox="0 0 28 28">
  <g fill="#4B4B4B" fill-rule="evenodd">
    <path fill-rule="nonzero" d="M14,27.4615385 C6.5653976,27.4615385 0.538461538,21.4346024 0.538461538,14 C0.538461538,6.5653976 6.5653976,0.538461538 14,0.538461538 C21.4346024,0.538461538 27.4615385,6.5653976 27.4615385,14 C27.4615385,21.4346024 21.4346024,27.4615385 14,27.4615385 Z M14,26.3846154 C20.8398342,26.3846154 26.3846154,20.8398342 26.3846154,14 C26.3846154,7.16016579 20.8398342,1.61538462 14,1.61538462 C7.16016579,1.61538462 1.61538462,7.16016579 1.61538462,14 C1.61538462,20.8398342 7.16016579,26.3846154 14,26.3846154 Z"/>
    <path d="M12.4444444 13.7718843C12.4444444 14.0961029 12.0730391 14.3589744 11.6148357 14.3589744L.829608756 14.3589744C.371405337 14.3589744 0 14.0961029 0 13.7718843L0 6.13926158C0 5.81497347.371405337 5.55213675.829608756 5.55213675L11.6148357 5.55213675C12.0730391 5.55213675 12.4444444 5.81504299 12.4444444 6.13926158L12.4444444 13.7718843zM3.06324786.957264957C4.22636196.957264957 5.16923077 1.90013377 5.16923077 3.06324786 5.16923077 4.22636196 4.22636196 5.16923077 3.06324786 5.16923077 1.90013377 5.16923077.957264957 4.22636196.957264957 3.06324786.957264957 1.90013377 1.90013377.957264957 3.06324786.957264957M8.9025641 0C10.3299915 0 11.4871795 1.15718798 11.4871795 2.58461538 11.4871795 4.01204279 10.3299915 5.16923077 8.9025641 5.16923077 7.4751367 5.16923077 6.31794872 4.01204279 6.31794872 2.58461538 6.31794872 1.15718798 7.4751367 0 8.9025641 0M17.2307692 14.6078927C17.2307692 14.6078927 17.1606163 15.1247863 16.6691573 15.1247863 16.1777336 15.1247863 13.0188034 12.2316527 13.0188034 11.8509535L13.0188034 8.06019233C13.0188034 7.6795278 16.107616 4.78632479 16.6691573 4.78632479 17.2307692 4.78632479 17.2307692 5.30325307 17.2307692 5.30325307L17.2307692 14.6078927z" transform="translate(5.385 5.385)"/>
  </g>
</svg>
