<svg xmlns="http://www.w3.org/2000/svg" xmlns:xlink="http://www.w3.org/1999/xlink" width="83" height="85" viewBox="0 0 83 85">
  <defs>
    <polygon id="laboratorio-icon-a" points="0 .015 46.286 .015 46.286 26.804 0 26.804"/>
    <polygon id="laboratorio-icon-c" points=".1 0 22.407 0 22.407 33.545 .1 33.545"/>
  </defs>
  <g fill="none" fill-rule="evenodd" transform="translate(0 .849)">
    <path fill="#031023" fill-opacity=".522" d="M41.321275,0 C64.1423319,0 82.64255,18.8040945 82.64255,42 C82.64255,65.1959055 64.1423319,84 41.321275,84 C18.5002181,84 0,65.1959055 0,42 C0,18.8040945 18.5002181,0 41.321275,0"/>
    <path fill="#FFF" fill-opacity=".56" d="M45.0216044,8.26255698 C43.8095119,8.12631849 42.5708421,8.05132075 41.3400149,8.05132075 L41.3212801,8.05132075 L41.3212801,6.72 L41.3400149,6.72 C42.6174611,6.72 43.9031854,6.81052981 45.1610256,6.95164981 L45.0216044,8.26255698 Z M33.8700914,8.91889811 L33.5860208,7.65148075 C34.8412468,7.35903396 36.1282782,7.13581585 37.4118241,6.98803925 L37.5556022,8.27942038 C36.3191109,8.4218717 35.0795698,8.63710189 33.8700914,8.91889811 L33.8700914,8.91889811 Z M52.3033094,9.94179623 C51.1299933,9.52598038 49.9200792,9.17406792 48.7079866,8.89537811 L48.9885717,7.62707321 C50.2477189,7.91641358 51.5038163,8.28208302 52.7228799,8.71387472 L52.3033094,9.94179623 Z M26.8284522,11.4395321 L26.2729461,10.2693011 C27.4371126,9.69550189 28.6426698,9.18427472 29.8569409,8.75026415 L30.2799969,9.97641057 C29.1106021,10.3948891 27.9494853,10.887034 26.8284522,11.4395321 L26.8284522,11.4395321 Z M59.0347365,13.23504 C57.9807998,12.5618355 56.8793727,11.9423275 55.7605181,11.3951547 L56.31341,10.2231487 C57.4749624,10.7916226 58.6190872,11.4342068 59.7131075,12.133594 L59.0347365,13.23504 Z M20.5179027,15.4978415 L19.720588,14.4829313 C20.7265987,13.6619502 21.7901206,12.8902279 22.8806554,12.1895094 L23.5620762,13.2882928 C22.511625,13.96416 21.4873153,14.707037 20.5179027,15.4978415 L20.5179027,15.4978415 Z M64.8773538,17.9701042 C63.9959508,17.0750128 63.0566008,16.2225238 62.0858811,15.436157 L62.8805816,14.4185842 C63.8883351,15.2351275 64.862976,16.1200121 65.7787987,17.0488302 L64.8773538,17.9701042 Z M15.2447336,20.8812589 L14.2465653,20.0713721 C15.0491083,19.0449238 15.918312,18.0522023 16.8302134,17.1216091 L17.7338367,18.0393328 C16.8559192,18.9361992 16.0185209,19.8925313 15.2447336,20.8812589 L15.2447336,20.8812589 Z M69.545348,23.9038008 C68.8822262,22.835194 68.1515722,21.792326 67.3747351,20.804486 L68.3702892,19.9914928 C69.177189,21.0170536 69.9357272,22.0994174 70.6245548,23.2088513 L69.545348,23.9038008 Z M11.2742808,27.3221887 L10.1236207,26.75904 C10.6826123,25.5754958 11.3143644,24.411034 12.0014492,23.2967185 L13.0819631,23.9885615 C12.420584,25.0611623 11.8119236,26.1830219 11.2742808,27.3221887 L11.2742808,27.3221887 Z M72.8008317,30.7445706 C72.388668,29.5525947 71.9046152,28.3699381 71.3621798,27.2298838 L72.5110971,26.6631849 C73.0744457,27.8467291 73.5767975,29.0742068 74.0046462,30.3127789 L72.8008317,30.7445706 Z M8.81611177,34.5042204 L7.57134237,34.2170989 C7.85628433,32.9341494 8.21572947,31.6547502 8.64052826,30.414403 L9.84564978,30.8426445 C9.43697155,32.0363955 9.09059715,33.2683109 8.81611177,34.5042204 L8.81611177,34.5042204 Z M74.4703999,38.1542581 C74.3301074,36.89616 74.1179258,35.6336242 73.8408263,34.4008211 L75.0847243,34.1105932 C75.3727161,35.3904362 75.5927401,36.7017872 75.7382609,38.0078128 L74.4703999,38.1542581 Z M6.99710153,42.0541404 L6.720002,42.0483713 C6.71956631,40.7228196 6.79014827,39.4079185 6.92956941,38.1165374 L8.19830182,38.2589887 C8.06410897,39.5024423 7.99614116,40.7703034 7.99614116,42.0261826 L6.99710153,42.0541404 Z M75.8541548,45.9722174 L74.6237632,45.8279909 C74.7614416,44.5747743 74.8694929,43.2953751 74.8694929,42.0261826 L74.8694929,41.7781132 L76.1765662,41.7781132 L76.1765662,42.0261826 C76.1765662,43.3437464 75.9961901,44.6710732 75.8541548,45.9722174 L75.8541548,45.9722174 Z M7.58746294,49.906714 C7.30034252,48.6268709 7.08206129,47.31552 6.93741185,46.0090506 L8.20614426,45.8630491 C8.34469402,47.1220347 8.55556851,48.3850143 8.83179665,49.6169298 L7.58746294,49.906714 Z M74.0277378,53.6725766 L72.823052,53.2434475 C73.2330373,52.0496966 73.5807187,50.8182249 73.8560755,49.5827592 L75.1008449,49.8707683 C74.8145959,51.1537177 74.453408,52.4326732 74.0277378,53.6725766 L74.0277378,53.6725766 Z M10.1541191,57.3567849 C9.59207757,56.172797 9.09059715,54.9439879 8.66405558,53.7049721 L9.86787002,53.2745117 C10.2795981,54.4678189 10.7619081,55.6509192 11.3026007,56.7909736 L10.1541191,57.3567849 Z M70.6594101,60.7867109 L69.5793319,60.0944242 C70.242018,59.0218234 70.8515498,57.9004075 71.3904997,56.7616845 L72.5402884,57.3270521 C71.9804254,58.5092649 71.347802,59.6737268 70.6594101,60.7867109 L70.6594101,60.7867109 Z M14.2870846,64.0324709 C13.4810561,63.0060226 12.7242607,61.9232151 12.0367402,60.8124498 L13.1163827,60.1192755 C13.7786331,61.1887698 14.50798,62.2320815 15.2835101,63.2203653 L14.2870846,64.0324709 Z M65.8245462,66.9564951 L64.9217943,66.03744 C65.8001475,65.1423487 66.6384171,64.1873479 67.4139473,63.1981766 L68.4112441,64.0093947 C67.6065227,65.035843 66.7364476,66.0272332 65.8245462,66.9564951 L65.8245462,66.9564951 Z M19.7711282,69.6111487 C18.7625033,68.7919426 17.7887338,67.9057268 16.875961,66.9777962 L17.7782772,66.0578536 C18.6570661,66.9520574 19.5959804,67.8058777 20.5667001,68.5944634 L19.7711282,69.6111487 Z M59.768876,71.8828257 L59.0887622,70.7831547 C60.1392134,70.1090626 61.1639588,69.3666294 62.1346785,68.5767125 L62.9311218,69.5925102 C61.923804,70.4126038 60.8598464,71.1834385 59.768876,71.8828257 L59.768876,71.8828257 Z M26.3343785,73.8132408 C25.1723904,73.2434355 24.029137,72.59952 22.9364238,71.8992453 L23.6156662,70.7986868 C24.6682959,71.4727789 25.7692872,72.0931743 26.8885776,72.6421223 L26.3343785,73.8132408 Z M52.7899763,75.3149706 L52.3677917,74.0874928 C53.5384936,73.6703457 54.700046,73.1790883 55.8202077,72.6279215 L56.3752782,73.79904 C55.211983,74.3710642 54.0055544,74.88096 52.7899763,75.3149706 L52.7899763,75.3149706 Z M33.6557314,76.4168604 C32.3961485,76.1261887 31.1404868,75.7591879 29.9222945,75.3256211 L30.3436078,74.0981434 C31.5160525,74.5157343 32.7250952,74.8689781 33.9376235,75.1489992 L33.6557314,76.4168604 Z M45.2320432,77.0687638 L45.0900079,75.7764951 C46.3269349,75.6349313 47.5669117,75.4214762 48.7755187,75.1410113 L49.0591536,76.4093162 C47.8039276,76.6999879 46.5164605,76.9218747 45.2320432,77.0687638 L45.2320432,77.0687638 Z M41.3574425,77.28 L41.3400149,77.28 C40.0516763,77.28 38.7541883,77.2116589 37.4837131,77.06832 L37.6240057,75.7782702 C38.8482976,75.9162838 40.0982953,75.9877313 41.3400149,75.9877313 L41.3888123,75.9855125 L41.3574425,77.28 Z"/>
    <g transform="translate(18.48 16.8)">
      <g transform="translate(0 33.472)">
        <mask id="laboratorio-icon-b" fill="#fff">
          <use xlink:href="#laboratorio-icon-a"/>
        </mask>
        <path fill="red" d="M6.30014829,11.6032262 L12.9824566,0.0173507016 L13.0777743,0.0725277634 L33.181576,0.0725277634 L33.2810777,0.0148664263 L45.5231941,21.2099187 C47.2845453,24.2309282 45.8938741,26.8039836 42.4075206,26.8039836 L3.89680807,26.8039836 C0.409800822,26.8039836 -1.00270581,24.2309282 0.758122368,21.2099187 L6.30014829,11.6032262 Z" mask="url(#laboratorio-icon-b)"/>
      </g>
      <g transform="translate(11.898)">
        <mask id="laboratorio-icon-d" fill="#fff">
          <use xlink:href="#laboratorio-icon-c"/>
        </mask>
        <path fill="#DFE0E2" d="M22.4071694,2.62102811 C22.4071694,4.108063 21.0521934,5.24115403 19.3970123,5.24115403 L17.6280775,5.24115403 L17.6280775,26.9860157 L21.3827327,33.4872333 L21.283231,33.5447639 L1.17942931,33.5447639 L1.08398084,33.4897176 L4.83458277,26.9860157 L4.83458277,5.24115403 L3.03204492,5.24115403 C1.4196195,5.24115403 0.0998155662,4.108063 0.0998155662,2.62102811 C0.0998155662,1.13451622 1.52670484,-1.30751331e-05 3.26962009,-1.30751331e-05 L19.2378879,-1.30751331e-05 C20.9818492,-1.30751331e-05 22.4071694,1.13307796 22.4071694,2.62102811" mask="url(#laboratorio-icon-d)"/>
      </g>
      <path fill="#FFF" d="M6.81162134 51.6955983C7.31645223 51.6955983 7.7254424 51.2866082 7.7254424 50.7817773 7.7254424 50.2769464 7.31645223 49.8679562 6.81162134 49.8679562L3.50112839 49.8679562 2.53121502 51.5492876C2.67857177 51.6451283 2.85037902 51.6955983 3.0258473 51.6955983L6.81162134 51.6955983zM10.0752399 45.9516401C10.5800708 45.9516401 10.989061 45.5426499 10.989061 45.037819 10.989061 44.5329881 10.5800708 44.1239979 10.0752399 44.1239979L6.82698463 44.1239979 6.30018751 45.0566472 5.84321161 45.8389324C5.98298478 45.9159449 6.14054014 45.9546473 6.30018751 45.9516401L10.0752399 45.9516401zM13.4694007 40.2076818C13.9742316 40.2076818 14.3832217 39.7986916 14.3832217 39.2938607 14.3832217 38.7890298 13.9742316 38.3800397 13.4694007 38.3800397L10.1522394 38.3800397 9.18389505 40.058233C9.33229781 40.1561658 9.50619708 40.2076818 9.68362663 40.2076818L13.4694007 40.2076818z"/>
      <rect width="1.884" height="16.953" x="24.487" y="5.651" fill="#FFF" rx=".942"/>
      <path fill="#FFF" fill-opacity=".374" d="M31.4122534,34.1271272 L32.2958898,34.1271272 C32.5720322,34.1271272 32.7958898,34.3509849 32.7958898,34.6271272 L32.7958898,37.3944 C32.7958898,37.6705423 32.5720322,37.8944 32.2958898,37.8944 L31.4122534,37.8944 C31.1361111,37.8944 30.9122534,37.6705423 30.9122534,37.3944 L30.9122534,34.6271272 C30.9122534,34.3509849 31.1361111,34.1271272 31.4122534,34.1271272 Z" transform="rotate(-28 31.854 36.01)"/>
      <path fill="#FFF" fill-opacity=".374" d="M35.0645172,39.337068 L35.9481536,39.337068 C36.224296,39.337068 36.4481536,39.5609256 36.4481536,39.837068 L36.4481536,46.3716134 C36.4481536,46.6477558 36.224296,46.8716134 35.9481536,46.8716134 L35.0645172,46.8716134 C34.7883748,46.8716134 34.5645172,46.6477558 34.5645172,46.3716134 L34.5645172,39.837068 C34.5645172,39.5609256 34.7883748,39.337068 35.0645172,39.337068 Z" transform="rotate(-28 35.506 43.104)"/>
    </g>
  </g>
</svg>
