<svg xmlns="http://www.w3.org/2000/svg" width="54" height="37" viewBox="0 0 54 37">
  <path fill="#C9D2D7" d="M402,878 C389.727273,878 379.172727,885.636684 375,896.475849 C379.172727,907.315013 389.727273,914.951697 402,914.951697 C414.272727,914.951697 424.827273,907.315013 429,896.475849 C424.827273,885.636684 414.272727,878 402,878 Z M402,908.793081 C395.127273,908.793081 389.727273,903.373499 389.727273,896.475849 C389.727273,889.578198 395.127273,884.158616 402,884.158616 C408.872727,884.158616 414.272727,889.578198 414.272727,896.475849 C414.272727,903.373499 408.872727,908.793081 402,908.793081 Z M402,889.085509 C397.827273,889.085509 394.636364,892.28799 394.636364,896.475849 C394.636364,900.663708 397.827273,903.866188 402,903.866188 C406.172727,903.866188 409.363636,900.663708 409.363636,896.475849 C409.363636,892.28799 406.172727,889.085509 402,889.085509 Z" transform="translate(-375 -878)"/>
</svg>
