<svg xmlns="http://www.w3.org/2000/svg" xmlns:xlink="http://www.w3.org/1999/xlink" width="12" height="16" viewBox="0 0 12 16">
  <defs>
    <path id="microfono-icon-a" d="M590.529412,637.067059 C589.685882,637.067059 588.963765,636.766706 588.363176,636.166235 C587.762588,635.565765 587.462118,634.843529 587.462118,634 L587.462118,629.092471 C587.462118,628.248941 587.762471,627.526824 588.363176,626.926235 C588.963882,626.325647 589.685882,626.025176 590.529412,626.025176 C591.372941,626.025176 592.094941,626.325647 592.695529,626.926235 C593.296353,627.526941 593.596471,628.248941 593.596471,629.092471 L593.596471,634 C593.596471,634.843529 593.296118,635.565765 592.695529,636.166235 C592.094941,636.766706 591.372941,637.067059 590.529412,637.067059 Z M595.868235,632.341765 C595.989765,632.463294 596.050588,632.606941 596.050588,632.773059 L596.050588,634 C596.050588,635.412235 595.579176,636.640706 594.636588,637.685412 C593.694,638.730118 592.529412,639.329176 591.142941,639.482471 L591.142941,640.747882 L593.596471,640.747882 C593.762588,640.747882 593.906588,640.808588 594.027765,640.93 C594.149294,641.051412 594.210118,641.195176 594.210118,641.361294 C594.210118,641.527294 594.149294,641.671294 594.027765,641.792588 C593.906588,641.914 593.762588,641.974824 593.596471,641.974824 L587.462118,641.974824 C587.296,641.974824 587.152235,641.914 587.030824,641.792588 C586.909412,641.671294 586.848706,641.527294 586.848706,641.361294 C586.848706,641.195176 586.909412,641.051412 587.030824,640.93 C587.152235,640.808588 587.296,640.747882 587.462118,640.747882 L589.915882,640.747882 L589.915882,639.482471 C588.529176,639.329176 587.364588,638.730118 586.422118,637.685412 C585.479647,636.640706 585.008353,635.412235 585.008353,634 L585.008353,632.773059 C585.008353,632.606941 585.069059,632.463176 585.190471,632.341765 C585.311882,632.220353 585.455647,632.159647 585.621882,632.159647 C585.788118,632.159647 585.931765,632.220353 586.053176,632.341765 C586.174588,632.463176 586.235294,632.606941 586.235294,632.773059 L586.235294,634 C586.235294,635.182235 586.655412,636.193529 587.495647,637.033647 C588.336,637.874 589.347176,638.294118 590.529412,638.294118 C591.711647,638.294118 592.722941,637.874 593.563059,637.033647 C594.403294,636.193294 594.823529,635.182235 594.823529,634 L594.823529,632.773059 C594.823529,632.606941 594.884235,632.463176 595.005647,632.341765 C595.127059,632.220353 595.270824,632.159647 595.436941,632.159647 C595.603059,632.159647 595.747059,632.220353 595.868235,632.341765 Z"/>
  </defs>
  <use fill="#29495E" fill-rule="evenodd" transform="translate(-585 -626)" xlink:href="#microfono-icon-a"/>
</svg>
