<svg xmlns="http://www.w3.org/2000/svg" xmlns:xlink="http://www.w3.org/1999/xlink" width="15" height="16" viewBox="0 0 15 16">
  <defs>
    <path id="paint-erase-a" d="M170.846246,925.001382 C170.816428,925.291564 170.572064,925.506836 170.289155,925.506836 L170.238246,925.506836 L169.486973,925.432655 C169.182973,925.402836 168.958246,925.135927 168.982246,924.8312 C169.011337,924.518473 169.285519,924.295927 169.590246,924.325745 L170.340792,924.392655 C170.646246,924.422473 170.876064,924.697382 170.846246,925.001382 Z M174.196064,927.5128 L174.136428,928.189891 C174.115337,928.496073 173.845519,928.725164 173.532064,928.696073 L173.481155,928.686618 C173.204064,928.634255 173.00261,928.376073 173.02661,928.093164 L173.087701,927.416073 C173.113155,927.111345 173.384428,926.882982 173.689155,926.909891 C173.996064,926.930982 174.221519,927.208073 174.196064,927.5128 Z M172.236937,925.959855 C172.474028,926.154036 172.503846,926.503127 172.311119,926.740945 L171.797664,927.372218 C171.687119,927.505309 171.530755,927.572945 171.367846,927.572945 C171.241301,927.572945 171.122028,927.535855 171.016573,927.4464 C170.779482,927.252945 170.742392,926.903855 170.935846,926.666036 L171.448573,926.034764 C171.642028,925.796218 171.991119,925.759855 172.236937,925.959855 Z M183.778319,916.470545 C183.949228,917.392 183.747046,918.320727 183.213228,919.085818 L179.140501,924.957091 C178.494682,925.900364 177.417592,926.466182 176.264137,926.466182 C175.55141,926.466182 174.860501,926.250182 174.272864,925.848727 L173.410319,925.246545 C171.827773,924.147636 171.425592,921.962182 172.526682,920.378909 L176.59941,914.500364 C177.253228,913.564364 178.322319,913 179.474319,913 C180.189228,913 180.87941,913.215273 181.466319,913.624 L182.328137,914.218182 C183.093955,914.753455 183.61541,915.548364 183.778319,916.470545 Z M182.299773,918.454545 C182.66341,917.926545 182.797228,917.295273 182.685955,916.670545 C182.566682,916.039273 182.216137,915.496727 181.697592,915.133091 L180.828501,914.537455 C180.426319,914.256 179.958682,914.114909 179.474319,914.114909 C178.694682,914.114909 177.958682,914.493091 177.512864,915.139636 L175.417592,918.165091 L175.514319,918.060364 L180.308501,921.322909 L182.299773,918.454545 Z"/>
  </defs>
  <use fill="#2A495D" fill-rule="evenodd" transform="translate(-169 -913)" xlink:href="#paint-erase-a"/>
</svg>
