<svg xmlns="http://www.w3.org/2000/svg" width="14" height="16" viewBox="0 0 14 16">
  <path fill="#2A495D" fill-rule="evenodd" d="M135.908719,919.801213 L135.86991,919.869298 C135.530844,920.320024 132.069378,924.730602 129.717025,927.724321 C129.69728,927.750193 129.67345,927.771981 129.645535,927.78764 L126.731476,929.474118 C126.617092,929.553097 126.484326,929.610289 126.332495,929.610289 C125.932153,929.610289 125.609427,929.286202 125.609427,928.887221 C125.609427,928.851816 125.625087,928.821178 125.630534,928.786454 C125.630534,928.785093 125.629172,928.783731 125.629172,928.782369 L126.021344,925.935715 C126.026791,925.894183 126.042451,925.854012 126.067643,925.81997 C126.658625,925.009752 129.674812,921.051262 132.400955,917.487668 C132.481976,917.382135 132.629722,917.356944 132.74002,917.427753 L133.574748,917.962905 C133.634664,918.001032 133.676196,918.064352 133.68777,918.13448 C133.700026,918.204608 133.681643,918.27746 133.637387,918.33397 L127.476331,926.247546 C127.287054,926.488569 127.331309,926.838529 127.573013,927.027125 C127.805865,927.209594 128.169442,927.164658 128.35123,926.929763 L134.596031,918.909974 C134.678414,918.805122 134.82616,918.780611 134.93782,918.854824 C135.32863,919.114911 135.658845,919.338231 135.83791,919.47236 C135.940719,919.547935 135.971357,919.688872 135.908719,919.801213 M136.9672,920.53462 C136.897098,920.652 135.649209,922.247606 130.627243,928.639247 C130.571316,928.711678 130.500651,928.772738 130.42052,928.818019 L125.088837,931.904565 C124.856733,932.040563 124.547948,932.030602 124.323016,931.878573 C124.090628,931.722464 123.968724,931.452942 124.006922,931.177567 L124.778459,925.571228 C124.834725,925.279448 125.065158,924.971224 131.479392,916.579455 C131.795363,916.166552 132.176669,916 132.549381,916 C132.894066,916 133.176314,916.134852 133.417667,916.341196 C135.009016,917.3546 136.434105,918.289785 136.786007,918.588048 C137.28974,919.013786 137.470038,919.674865 136.9672,920.53462 Z" transform="translate(-124 -916)"/>
</svg>
