<svg xmlns="http://www.w3.org/2000/svg" width="13" height="13" viewBox="0 0 13 13">
  <path fill="#244053" fill-rule="evenodd" d="M228.963333,512.960257 C228.420102,513.503488 227.53478,513.507089 226.987948,512.960257 L223.303649,509.275958 L219.619865,512.959743 C219.077149,513.502459 218.192341,513.506574 217.644995,512.959228 C217.101249,512.415483 217.102793,511.528103 217.645509,510.985386 L221.329293,507.301602 L217.649624,503.621933 C217.101249,503.073558 217.106394,502.189779 217.649624,501.646548 C218.197485,501.098688 219.076634,501.098173 219.625009,501.646548 L223.304678,505.326217 L226.987948,501.642948 C227.536323,501.094572 228.418559,501.098173 228.962304,501.641919 C229.50965,502.189265 229.510679,503.068929 228.962304,503.617304 L225.279034,507.300573 L228.963333,510.984872 C229.510165,511.531704 229.511194,512.412396 228.963333,512.960257 Z" transform="translate(-217 -501)"/>
</svg>
