<svg xmlns="http://www.w3.org/2000/svg" xmlns:xlink="http://www.w3.org/1999/xlink" width="114" height="114" viewBox="0 0 114 114">
  <defs>
    <path id="reading_time-a" d="M44.64,12.0350476 C42.5085714,8.3832381 39.6171429,5.49180952 35.9653333,3.36038095 C32.3127619,1.22895238 28.3253333,0.163428571 24.000381,0.163428571 C19.6758095,0.163428571 15.6872381,1.22895238 12.0354286,3.36038095 C8.3832381,5.49142857 5.49180952,8.38285714 3.36038095,12.0350476 C1.22857143,15.6872381 0.163047619,19.6758095 0.163047619,24 C0.163047619,28.3245714 1.22895238,32.312381 3.36,35.9649524 C5.49142857,39.616381 8.38285714,42.5081905 12.0350476,44.639619 C15.6872381,46.7710476 19.6754286,47.8365714 24,47.8365714 C28.3245714,47.8365714 32.3131429,46.7710476 35.9649524,44.639619 C39.6167619,42.5085714 42.5081905,39.6167619 44.639619,35.9649524 C46.7706667,32.3127619 47.8361905,28.3241905 47.8361905,24 C47.8361905,19.6754286 46.7706667,15.6868571 44.64,12.0350476 L44.64,12.0350476 Z M38.6186667,32.4731429 C37.1081905,35.0594286 35.0598095,37.1081905 32.4731429,38.6186667 C29.8868571,40.1291429 27.0624762,40.8838095 24,40.8838095 C20.9379048,40.8838095 18.1135238,40.1291429 15.5268571,38.6186667 C12.9405714,37.1081905 10.8921905,35.0594286 9.38171429,32.4731429 C7.87085714,29.8868571 7.11580952,27.0624762 7.11580952,24 C7.11580952,20.9375238 7.8712381,18.1131429 9.38171429,15.5268571 C10.8918095,12.9405714 12.9405714,10.8918095 15.5268571,9.38133333 C18.1131429,7.87085714 20.9375238,7.11580952 24,7.11580952 C27.0624762,7.11580952 29.8868571,7.87085714 32.4731429,9.38133333 C35.0598095,10.8918095 37.1081905,12.9405714 38.6186667,15.5268571 C40.1291429,18.1131429 40.8838095,20.9375238 40.8838095,24 C40.8838095,27.0624762 40.1291429,29.8868571 38.6186667,32.4731429 L38.6186667,32.4731429 Z"/>
    <path id="reading_time-c" d="M11.9798095,0.0815238095 L9.99314286,0.0815238095 C9.70285714,0.0815238095 9.46552381,0.174857143 9.27885714,0.360761905 C9.09333333,0.547047619 9,0.784761905 9,1.07466667 L9,12 L2.04761905,12 C1.75771429,12 1.52,12.0929524 1.33371429,12.2788571 C1.14742857,12.4647619 1.05447619,12.7028571 1.05447619,12.9931429 L1.05447619,14.9794286 C1.05447619,15.2693333 1.14742857,15.5070476 1.33371429,15.6933333 C1.52,15.8792381 1.75809524,15.9721905 2.04761905,15.9721905 L11.9801905,15.9721905 C12.2697143,15.9721905 12.5078095,15.8792381 12.6933333,15.6933333 C12.8792381,15.5070476 12.9729524,15.2693333 12.9729524,14.9794286 L12.9729524,1.07466667 C12.9729524,0.785142857 12.8792381,0.547428571 12.6933333,0.360761905 C12.5074286,0.174857143 12.2693333,0.0815238095 11.9798095,0.0815238095 L11.9798095,0.0815238095 Z"/>
  </defs>
  <g fill="none" fill-rule="evenodd" transform="translate(.723 1)">
    <circle cx="56" cy="56" r="56" stroke="#2A495D" stroke-opacity=".2"/>
    <g transform="translate(32.277 31)">
      <mask id="reading_time-b" fill="#fff">
        <use xlink:href="#reading_time-a"/>
      </mask>
      <use fill="#000" xlink:href="#reading_time-a"/>
      <g fill="#2A495D" mask="url(#reading_time-b)">
        <rect width="48" height="48"/>
      </g>
    </g>
    <g transform="translate(47.277 43)">
      <mask id="reading_time-d" fill="#fff">
        <use xlink:href="#reading_time-c"/>
      </mask>
      <use fill="#000" xlink:href="#reading_time-c"/>
      <g fill="#2A495D" mask="url(#reading_time-d)">
        <rect width="48" height="48" transform="translate(-15 -12)"/>
      </g>
    </g>
  </g>
</svg>
