<svg xmlns="http://www.w3.org/2000/svg" xmlns:xlink="http://www.w3.org/1999/xlink" width="114" height="114" viewBox="0 0 114 114">
  <defs>
    <path id="reading_velocity-a" d="M47.5357612,1.10423881 C47.3408955,0.919761194 47.1077015,0.826985075 46.8351045,0.826985075 C41.7571343,0.826985075 37.5642985,1.51761194 34.2569552,2.89922388 C30.9496119,4.28083582 27.4667463,6.79080597 23.8090746,10.4287761 C22.2526567,12.0048955 20.5404179,13.9019701 18.6727164,16.12 L7.6119403,16.7035224 C7.30065672,16.7429254 7.04776119,16.8983881 6.85325373,17.1706269 L0.315940299,28.3779104 C0.0823880597,28.7669254 0.131104478,29.1466269 0.461731343,29.5162985 L2.32943284,31.384 C2.50459701,31.5591642 2.7281194,31.6465672 3.00071642,31.6465672 C3.11749254,31.6465672 3.20489552,31.6368955 3.26328358,31.617194 L11.3183284,29.1362388 L19.5191642,37.3374328 L17.0385672,45.3921194 C16.9414925,45.7424478 17.0192239,46.0533731 17.2721194,46.3256119 L19.1398209,48.1936716 C19.3540299,48.3684776 19.5779104,48.4562388 19.8111045,48.4562388 C19.9866269,48.4562388 20.1420896,48.417194 20.278209,48.3394627 L31.4854925,41.8021493 C31.7580896,41.6076418 31.9135522,41.3547463 31.952597,41.0434627 L32.5361194,29.9823284 C34.7541493,28.1146269 36.6515821,26.4027463 38.2273433,24.8459701 C41.6912239,21.3627463 44.1567761,17.8562388 45.6254328,14.3250149 C47.0944478,10.793791 47.8287761,6.60561194 47.8287761,1.76119403 C47.8284179,1.50829851 47.7313433,1.28943284 47.5357612,1.10423881 L47.5357612,1.10423881 Z M40.4740299,12.1510448 C39.9295522,12.6955224 39.2679403,12.9681194 38.4895522,12.9681194 C37.7111642,12.9681194 37.0499104,12.6958806 36.5050746,12.1510448 C35.960597,11.606209 35.688,10.944597 35.688,10.166209 C35.688,9.3881791 35.9602388,8.72656716 36.5050746,8.18173134 C37.0495522,7.63725373 37.7111642,7.36465672 38.4895522,7.36465672 C39.2679403,7.36465672 39.929194,7.63689552 40.4740299,8.18173134 C41.0185075,8.72656716 41.2911045,9.3881791 41.2911045,10.166209 C41.2911045,10.944597 41.0192239,11.6058507 40.4740299,12.1510448 L40.4740299,12.1510448 Z"/>
  </defs>
  <g fill="none" fill-rule="evenodd" transform="translate(.727 1.26)">
    <circle cx="56" cy="56" r="56" stroke="#2A495D" stroke-opacity=".2"/>
    <g transform="translate(32.273 29.74)">
      <mask id="reading_velocity-b" fill="#fff">
        <use xlink:href="#reading_velocity-a"/>
      </mask>
      <use fill="#000" xlink:href="#reading_velocity-a"/>
      <g fill="#2A495D" mask="url(#reading_velocity-b)">
        <rect width="48" height="48" transform="translate(0 1)"/>
      </g>
    </g>
  </g>
</svg>
