<svg xmlns="http://www.w3.org/2000/svg" xmlns:xlink="http://www.w3.org/1999/xlink" width="24" height="24" viewBox="0 0 24 24">
  <defs>
    <path id="removefile-icon-a" d="M15.7712362,15.7729337 C15.4090823,16.1350876 14.8188674,16.1374882 14.4543129,15.7729337 L11.9981138,13.3167346 L9.54225763,15.7725907 C9.18044667,16.1344017 8.59057479,16.1371453 8.22567729,15.7722478 C7.86318044,15.4097509 7.86420929,14.8181643 8.22602024,14.4563533 L10.6818764,12.0004972 L8.22876383,9.54738463 C7.86318044,9.18180124 7.86660993,8.59261525 8.22876383,8.23046134 C8.59400428,7.8652209 9.18010373,7.86487795 9.54568712,8.23046134 L11.9987997,10.6835739 L14.4543129,8.2280607 C14.8198963,7.86247731 15.4080534,7.86487795 15.7705503,8.2273748 C16.1354478,8.5922723 16.1361337,9.1787147 15.7705503,9.54429809 L13.3150371,11.9998113 L15.7712362,14.4560104 C16.1357907,14.8205649 16.1364766,15.4076932 15.7712362,15.7729337 Z"/>
  </defs>
  <g fill="none" fill-rule="evenodd">
    <circle cx="12" cy="12" r="12" fill="red"/>
    <use fill="#FFF" xlink:href="#removefile-icon-a"/>
  </g>
</svg>
