<svg xmlns="http://www.w3.org/2000/svg" width="13" height="13" viewBox="0 0 13 13">
  <path fill="red" fill-rule="evenodd" d="M195.56305,512.960257 C195.019819,513.503488 194.134497,513.507089 193.587665,512.960257 L189.903366,509.275958 L186.219582,512.959743 C185.676866,513.502459 184.792058,513.506574 184.244712,512.959228 C183.700966,512.415483 183.70251,511.528103 184.245226,510.985386 L187.92901,507.301602 L184.249342,503.621933 C183.700966,503.073558 183.706111,502.189779 184.249342,501.646548 C184.797202,501.098688 185.676351,501.098173 186.224726,501.646548 L189.904395,505.326217 L193.587665,501.642948 C194.13604,501.094572 195.018276,501.098173 195.562021,501.641919 C196.109367,502.189265 196.110396,503.068929 195.562021,503.617304 L191.878751,507.300573 L195.56305,510.984872 C196.109882,511.531704 196.110911,512.412396 195.56305,512.960257 Z" transform="translate(-183 -501)"/>
</svg>
