<svg xmlns="http://www.w3.org/2000/svg" width="17" height="16" viewBox="0 0 17 16">
  <path fill="#4BD8B8" fill-rule="evenodd" d="M167.600377,500.914258 L158.379103,514.465769 C158.262327,514.631429 158.083088,514.742095 157.882124,514.762463 C157.854967,514.769253 157.835277,514.769253 157.807441,514.769253 C157.634992,514.769253 157.461185,514.700001 157.331509,514.575757 L151.938062,509.465425 C151.79888,509.341859 151.723519,509.16262 151.723519,508.975914 C151.716729,508.789886 151.792091,508.609969 151.923804,508.479613 L153.696499,506.706918 C153.834323,506.569095 154.020351,506.486944 154.213847,506.506633 C154.407343,506.514101 154.586581,506.596252 154.709468,506.741544 L157.269047,509.713914 L166.531736,500.044545 C166.779546,499.782476 167.186906,499.762787 167.469343,499.989551 C167.74499,500.210204 167.807452,500.617564 167.600377,500.914258" transform="translate(-151 -499)"/>
</svg>
