<svg xmlns="http://www.w3.org/2000/svg" width="17" height="16" viewBox="0 0 17 16">
  <path fill="#4A90E2" fill-rule="evenodd" d="M140.223242,500.914258 L131.001968,514.465769 C130.885192,514.631429 130.705953,514.742095 130.504989,514.762463 C130.477832,514.769253 130.458143,514.769253 130.430306,514.769253 C130.257857,514.769253 130.08405,514.700001 129.954374,514.575757 L124.560927,509.465425 C124.421745,509.341859 124.346384,509.16262 124.346384,508.975914 C124.339595,508.789886 124.414956,508.609969 124.546669,508.479613 L126.319364,506.706918 C126.457188,506.569095 126.643216,506.486944 126.836712,506.506633 C127.030208,506.514101 127.209446,506.596252 127.332333,506.741544 L129.891912,509.713914 L139.154601,500.044545 C139.402411,499.782476 139.809772,499.762787 140.092208,499.989551 C140.367855,500.210204 140.430317,500.617564 140.223242,500.914258" transform="translate(-124 -499)"/>
</svg>
