<svg xmlns="http://www.w3.org/2000/svg" xmlns:xlink="http://www.w3.org/1999/xlink" width="8" height="13" viewBox="0 0 8 13">
  <defs>
    <path id="select_caret-a" d="M0.619384825,4.74696817 C0.372061851,4.4971215 0.372061851,4.09470999 0.619384825,3.84486331 L4,0.429752066 L7.38061518,3.84486331 C7.62793815,4.09470999 7.62793815,4.4971215 7.38061518,4.74696817 C7.37912008,4.74847852 7.37761734,4.74998127 7.376107,4.75147637 C7.12951386,4.99558075 6.73172494,4.99356321 6.48762057,4.74697008 L4,2.23398705 L1.51237943,4.74697008 C1.51088434,4.74848042 1.50938158,4.74998316 1.50787124,4.75147826 C1.26127706,4.99558158 0.863488147,4.99356235 0.619384825,4.74696817 Z"/>
  </defs>
  <g fill="none" fill-rule="evenodd">
    <use fill="#2A495D" xlink:href="#select_caret-a"/>
    <path fill="#2A495D" d="M0.619384825,8.47617232 C0.863488147,8.22957815 1.26127706,8.22755892 1.50787124,8.47166224 L1.51237943,8.47617042 L4,10.9891534 L6.48762057,8.47617042 C6.73172494,8.22957729 7.12951386,8.22755975 7.376107,8.47166412 L7.38061518,8.47617232 C7.62793815,8.726019 7.62793815,9.1284305 7.38061518,9.37827718 L4,12.7933884 L0.619384825,9.37827718 C0.372061851,9.1284305 0.372061851,8.726019 0.619384825,8.47617232 Z"/>
  </g>
</svg>
