<svg xmlns="http://www.w3.org/2000/svg" width="84" height="85" viewBox="0 0 84 85">
  <g fill="none" fill-rule="evenodd" transform="translate(.713 .849)">
    <path fill="#031023" fill-opacity=".522" d="M41.321275,0 C64.1423319,0 82.64255,18.8040945 82.64255,42 C82.64255,65.1959055 64.1423319,84 41.321275,84 C18.5002181,84 0,65.1959055 0,42 C0,18.8040945 18.5002181,0 41.321275,0"/>
    <g transform="translate(26.88 11.76)">
      <path fill="#FFF" d="M9.504 0C13.8783879 0 17.424 3.54561209 17.424 7.92 17.424 12.2943879 13.8783879 15.84 9.504 15.84 5.12961209 15.84 1.584 12.2943879 1.584 7.92 1.584 3.54561209 5.12961209 0 9.504 0M16.9022149 51.9348699L16.9022149 38.2723638 16.9022149 36.9852173 16.9022149 35.2360619 17.4009288 35.2360619 18.1280745 21.3689762 18.5378569 21.5036577 18.5378569 17.4751449 17.5107853 17.424 13.0938545 17.424 10.1015713 20.8166113 7.20693844 17.424 7.20693844 17.424C3.54686386 17.9075373.777511433 20.9738845.66805246 24.6641382L.4394262 32.3719478 3.13701482 32.3719478 3.28000271 35.2360619 3.69327259 35.2360619 3.69327259 36.9852173 3.69327259 38.2723638 3.69327259 51.9348699 3.15096486 51.9348699 0 52.5980487 0 55.44 2.68189483 55.44 5.81367838 54.9404849 5.84157846 55.44 9.30816293 55.44 9.30816293 52.2758359 9.30816293 51.9348699 9.30816293 38.2723638 11.2855808 38.2723638 11.2855808 51.9348699 11.2855808 52.2758359 11.2855808 55.44 14.7521653 55.44 14.7800654 54.9404849 17.9101052 55.44 20.592 55.44 20.592 52.5980487 17.4427789 51.9348699 16.9022149 51.9348699z"/>
      <g transform="translate(14.256 4.752)">
        <path fill="red" d="M0,41.1720783 L27.3872766,41.1720783 L27.3872766,4.40960589 L0,4.40960589 L0,41.1720783 Z M2.25094737,38.9233819 L25.1363293,38.9233819 L25.1363293,6.66055326 L2.25094737,6.66055326 L2.25094737,38.9233819 Z"/>
        <polygon fill="#D6D6D6" points="2.251 38.923 25.136 38.923 25.136 6.661 2.251 6.661"/>
        <path fill="#FFF" d="M26.4698352,20.268948 L26.4698352,20.268948 C27.9664359,20.268948 29.1796704,19.0557134 29.1796704,17.5591127 L29.1796704,16.9658352 C29.1796704,15.4692345 27.9664359,14.256 26.4698352,14.256 L26.4698352,14.256 C24.9732345,14.256 23.76,15.4692345 23.76,16.9658352 L23.76,17.5591127 C23.76,19.0557134 24.9732345,20.268948 26.4698352,20.268948 Z"/>
        <polygon fill="red" points="4.275 34.597 9.182 34.597 9.182 22.696 4.275 22.696"/>
        <polygon fill="red" points="10.336 34.597 15.239 34.597 15.239 19.428 10.336 19.428"/>
        <polygon fill="red" points="16.313 34.597 21.217 34.597 21.217 12.662 16.313 12.662"/>
        <path fill="red" d="M14.2102307,3.45970611 C13.6700034,3.45970611 13.2243158,3.02077137 13.2243158,2.47379116 C13.2243158,1.92681095 13.6655015,1.48787621 14.2102307,1.48787621 C14.75496,1.48787621 15.1961457,1.92681095 15.1961457,2.47379116 C15.1961457,3.02077137 14.75496,3.45970611 14.2102307,3.45970611 Z M16.6502577,2.34323621 C16.6502577,1.05119242 15.5585482,0 14.2102307,0 C12.8641642,0 11.7747057,1.05119242 11.7747057,2.34323621 L7.69373811,2.34323621 L7.69373811,8.254224 L20.7312253,8.254224 L20.7312253,2.34323621 L16.6502577,2.34323621 Z"/>
      </g>
    </g>
    <path fill="#FFF" fill-opacity=".56" d="M45.0216044,8.26255698 C43.8095119,8.12631849 42.5708421,8.05132075 41.3400149,8.05132075 L41.3212801,8.05132075 L41.3212801,6.72 L41.3400149,6.72 C42.6174611,6.72 43.9031854,6.81052981 45.1610256,6.95164981 L45.0216044,8.26255698 Z M33.8700914,8.91889811 L33.5860208,7.65148075 C34.8412468,7.35903396 36.1282782,7.13581585 37.4118241,6.98803925 L37.5556022,8.27942038 C36.3191109,8.4218717 35.0795698,8.63710189 33.8700914,8.91889811 Z M52.3033094,9.94179623 C51.1299933,9.52598038 49.9200792,9.17406792 48.7079866,8.89537811 L48.9885717,7.62707321 C50.2477189,7.91641358 51.5038163,8.28208302 52.7228799,8.71387472 L52.3033094,9.94179623 Z M26.8284522,11.4395321 L26.2729461,10.2693011 C27.4371126,9.69550189 28.6426698,9.18427472 29.8569409,8.75026415 L30.2799969,9.97641057 C29.1106021,10.3948891 27.9494853,10.887034 26.8284522,11.4395321 Z M59.0347365,13.23504 C57.9807998,12.5618355 56.8793727,11.9423275 55.7605181,11.3951547 L56.31341,10.2231487 C57.4749624,10.7916226 58.6190872,11.4342068 59.7131075,12.133594 L59.0347365,13.23504 Z M20.5179027,15.4978415 L19.720588,14.4829313 C20.7265987,13.6619502 21.7901206,12.8902279 22.8806554,12.1895094 L23.5620762,13.2882928 C22.511625,13.96416 21.4873153,14.707037 20.5179027,15.4978415 Z M64.8773538,17.9701042 C63.9959508,17.0750128 63.0566008,16.2225238 62.0858811,15.436157 L62.8805816,14.4185842 C63.8883351,15.2351275 64.862976,16.1200121 65.7787987,17.0488302 L64.8773538,17.9701042 Z M15.2447336,20.8812589 L14.2465653,20.0713721 C15.0491083,19.0449238 15.918312,18.0522023 16.8302134,17.1216091 L17.7338367,18.0393328 C16.8559192,18.9361992 16.0185209,19.8925313 15.2447336,20.8812589 Z M69.545348,23.9038008 C68.8822262,22.835194 68.1515722,21.792326 67.3747351,20.804486 L68.3702892,19.9914928 C69.177189,21.0170536 69.9357272,22.0994174 70.6245548,23.2088513 L69.545348,23.9038008 Z M11.2742808,27.3221887 L10.1236207,26.75904 C10.6826123,25.5754958 11.3143644,24.411034 12.0014492,23.2967185 L13.0819631,23.9885615 C12.420584,25.0611623 11.8119236,26.1830219 11.2742808,27.3221887 Z M72.8008317,30.7445706 C72.388668,29.5525947 71.9046152,28.3699381 71.3621798,27.2298838 L72.5110971,26.6631849 C73.0744457,27.8467291 73.5767975,29.0742068 74.0046462,30.3127789 L72.8008317,30.7445706 Z M8.81611177,34.5042204 L7.57134237,34.2170989 C7.85628433,32.9341494 8.21572947,31.6547502 8.64052826,30.414403 L9.84564978,30.8426445 C9.43697155,32.0363955 9.09059715,33.2683109 8.81611177,34.5042204 Z M74.4703999,38.1542581 C74.3301074,36.89616 74.1179258,35.6336242 73.8408263,34.4008211 L75.0847243,34.1105932 C75.3727161,35.3904362 75.5927401,36.7017872 75.7382609,38.0078128 L74.4703999,38.1542581 Z M6.99710153,42.0541404 L6.720002,42.0483713 C6.71956631,40.7228196 6.79014827,39.4079185 6.92956941,38.1165374 L8.19830182,38.2589887 C8.06410897,39.5024423 7.99614116,40.7703034 7.99614116,42.0261826 L6.99710153,42.0541404 Z M75.8541548,45.9722174 L74.6237632,45.8279909 C74.7614416,44.5747743 74.8694929,43.2953751 74.8694929,42.0261826 L74.8694929,41.7781132 L76.1765662,41.7781132 L76.1765662,42.0261826 C76.1765662,43.3437464 75.9961901,44.6710732 75.8541548,45.9722174 Z M7.58746294,49.906714 C7.30034252,48.6268709 7.08206129,47.31552 6.93741185,46.0090506 L8.20614426,45.8630491 C8.34469402,47.1220347 8.55556851,48.3850143 8.83179665,49.6169298 L7.58746294,49.906714 Z M74.0277378,53.6725766 L72.823052,53.2434475 C73.2330373,52.0496966 73.5807187,50.8182249 73.8560755,49.5827592 L75.1008449,49.8707683 C74.8145959,51.1537177 74.453408,52.4326732 74.0277378,53.6725766 Z M10.1541191,57.3567849 C9.59207757,56.172797 9.09059715,54.9439879 8.66405558,53.7049721 L9.86787002,53.2745117 C10.2795981,54.4678189 10.7619081,55.6509192 11.3026007,56.7909736 L10.1541191,57.3567849 Z M70.6594101,60.7867109 L69.5793319,60.0944242 C70.242018,59.0218234 70.8515498,57.9004075 71.3904997,56.7616845 L72.5402884,57.3270521 C71.9804254,58.5092649 71.347802,59.6737268 70.6594101,60.7867109 Z M14.2870846,64.0324709 C13.4810561,63.0060226 12.7242607,61.9232151 12.0367402,60.8124498 L13.1163827,60.1192755 C13.7786331,61.1887698 14.50798,62.2320815 15.2835101,63.2203653 L14.2870846,64.0324709 Z M65.8245462,66.9564951 L64.9217943,66.03744 C65.8001475,65.1423487 66.6384171,64.1873479 67.4139473,63.1981766 L68.4112441,64.0093947 C67.6065227,65.035843 66.7364476,66.0272332 65.8245462,66.9564951 Z M19.7711282,69.6111487 C18.7625033,68.7919426 17.7887338,67.9057268 16.875961,66.9777962 L17.7782772,66.0578536 C18.6570661,66.9520574 19.5959804,67.8058777 20.5667001,68.5944634 L19.7711282,69.6111487 Z M59.768876,71.8828257 L59.0887622,70.7831547 C60.1392134,70.1090626 61.1639588,69.3666294 62.1346785,68.5767125 L62.9311218,69.5925102 C61.923804,70.4126038 60.8598464,71.1834385 59.768876,71.8828257 Z M26.3343785,73.8132408 C25.1723904,73.2434355 24.029137,72.59952 22.9364238,71.8992453 L23.6156662,70.7986868 C24.6682959,71.4727789 25.7692872,72.0931743 26.8885776,72.6421223 L26.3343785,73.8132408 Z M52.7899763,75.3149706 L52.3677917,74.0874928 C53.5384936,73.6703457 54.700046,73.1790883 55.8202077,72.6279215 L56.3752782,73.79904 C55.211983,74.3710642 54.0055544,74.88096 52.7899763,75.3149706 Z M33.6557314,76.4168604 C32.3961485,76.1261887 31.1404868,75.7591879 29.9222945,75.3256211 L30.3436078,74.0981434 C31.5160525,74.5157343 32.7250952,74.8689781 33.9376235,75.1489992 L33.6557314,76.4168604 Z M45.2320432,77.0687638 L45.0900079,75.7764951 C46.3269349,75.6349313 47.5669117,75.4214762 48.7755187,75.1410113 L49.0591536,76.4093162 C47.8039276,76.6999879 46.5164605,76.9218747 45.2320432,77.0687638 Z M41.3574425,77.28 L41.3400149,77.28 C40.0516763,77.28 38.7541883,77.2116589 37.4837131,77.06832 L37.6240057,75.7782702 C38.8482976,75.9162838 40.0982953,75.9877313 41.3400149,75.9877313 L41.3888123,75.9855125 L41.3574425,77.28 Z"/>
  </g>
</svg>
