<svg xmlns="http://www.w3.org/2000/svg" width="24" height="26" viewBox="0 0 24 26">
  <path fill="#2A495D" fill-rule="evenodd" d="M607.761578,942.483877 C607.488851,942.211149 607.051458,942.211149 606.778731,942.483877 C606.506003,942.756604 606.506003,943.193997 606.778731,943.466724 L608.502573,945.190566 C608.636364,945.324357 608.816467,945.391252 608.991424,945.391252 C609.166381,945.391252 609.346484,945.324357 609.480274,945.190566 C609.753002,944.917839 609.753002,944.480446 609.480274,944.207719 L607.761578,942.483877 Z M594.238422,930.916123 C594.372213,931.049914 594.552316,931.11681 594.727273,931.11681 C594.90223,931.11681 595.082333,931.049914 595.216123,930.916123 C595.488851,930.643396 595.488851,930.206003 595.216123,929.933276 L593.492281,928.209434 C593.219554,927.936707 592.782161,927.936707 592.509434,928.209434 C592.236707,928.482161 592.236707,928.919554 592.509434,929.192281 L594.238422,930.916123 Z M607.272727,931.121955 C607.447684,931.121955 607.627787,931.05506 607.761578,930.921269 L609.48542,929.197427 C609.758148,928.9247 609.758148,928.487307 609.48542,928.21458 C609.212693,927.941852 608.7753,927.941852 608.502573,928.21458 L606.778731,929.938422 C606.506003,930.211149 606.506003,930.648542 606.778731,930.921269 C606.917667,931.05506 607.092624,931.121955 607.272727,931.121955 L607.272727,931.121955 Z M594.238422,942.483877 L592.51458,944.207719 C592.241852,944.480446 592.241852,944.917839 592.51458,945.190566 C592.64837,945.324357 592.828473,945.391252 593.003431,945.391252 C593.178388,945.391252 593.358491,945.324357 593.492281,945.190566 L595.216123,943.466724 C595.488851,943.193997 595.488851,942.756604 595.216123,942.483877 C594.948542,942.211149 594.506003,942.211149 594.238422,942.483877 L594.238422,942.483877 Z M612.305317,936.005317 L609.871355,936.005317 C609.490566,936.005317 609.176672,936.314065 609.176672,936.7 C609.176672,937.080789 609.48542,937.394683 609.871355,937.394683 L612.305317,937.394683 C612.686106,937.394683 613,937.085935 613,936.7 C613,936.319211 612.691252,936.005317 612.305317,936.005317 L612.305317,936.005317 Z M592.823328,936.7 C592.823328,936.319211 592.51458,936.005317 592.128645,936.005317 L589.694683,936.005317 C589.313894,936.005317 589,936.314065 589,936.7 C589,937.080789 589.308748,937.394683 589.694683,937.394683 L592.128645,937.394683 C592.51458,937.394683 592.823328,937.085935 592.823328,936.7 L592.823328,936.7 Z M601,928.523328 C601.380789,928.523328 601.694683,928.21458 601.694683,927.828645 L601.694683,925.394683 C601.694683,925.013894 601.385935,924.7 601,924.7 C600.614065,924.7 600.305317,925.008748 600.305317,925.394683 L600.305317,927.828645 C600.305317,928.21458 600.619211,928.523328 601,928.523328 L601,928.523328 Z M601.694683,932.974443 C601.694683,932.593654 601.385935,932.27976 601,932.27976 C598.5506,932.27976 596.554031,934.271184 596.554031,936.725729 C596.554031,937.106518 596.862779,937.420412 597.248714,937.420412 C597.629503,937.420412 597.943396,937.111664 597.943396,936.725729 C597.943396,935.037907 599.317324,933.669125 601,933.669125 C601.385935,933.669125 601.694683,933.360377 601.694683,932.974443 L601.694683,932.974443 Z M607.15952,936.705146 C607.15952,938.367238 606.500858,939.874957 605.430532,940.981304 C604.617496,941.825214 604.092624,942.900686 603.917667,944.048199 C603.84048,944.542196 603.413379,944.907547 602.909091,944.907547 L599.085763,944.907547 C598.586621,944.907547 598.154374,944.547341 598.082333,944.053345 C597.90223,942.905832 597.372213,941.814923 596.559177,940.976158 C595.509434,939.885249 594.855918,938.403259 594.84048,936.772041 C594.80446,933.34494 597.531732,930.571355 600.958834,930.545626 C604.380789,930.519897 607.15952,933.288336 607.15952,936.705146 L607.15952,936.705146 Z M603.850772,946.554202 L603.850772,947.284906 C603.850772,947.866381 603.423671,948.350086 602.867925,948.432419 L602.687822,949.096226 C602.590051,949.456432 602.265866,949.708576 601.890223,949.708576 L600.104631,949.708576 C599.728988,949.708576 599.404803,949.456432 599.307033,949.096226 L599.132075,948.432419 C598.571184,948.34494 598.144082,947.866381 598.144082,947.27976 L598.144082,946.549057 C598.144082,946.157976 598.457976,945.844082 598.849057,945.844082 L603.145798,945.844082 C603.536878,945.849228 603.850772,946.163122 603.850772,946.554202 L603.850772,946.554202 Z" transform="translate(-589 -924)"/>
</svg>
