<svg xmlns="http://www.w3.org/2000/svg" xmlns:xlink="http://www.w3.org/1999/xlink" width="16" height="16" viewBox="0 0 16 16">
  <defs>
    <path id="upload-icon-a" d="M813,588.607312 C813,588.198904 813.162656,587.799336 813.471172,587.507617 L816.976228,584.198808 L819.984478,581.47609 C820.578525,580.945691 821.477552,580.960719 822.047732,581.514986 L824.933105,584.283672 L828.50181,587.483749 C828.964141,587.899228 829.123261,588.56046 828.900493,589.145667 C828.677726,589.730875 828.116386,590.12337 827.486095,590.12337 L824.225022,590.12337 L824.225022,595.192222 C824.225022,596.191141 823.409974,597 822.408403,597 L819.59375,597 C818.594831,597 817.775364,596.191141 817.775364,595.192222 L817.775364,590.12337 L814.507219,590.12337 C813.892839,590.12337 813.34034,589.745019 813.106964,589.168651 C813.038012,588.983895 813,588.800908 813,588.607312"/>
  </defs>
  <use fill="#FFFFFF" fill-rule="evenodd" transform="translate(-813 -581)" xlink:href="#upload-icon-a"/>
</svg>
