<svg xmlns="http://www.w3.org/2000/svg" xmlns:xlink="http://www.w3.org/1999/xlink" width="65" height="16" viewBox="0 0 65 16">
  <defs>
    <path id="zoom-icon-sprite-a" d="M14.7192727,14.4537455 C14.8923636,14.6268364 14.9876364,14.8552 14.9876364,15.0959273 C14.9876364,15.5948364 14.5796364,15.9999273 14.0770909,15.9999273 C13.8341818,15.9999273 13.6,15.9046545 13.4334545,15.7388364 L9.496,11.8072 L9.39636364,11.8632 C8.46618182,12.3839273 7.40654545,12.6588364 6.33381818,12.6588364 C2.84072727,12.6588364 0,9.82174545 0,6.33374545 C0,2.84138182 2.84072727,-7.27272729e-05 6.33381818,-7.27272729e-05 C9.82109091,-7.27272729e-05 12.6596364,2.84138182 12.6596364,6.33374545 C12.6596364,7.89738182 12.0843636,9.3992 11.0385455,10.5628364 L10.9418182,10.6697455 L14.7192727,14.4537455 Z M6.33381818,10.8079273 C8.80145455,10.8079273 10.8087273,8.80065455 10.8087273,6.33374545 C10.8087273,3.86174545 8.80145455,1.85156364 6.33381818,1.85156364 C3.86254545,1.85156364 1.85090909,3.86174545 1.85090909,6.33374545 C1.85090909,8.80065455 3.86254545,10.8079273 6.33381818,10.8079273 Z M8.87541818,6.37185455 C8.87832727,6.5864 8.80123636,6.77985455 8.65941818,6.90785455 C8.51469091,7.03803636 8.3256,7.0984 8.11687273,7.0984 L7.06305455,7.0984 L7.06305455,8.15512727 C7.06305455,8.35730909 7.00196364,8.54785455 6.87687273,8.69185455 C6.75032727,8.8344 6.55541818,8.9144 6.34087273,8.9144 L6.3336,8.9144 C6.11541818,8.9144 5.92050909,8.8344 5.79250909,8.69185455 C5.66305455,8.54785455 5.60778182,8.35730909 5.60778182,8.15512727 L5.60778182,7.0984 L4.55396364,7.0984 C4.11396364,7.0984 3.79541818,6.76821818 3.79541818,6.37185455 C3.79250909,6.15949091 3.8696,5.96603636 4.00996364,5.8344 C4.15178182,5.70712727 4.34523636,5.64530909 4.55396364,5.64530909 L5.60778182,5.64530909 L5.60778182,4.59076364 C5.60778182,4.38712727 5.66305455,4.1944 5.79250909,4.05185455 C5.92050909,3.90930909 6.11541818,3.82858182 6.3336,3.83149091 C6.55105455,3.82858182 6.75032727,3.90930909 6.87687273,4.05185455 C7.00196364,4.1944 7.06305455,4.38712727 7.06305455,4.59076364 L7.06305455,5.64530909 L8.11687273,5.64530909 C8.3256,5.64530909 8.51469091,5.70712727 8.65941818,5.8344 C8.80123636,5.96603636 8.87832727,6.15949091 8.87541818,6.37185455 Z"/>
    <path id="zoom-icon-sprite-c" d="M14.7192727,14.4537455 C14.8923636,14.6268364 14.9876364,14.8552 14.9876364,15.0959273 C14.9876364,15.5948364 14.5796364,15.9999273 14.0770909,15.9999273 C13.8341818,15.9999273 13.6,15.9046545 13.4334545,15.7388364 L9.496,11.8072 L9.39636364,11.8632 C8.46618182,12.3839273 7.40654545,12.6588364 6.33381818,12.6588364 C2.84072727,12.6588364 0,9.82174545 0,6.33374545 C0,2.84138182 2.84072727,-7.27272729e-05 6.33381818,-7.27272729e-05 C9.82109091,-7.27272729e-05 12.6596364,2.84138182 12.6596364,6.33374545 C12.6596364,7.89738182 12.0843636,9.3992 11.0385455,10.5628364 L10.9418182,10.6697455 L14.7192727,14.4537455 Z M6.33381818,10.8079273 C8.80145455,10.8079273 10.8087273,8.80065455 10.8087273,6.33374545 C10.8087273,3.86174545 8.80145455,1.85156364 6.33381818,1.85156364 C3.86254545,1.85156364 1.85090909,3.86174545 1.85090909,6.33374545 C1.85090909,8.80065455 3.86254545,10.8079273 6.33381818,10.8079273 Z M8.87541818,6.37185455 C8.87832727,6.5864 8.80123636,6.77985455 8.65941818,6.90785455 C8.51469091,7.03803636 8.3256,7.0984 8.11687273,7.0984 L7.06305455,7.0984 L7.06305455,8.15512727 C7.06305455,8.35730909 7.00196364,8.54785455 6.87687273,8.69185455 C6.75032727,8.8344 6.55541818,8.9144 6.34087273,8.9144 L6.3336,8.9144 C6.11541818,8.9144 5.92050909,8.8344 5.79250909,8.69185455 C5.66305455,8.54785455 5.60778182,8.35730909 5.60778182,8.15512727 L5.60778182,7.0984 L4.55396364,7.0984 C4.11396364,7.0984 3.79541818,6.76821818 3.79541818,6.37185455 C3.79250909,6.15949091 3.8696,5.96603636 4.00996364,5.8344 C4.15178182,5.70712727 4.34523636,5.64530909 4.55396364,5.64530909 L5.60778182,5.64530909 L5.60778182,4.59076364 C5.60778182,4.38712727 5.66305455,4.1944 5.79250909,4.05185455 C5.92050909,3.90930909 6.11541818,3.82858182 6.3336,3.83149091 C6.55105455,3.82858182 6.75032727,3.90930909 6.87687273,4.05185455 C7.00196364,4.1944 7.06305455,4.38712727 7.06305455,4.59076364 L7.06305455,5.64530909 L8.11687273,5.64530909 C8.3256,5.64530909 8.51469091,5.70712727 8.65941818,5.8344 C8.80123636,5.96603636 8.87832727,6.15949091 8.87541818,6.37185455 Z"/>
  </defs>
  <g fill="none" fill-rule="evenodd">
    <mask id="zoom-icon-sprite-b" fill="#fff">
      <use xlink:href="#zoom-icon-sprite-a"/>
    </mask>
    <use fill="#000" xlink:href="#zoom-icon-sprite-a"/>
    <g fill="#FFF" mask="url(#zoom-icon-sprite-b)">
      <rect width="16" height="16"/>
    </g>
    <g transform="translate(50)">
      <mask id="zoom-icon-sprite-d" fill="#fff">
        <use xlink:href="#zoom-icon-sprite-c"/>
      </mask>
      <use fill="#000" xlink:href="#zoom-icon-sprite-c"/>
      <g fill="#2A495D" mask="url(#zoom-icon-sprite-d)">
        <rect width="16" height="16"/>
      </g>
    </g>
  </g>
</svg>
