<svg xmlns="http://www.w3.org/2000/svg" width="16" height="16" viewBox="0 0 16 16">
  <path fill="#FFF" fill-rule="evenodd" d="M14.8256508,3.95720635 C14.1151746,2.73993651 13.1513651,1.77612698 11.9340952,1.06565079 C10.7165714,0.355174603 9.38742857,0 7.94577778,0 C6.50425397,0 5.17473016,0.355174603 3.95746032,1.06565079 C2.74006349,1.776 1.77625397,2.73980952 1.06577778,3.95720635 C0.355174603,5.17460317 0,6.50412698 0,7.94552381 C0,9.38704762 0.355301587,10.7163175 1.06565079,11.9338413 C1.77612698,13.1509841 2.73993651,14.1149206 3.95733333,14.8253968 C5.17473016,15.535873 6.50412698,15.8910476 7.94565079,15.8910476 C9.3871746,15.8910476 10.7166984,15.535873 11.9339683,14.8253968 C13.1512381,14.1150476 14.1150476,13.1511111 14.8255238,11.9338413 C15.535873,10.7164444 15.8910476,9.38692063 15.8910476,7.94552381 C15.8910476,6.504 15.535873,5.17447619 14.8256508,3.95720635 L14.8256508,3.95720635 Z M10.4596825,11.1215238 C10.5907302,11.2525714 10.6565079,11.407873 10.6565079,11.5871746 C10.6565079,11.7664762 10.5907302,11.9217778 10.4596825,12.0526984 L9.40419048,13.1081905 C9.27339683,13.2392381 9.11822222,13.3047619 8.93892063,13.3046349 C8.75949206,13.3046349 8.60431746,13.2389841 8.47314286,13.1080635 L3.77625397,8.41092063 C3.64520635,8.27987302 3.57968254,8.12469841 3.57968254,7.94539683 C3.57968254,7.76609524 3.64520635,7.61079365 3.77625397,7.47987302 L8.47314286,2.78285714 C8.60431746,2.65180952 8.75949206,2.58628571 8.93892063,2.58628571 C9.11822222,2.58628571 9.27339683,2.65180952 9.40419048,2.78285714 L10.4596825,3.83834921 C10.5907302,3.96939683 10.6565079,4.12457143 10.6565079,4.30387302 C10.6565079,4.4831746 10.5907302,4.63847619 10.4596825,4.76939683 L7.28355556,7.94552381 L10.4596825,11.1215238 L10.4596825,11.1215238 Z" transform="matrix(-1 0 0 1 15.891 0)"/>
</svg>
