<svg xmlns="http://www.w3.org/2000/svg" xmlns:xlink="http://www.w3.org/1999/xlink" width="1600" height="904" viewBox="0 0 1600 904">
  <defs>
    <rect id="bg_default-a" width="1600" height="903" x="0" y="0"/>
  </defs>
  <g fill="none" fill-rule="evenodd" transform="translate(0 .5)">
    <rect width="1600" height="903" fill="#ACC1CE"/>
    <mask id="bg_default-b" fill="#fff">
      <use xlink:href="#bg_default-a"/>
    </mask>
    <use fill="#2A495D" fill-opacity=".1" xlink:href="#bg_default-a"/>
    <g stroke-linecap="square" stroke-linejoin="round" mask="url(#bg_default-b)" opacity=".3">
      <path stroke="#FFF" stroke-width="3" d="M84.0145113,48.0841823 L166.460791,0.322497336 M166.460791,0.322497336 L248.907071,48.0841823 M84.0145113,143.607552 L84.0145113,48.0841823 M166.460791,95.8458674 L84.0145113,48.0841823 M84.0145113,48.0841823 L166.460791,95.8458674 M166.460791,95.8458674 L248.907071,143.607552 M248.907071,143.607552 L166.460791,95.8458674 M84.0145113,142.591346 L166.460791,190.353031 M248.907071,143.607552 L331.353351,95.8447095 L248.907071,48.0841823 M248.907071,48.0841823 L331.353351,95.8458674 M331.353351,94.8296613 L331.353351,190.353031 M331.353351,190.353031 L331.353351,94.8296613 L248.907071,142.592504 M662.156327,95.8458674 L744.602607,48.0841823 M744.602607,48.0841823 L662.156327,95.8447095 L744.602607,143.607552 M744.602607,142.592504 L662.156327,94.8296613 L662.156327,190.353031 M662.156327,190.353031 L662.156327,94.8296613 M744.602607,143.607552 L827.048887,95.8447095 L744.602607,48.0841823 M744.602607,48.0841823 L827.048887,95.8458674 M827.048887,94.8296613 L827.048887,190.353031 M827.048887,190.353031 L827.048887,94.8296613 L744.602607,142.592504 M166.460791,285.876401 L248.907071,238.113558 L166.460791,190.353031 M166.460791,190.353031 L248.907071,238.114716 L248.907071,142.591346 M248.907071,142.591346 L248.907071,238.114716 L331.353351,190.353031 M331.353351,190.353031 L248.907071,238.114716 M248.907071,333.638086 L331.353351,285.876401 M248.907071,238.114716 L166.460791,285.877559 L248.907071,333.638086 M332.371207,285.876401 L414.817487,238.113558 L332.371207,190.353031 M332.371207,190.353031 L414.817487,238.114716 M414.817487,238.114716 L414.817487,333.638086 M414.817487,333.638086 L414.817487,238.114716 L332.371207,285.877559 M662.156327,285.876401 L662.156327,190.353031 M579.710047,333.638086 L662.156327,285.876401 M744.602607,238.114716 L744.602607,142.591346 M744.602607,142.591346 L744.602607,238.114716 M827.048887,285.876401 L827.048887,190.353031 M744.602607,238.114716 L744.602607,333.638086 L827.048887,285.877559 M662.156327,285.877559 L744.602607,333.638086 L744.602607,238.114716 M84.0145113,333.638086 L1.56823124,381.398613 L84.0145113,429.161456 M84.0145113,428.146408 L1.56823124,380.383565 L1.56823124,475.906935 M1.56823124,475.906935 L1.56823124,380.383565 M84.0145113,429.161456 L166.460791,381.398613 L84.0145113,333.638086 M84.0145113,333.638086 L166.460791,381.399771 L166.460791,285.876401 M166.460791,285.876401 L166.460791,381.399771 M166.460791,381.398613 L248.907071,429.161456 L248.907071,333.638086 M248.907071,428.146408 L166.460791,380.383565 L166.460791,475.906935 M166.460791,475.906935 L166.460791,380.383565 L84.0145113,428.146408 M248.907071,428.14525 L331.353351,380.383565 M332.371207,381.399771 L414.817487,333.638086 M414.817487,333.638086 L332.371207,381.398613 L414.817487,429.161456 M414.817487,428.146408 L332.371207,380.383565 L332.371207,475.906935 M331.353351,475.906935 L331.353351,380.383565 L248.907071,428.146408 M414.817487,429.161456 L497.263767,381.398613 L414.817487,333.638086 M414.817487,333.638086 L497.263767,381.399771 M497.263767,381.399771 L579.710047,333.638086 M579.710047,333.638086 L497.263767,381.398613 L579.710047,429.161456 M579.710047,428.146408 L497.263767,380.383565 L497.263767,475.906935 M497.263767,475.906935 L497.263767,380.383565 L414.817487,428.146408 M662.156327,475.906935 L744.602607,428.14525 M579.710047,428.14525 L662.156327,475.906935 M744.602607,429.161456 L827.048887,381.398613 L744.602607,333.638086 M744.602607,333.638086 L827.048887,381.399771 M827.048887,380.383565 L827.048887,475.906935 M827.048887,475.906935 L827.048887,380.383565 L744.602607,428.146408 M1.56823124,571.430305 L84.0145113,523.667462 L1.56823124,475.906935 M1.56823124,475.906935 L84.0145113,523.66862 L84.0145113,428.14525 M84.0145113,428.14525 L84.0145113,523.66862 L166.460791,475.906935 M166.460791,475.906935 L84.0145113,523.66862 M84.0145113,619.19199 L166.460791,571.430305 M84.0145113,523.66862 L1.56823124,571.431463 L84.0145113,619.19199 M166.460791,571.430305 L248.907071,523.667462 L166.460791,475.906935 M166.460791,475.906935 L248.907071,523.66862 M248.907071,523.66862 L248.907071,619.19199 M248.907071,619.19199 L248.907071,523.66862 L166.460791,571.431463 M414.817487,523.66862 L332.371207,475.906935 M332.371207,475.906935 L414.817487,523.66862 L414.817487,428.14525 M414.817487,428.14525 L414.817487,523.66862 L497.263767,475.906935 M497.263767,571.430305 L497.263767,475.906935 L414.817487,523.667462 M414.817487,619.19199 L497.263767,571.430305 M662.156327,571.430305 L662.156327,475.906935 M497.263767,571.430305 L579.710047,619.19199 M827.048887,571.430305 L827.048887,475.906935 M744.602607,619.19199 L827.048887,571.430305 M1.56823124,666.953675 L1.56823124,571.430305 M1.56823124,571.430305 L1.56823124,666.953675 M1.56823124,665.936311 L84.0145113,713.699154 L84.0145113,618.175784 M84.0145113,713.699154 L1.56823124,665.937469 M84.0145113,713.699154 L166.460791,665.937469 M166.460791,665.937469 L248.907071,618.175784 M248.907071,618.175784 L166.460791,665.937469 M166.460791,665.937469 L84.0145113,713.699154 M414.817487,713.699154 L414.817487,618.175784 M497.263767,665.937469 L414.817487,618.175784 M414.817487,618.175784 L497.263767,665.937469 M497.263767,665.937469 L579.710047,618.175784 M579.710047,713.699154 L579.710047,618.175784 L497.263767,665.936311 M497.263767,665.937469 L497.263767,761.460839 L579.710047,713.700312 M414.817487,713.700312 L497.263767,761.460839 L497.263767,665.937469 M662.156327,665.937469 L579.710047,618.175784 M579.710047,619.19199 L662.156327,666.953675 L662.156327,571.430305 M662.156327,571.430305 L662.156327,666.953675 L744.602607,619.19199 M744.602607,618.175784 L662.156327,665.937469" transform="translate(1014 141)"/>
    </g>
    <g stroke-linecap="square" stroke-linejoin="round" mask="url(#bg_default-b)" opacity=".3">
      <path stroke="#FFF" stroke-width="3" d="M70.6370499,40.4487676 L139.955575,0.271287129 M139.955575,0.271287129 L209.2741,40.4487676 M70.6370499,120.803728 L70.6370499,40.4487676 M139.955575,80.626248 L70.6370499,40.4487676 M70.6370499,40.4487676 L139.955575,80.626248 M139.955575,80.626248 L209.2741,120.803728 M209.2741,120.803728 L139.955575,80.626248 M70.6370499,119.948888 L139.955575,160.126369 M209.2741,120.803728 L278.592625,80.625274 L209.2741,40.4487676 M209.2741,40.4487676 L278.592625,80.626248 M278.592625,79.771408 L278.592625,160.126369 M278.592625,160.126369 L278.592625,79.771408 L209.2741,119.949862 M139.955575,240.48133 L209.2741,200.302875 L139.955575,160.126369 M139.955575,160.126369 L209.2741,200.303849 L209.2741,119.948888 M209.2741,119.948888 L209.2741,200.303849 L278.592625,160.126369 M278.592625,160.126369 L209.2741,200.303849 M209.2741,280.65881 L278.592625,240.48133 M209.2741,200.303849 L139.955575,240.482304 L209.2741,280.65881 M279.448409,240.48133 L348.766934,200.302875 L279.448409,160.126369 M279.448409,160.126369 L348.766934,200.303849 M348.766934,200.303849 L348.766934,280.65881 M348.766934,280.65881 L348.766934,200.303849 L279.448409,240.482304 M487.403984,280.65881 L556.722509,240.48133 M556.722509,240.482304 L626.041034,280.65881 M70.6370499,280.65881 L1.31852494,320.835317 L70.6370499,361.013771 M70.6370499,360.159905 L1.31852494,319.981451 L1.31852494,400.336411 M1.31852494,400.336411 L1.31852494,319.981451 M70.6370499,361.013771 L139.955575,320.835317 L70.6370499,280.65881 M70.6370499,280.65881 L139.955575,320.836291 L139.955575,240.48133 M139.955575,240.48133 L139.955575,320.836291 M139.955575,320.835317 L209.2741,361.013771 L209.2741,280.65881 M209.2741,360.159905 L139.955575,319.981451 L139.955575,400.336411 M139.955575,400.336411 L139.955575,319.981451 L70.6370499,360.159905 M209.2741,360.158931 L278.592625,319.981451 M279.448409,320.836291 L348.766934,280.65881 M348.766934,280.65881 L279.448409,320.835317 L348.766934,361.013771 M348.766934,360.159905 L279.448409,319.981451 L279.448409,400.336411 M278.592625,400.336411 L278.592625,319.981451 L209.2741,360.159905 M348.766934,361.013771 L418.085459,320.835317 L348.766934,280.65881 M348.766934,280.65881 L418.085459,320.836291 M418.085459,320.836291 L487.403984,280.65881 M487.403984,280.65881 L418.085459,320.835317 L487.403984,361.013771 M487.403984,360.159905 L418.085459,319.981451 L418.085459,400.336411 M418.085459,400.336411 L418.085459,319.981451 L348.766934,360.159905 M556.722509,400.336411 L626.041034,360.158931 M487.403984,360.158931 L556.722509,400.336411 M626.041034,361.013771 L695.359559,320.835317 L626.041034,280.65881 M626.041034,280.65881 L695.359559,320.836291 M695.359559,319.981451 L695.359559,400.336411 M695.359559,400.336411 L695.359559,319.981451 L626.041034,360.159905 M1.31852494,480.691372 L70.6370499,440.512918 L1.31852494,400.336411 M1.31852494,400.336411 L70.6370499,440.513892 L70.6370499,360.158931 M70.6370499,360.158931 L70.6370499,440.513892 L139.955575,400.336411 M139.955575,400.336411 L70.6370499,440.513892 M70.6370499,520.868853 L139.955575,480.691372 M70.6370499,440.513892 L1.31852494,480.692346 L70.6370499,520.868853 M139.955575,480.691372 L209.2741,440.512918 L139.955575,400.336411 M139.955575,400.336411 L209.2741,440.513892 M209.2741,440.513892 L209.2741,520.868853 M209.2741,520.868853 L209.2741,440.513892 L139.955575,480.692346 M348.766934,440.513892 L279.448409,400.336411 M279.448409,400.336411 L348.766934,440.513892 L348.766934,360.158931 M348.766934,360.158931 L348.766934,440.513892 L418.085459,400.336411 M418.085459,480.691372 L418.085459,400.336411 L348.766934,440.512918 M348.766934,520.868853 L418.085459,480.691372 M556.722509,480.691372 L556.722509,400.336411 M418.085459,480.691372 L487.403984,520.868853 M695.359559,480.691372 L695.359559,400.336411 M626.041034,520.868853 L695.359559,480.691372 M1.31852494,561.046333 L1.31852494,480.691372 M1.31852494,480.691372 L1.31852494,561.046333 M1.31852494,560.190519 L70.6370499,600.368974 L70.6370499,520.014013 M70.6370499,600.368974 L1.31852494,560.191493 M70.6370499,600.368974 L139.955575,560.191493 M139.955575,560.191493 L209.2741,520.014013 M209.2741,520.014013 L139.955575,560.191493 M139.955575,560.191493 L70.6370499,600.368974 M348.766934,600.368974 L348.766934,520.014013 M418.085459,560.191493 L348.766934,520.014013 M348.766934,520.014013 L418.085459,560.191493 M418.085459,560.191493 L487.403984,520.014013 M487.403984,600.368974 L487.403984,520.014013 L418.085459,560.190519 M418.085459,560.191493 L418.085459,640.546454 L487.403984,600.369948 M348.766934,600.369948 L418.085459,640.546454 L418.085459,560.191493 M556.722509,560.191493 L487.403984,520.014013 M487.403984,520.868853 L556.722509,561.046333 L556.722509,480.691372 M556.722509,480.691372 L556.722509,561.046333 L626.041034,520.868853 M626.041034,520.014013 L556.722509,560.191493" transform="matrix(1 0 0 -1 -113 585)"/>
    </g>
  </g>
</svg>
