<svg xmlns="http://www.w3.org/2000/svg" width="16" height="16" viewBox="0 0 16 16">
  <path fill="#FFF" fill-rule="evenodd" d="M617.994909,815 C617.994909,815.768 617.371636,816.396364 616.598545,816.396364 L611.389818,816.396364 L611.389818,821.604364 C611.389818,822.371636 610.767273,823 609.993455,823 C609.224727,823 608.598545,822.371636 608.598545,821.604364 L608.598545,816.396364 L603.396364,816.396364 C602.621091,816.396364 602,815.768 602,815 C602,814.225455 602.621091,813.603636 603.396364,813.603636 L608.598545,813.603636 L608.598545,808.396364 C608.598545,807.621091 609.224727,807 609.993455,807 C610.767273,807 611.389818,807.621091 611.389818,808.396364 L611.389818,813.603636 L616.598545,813.603636 C617.371636,813.603636 617.994909,814.225455 617.994909,815" transform="translate(-602 -807)"/>
</svg>
