<svg xmlns="http://www.w3.org/2000/svg" width="25" height="24" viewBox="0 0 25 24">
  <path fill="#FFF" d="M23.9427988,11.7096817 C24.3823255,11.2154474 24.3398824,10.4579341 23.848033,10.0181659 L13.0119339,0.323870091 C12.5200845,-0.115898153 11.7315289,-0.106685808 11.2500333,0.344638272 L0.377102771,10.5350269 C-0.104392741,10.986351 -0.128024907,11.7428946 0.324780048,12.2241184 L0.597379854,12.514388 C1.04963155,12.9956118 1.78064796,13.052987 2.22910586,12.6421487 L3.04168882,11.8981307 L3.04168882,22.7906777 C3.04168882,23.4589768 3.57131807,24 4.2244827,24 L8.46278134,24 C9.11594597,24 9.64557522,23.4589768 9.64557522,22.7906777 L9.64557522,15.1702909 L15.0515716,15.1702909 L15.0515716,22.7906777 C15.0421662,23.4584919 15.509514,23.9995151 16.1626786,23.9995151 L20.6542129,23.9995151 C21.3073776,23.9995151 21.8370068,23.4584919 21.8370068,22.7901929 L21.8370068,12.0515081 C21.8370068,12.0515081 22.0614729,12.2525635 22.3383407,12.5013776 C22.6147343,12.7497069 23.1952636,12.5505909 23.6347903,12.0558719 L23.9427988,11.7096817 Z"/>
</svg>
