<svg xmlns="http://www.w3.org/2000/svg" width="8" height="17" viewBox="0 0 8 17">
  <path fill="#59FF00" fill-rule="evenodd" d="M35.6874463,556.893029 C35.8773886,556.893029 36.0418886,556.96545 36.1809463,557.110292 C36.3197348,557.255134 36.3891963,557.426643 36.3891963,557.624818 L36.3891963,557.624818 L36.3891963,564.211344 L37.0912155,564.211344 C37.2812925,564.211344 37.4459271,564.283765 37.5847155,564.428608 C37.7239078,564.57345 37.7929655,564.744958 37.7929655,564.943134 L37.7929655,564.943134 L37.7929655,566.406853 C37.7929655,566.605029 37.723504,566.776678 37.5847155,566.92166 C37.4457925,567.066222 37.2812925,567.138783 37.0912155,567.138783 L37.0912155,567.138783 L31.4758694,567.138783 C31.2857925,567.138783 31.1212925,567.066222 30.9823694,566.92166 C30.8434463,566.776678 30.7739848,566.605029 30.7739848,566.406853 L30.7739848,566.406853 L30.7739848,564.943134 C30.7739848,564.744958 30.8434463,564.57345 30.9823694,564.428608 C31.1212925,564.283765 31.2857925,564.211344 31.4758694,564.211344 L31.4758694,564.211344 L32.1778886,564.211344 L32.1778886,559.820327 L31.4758694,559.820327 C31.2857925,559.820327 31.1212925,559.747906 30.9823694,559.603064 C30.8434463,559.458362 30.7739848,559.286713 30.7739848,559.088537 L30.7739848,559.088537 L30.7739848,557.624818 C30.7739848,557.426643 30.8434463,557.255134 30.9823694,557.110292 C31.1212925,556.96545 31.2857925,556.893029 31.4758694,556.893029 L31.4758694,556.893029 Z M35.6873117,551.038292 C35.8773886,551.038292 36.0420232,551.110853 36.1808117,551.255555 C36.3198694,551.400537 36.3893309,551.572046 36.3893309,551.770222 L36.3893309,551.770222 L36.3893309,553.96573 C36.3893309,554.163906 36.3198694,554.335555 36.1810809,554.480257 C36.0420232,554.625099 35.8775232,554.69752 35.6875809,554.69752 L35.6875809,554.69752 L32.8796386,554.69752 C32.6895617,554.69752 32.5250617,554.625099 32.3861386,554.480257 C32.2472155,554.335555 32.177754,554.163906 32.177754,553.96573 L32.177754,553.96573 L32.177754,551.770222 C32.177754,551.572046 32.2472155,551.400397 32.3861386,551.255555 C32.5250617,551.110853 32.6895617,551.038292 32.8796386,551.038292 L32.8796386,551.038292 Z" transform="translate(-30.774 -551.038)"/>
</svg>
