<svg xmlns="http://www.w3.org/2000/svg" width="14" height="16" viewBox="0 0 14 16">
  <path fill="#5AFF00" fill-rule="evenodd" d="M55.3233657,593.038292 C55.6680511,593.038292 55.9502986,593.173143 56.1916514,593.379487 C57.7830011,594.392892 59.2080899,595.328077 59.559992,595.62634 C60.0637248,596.052077 60.2440229,596.713157 59.7411849,597.572911 C59.6710829,597.690291 58.4231937,599.285898 53.4012282,605.677539 C53.3453007,605.749969 53.2746356,605.81103 53.1945045,605.856311 L47.8628213,608.942857 C47.630718,609.078855 47.3219327,609.068894 47.0970013,608.916865 C46.8646125,608.760756 46.7427091,608.491233 46.7809063,608.215859 L47.5524441,602.60952 C47.6087101,602.31774 47.8391431,602.009516 54.2533764,593.617747 C54.5693482,593.204844 54.9506539,593.038292 55.3233657,593.038292 Z M55.3233657,593.378719 C55.0513575,593.378719 54.7713734,593.501014 54.5237859,593.824555 C48.4351171,601.790386 47.9257074,602.471766 47.888204,602.664948 L47.1181312,608.262444 C47.097866,608.408542 47.1620533,608.550457 47.2872322,608.634548 C47.4039892,608.713463 47.5717027,608.718873 47.6914916,608.648687 L53.0254708,605.560819 C53.0677216,605.536938 53.1036904,605.505858 53.1326605,605.46835 C58.0328773,599.231653 59.3915911,597.494341 59.4481193,597.399703 C59.858881,596.69737 59.726721,596.212927 59.340164,595.886275 C59.0068327,595.603703 57.5718314,594.66201 55.9902473,593.652978 C55.7861418,593.480204 55.5737315,593.378719 55.3233657,593.378719 Z M55.514005,594.466044 L56.3487331,595.001196 C56.4086483,595.039324 56.4501805,595.102644 56.461755,595.172772 C56.4740104,595.2429 56.4556273,595.315751 56.4113717,595.372262 L50.2503161,603.285838 C50.0610384,603.526861 50.105294,603.87682 50.3469975,604.065417 C50.5798499,604.247886 50.9434263,604.20295 51.1252146,603.968055 L57.3700154,595.948265 C57.4523988,595.843414 57.6001443,595.818903 57.7118045,595.893116 C58.1026152,596.153203 58.4328298,596.376523 58.6118946,596.510652 C58.7147037,596.586226 58.7453422,596.727163 58.6827035,596.839504 L58.6438948,596.90759 C58.3048291,597.358316 54.843363,601.768894 52.4910094,604.762612 C52.4712647,604.788485 52.4474347,604.810272 52.4195197,604.825932 L49.5054609,606.512409 C49.3910773,606.591389 49.2583106,606.64858 49.1064799,606.64858 C48.7061373,606.64858 48.3834121,606.324494 48.3834121,605.925513 C48.3834121,605.890108 48.3990717,605.85947 48.4045186,605.824746 C48.4045186,605.823384 48.4031569,605.822023 48.4031569,605.820661 L48.7953293,602.974007 C48.8007761,602.932475 48.8164358,602.892304 48.8416274,602.858261 C49.4326094,602.048044 52.4487964,598.089554 55.1749393,594.52596 C55.255961,594.420427 55.4037065,594.395236 55.514005,594.466044 Z" transform="translate(-46.774 -593.038)"/>
</svg>
