<svg xmlns="http://www.w3.org/2000/svg" width="14" height="16" viewBox="0 0 14 16">
  <path fill="#234054" fill-rule="evenodd" d="M698.098962,587 L698.098962,585.034483 C698.098962,583.656 698.593307,582.472414 699.582273,581.483448 C700.5711,580.494483 701.754824,580 703.133445,580 C704.512066,580 705.695652,580.494483 706.684617,581.483448 C707.673445,582.472414 708.167928,583.656 708.167928,585.034483 L708.167928,587 L708.527169,587 C708.827031,587 709.081652,587.104828 709.291445,587.314621 C709.501376,587.524414 709.606479,587.779172 709.606342,588.078759 L709.606342,594.551862 C709.606342,594.851448 709.501376,595.106207 709.291721,595.316 C709.081928,595.525793 708.827307,595.630621 708.527445,595.630621 L697.739307,595.630621 C697.439721,595.630621 697.184962,595.525655 696.975169,595.316 C696.765376,595.106207 696.660548,594.851448 696.660548,594.551862 L696.660548,588.078897 C696.660548,587.779034 696.765376,587.524276 696.975169,587.314621 C697.184962,587.104828 697.439721,587 697.739307,587 L698.098893,587 Z M706.010273,587.192276 L706.010273,585.034483 C706.010273,584.240414 705.729307,583.562345 705.167514,583.000552 C704.605721,582.438621 703.92779,582.157793 703.133583,582.157793 C702.339376,582.157793 701.661445,582.438621 701.099514,583.000552 C700.537583,583.562345 700.256617,584.240414 700.256617,585.034483 L700.256617,587.192276 L706.010273,587.192276 Z" transform="translate(-696 -580)"/>
</svg>
