<svg xmlns="http://www.w3.org/2000/svg" width="17" height="16" viewBox="0 0 17 16">
  <path fill="#234054" fill-rule="evenodd" d="M688.91131,587.192276 L688.91131,585.034483 C688.91131,584.240414 688.630345,583.562345 688.068552,583.000552 C687.506759,582.438621 686.828828,582.157793 686.034621,582.157793 C685.240414,582.157793 684.562483,582.438621 684.000552,583.000552 C683.438621,583.562345 683.157655,584.240414 683.157655,585.034483 L683.157655,587.192276 L687.487151,587.192276 C687.537204,587.22806 687.585117,587.268842 687.630897,587.314621 C687.840828,587.524414 687.945931,587.779172 687.945793,588.078759 L687.945793,594.551862 C687.945793,594.851448 687.840828,595.106207 687.631172,595.316 C687.421379,595.525793 687.166759,595.630621 686.866897,595.630621 L676.078759,595.630621 C675.779172,595.630621 675.524414,595.525655 675.314621,595.316 C675.104828,595.106207 675,594.851448 675,594.551862 L675,588.078897 C675,587.779034 675.104828,587.524276 675.314621,587.314621 C675.524414,587.104828 675.779172,587 676.078759,587 L676.438345,587 L681,587 L681,585.034483 C681,583.656 681.494345,582.472414 682.48331,581.483448 C683.472138,580.494483 684.655862,580 686.034483,580 C687.413103,580 688.59669,580.494483 689.585655,581.483448 C690.574483,582.472414 691.068966,583.656 691.068966,585.034483 L691.068966,587.192276 L688.91131,587.192276 Z" transform="translate(-675 -580)"/>
</svg>
