<svg xmlns="http://www.w3.org/2000/svg" width="17" height="14" viewBox="0 0 17 14">
  <path d="M1.12941176 13.1388235C1.12941176 12.8752941 7.49176471 7.19058824 7.79294118 7.19058824 8.11294118 7.19058824 8.96 7.92470588 13.3458824 12.0282353L14.5882353 13.1952941 7.86823529 13.2141176C4.16 13.2141176 1.12941176 13.1764706 1.12941176 13.1388235zM0 8.28235294L0 4.08470588 2.16470588 6.24941176C3.35058824 7.43529412 4.32941176 8.41411765 4.32941176 8.41411765 4.32941176 8.41411765 3.35058824 9.33647059 2.16470588 10.4470588L0 12.48 0 8.28235294zM13.5717647 10.5976471L11.8023529 8.94117647 12.7435294 8.80941176C13.2705882 8.75294118 14.0988235 8.48941176 14.6070588 8.22588235 15.1152941 7.96235294 15.5482353 7.75529412 15.5858824 7.75529412 15.6047059 7.75529412 15.6235294 8.77176471 15.6235294 10.0141176 15.6235294 11.2564706 15.5670588 12.2729412 15.4917647 12.2729412 15.3976471 12.2541176 14.5505882 11.5011765 13.5717647 10.5976471zM3.01176471 5.40235294L.847058824 3.23764706 4.00941176 3.23764706 7.15294118 3.23764706 7.15294118 3.76470588C7.15294118 4.06588235 7.26588235 4.70588235 7.41647059 5.17647059 7.66117647 6.00470588 7.66117647 6.06117647 7.32235294 6.06117647 7.13411765 6.06117647 6.70117647 6.28705882 6.36235294 6.58823529 6.02352941 6.87058824 5.60941176 7.20941176 5.44 7.32235294 5.19529412 7.51058824 4.81882353 7.20941176 3.01176471 5.40235294zM10.6352941 7.24705882C9.24235294 6.51294118 8.47058824 5.28941176 8.47058824 3.80235294 8.47058824 2.54117647 8.80941176 1.78823529 9.75058824.941176471 11.52-.658823529 14.5882353-.112941176 15.6047059 1.95764706 16.0376471 2.88 16.1317647 4.36705882 15.7929412 5.25176471 15.5294118 5.96705882 14.5317647 6.98352941 13.7976471 7.30352941 12.9882353 7.66117647 11.3317647 7.62352941 10.6352941 7.24705882zM13.4023529 2.63529412L12.2352941 1.44941176 12.2352941 2.33411765 12.2352941 3.21882353 11.1623529 3.27529412C10.1458824 3.33176471 10.0705882 3.36941176 10.0705882 3.80235294 10.0705882 4.23529412 10.1458824 4.27294118 11.1623529 4.32941176L12.2352941 4.38588235 12.2352941 5.27058824 12.2352941 6.15529412 13.4023529 4.96941176 14.5882353 3.80235294 13.4023529 2.63529412z" transform="matrix(1 0 0 -1 .766 13.83)"/>
</svg>
