<svg xmlns="http://www.w3.org/2000/svg" xmlns:xlink="http://www.w3.org/1999/xlink" width="33" height="24" viewBox="0 0 33 24">
  <defs>
    <path id="teacher-eye-a" d="M107.046016,592.041005 C107.105414,592.041005 107.212592,592.076569 107.367551,592.147696 C107.522071,592.218823 107.7064,592.310678 107.920756,592.42326 C108.135331,592.535842 108.331496,592.645369 108.509907,592.75206 C108.688318,592.858751 108.875934,592.968496 109.072318,593.08086 C109.268921,593.19366 109.384866,593.261951 109.420373,593.285514 C109.611277,593.404642 109.7064,593.564351 109.7064,593.765951 C109.7064,593.84886 109.700921,593.902314 109.688866,593.925878 C108.438893,596.153732 106.563825,599.507623 104.063879,603.987114 L103.788632,604.480228 C101.425248,608.713941 99.6362062,611.909337 98.4209205,614.066023 L98.4209205,614.066023 L97.5459616,615.647842 C97.4269479,615.837442 97.2601534,615.932569 97.0460164,615.932569 C96.9031123,615.932569 96.1055233,615.518023 94.6532493,614.688278 C94.4627835,614.569805 94.3674411,614.403987 94.3674411,614.190605 C94.3674411,614.048351 94.6293589,613.532787 95.1531945,612.644132 C93.4508383,611.873514 91.8824,610.848714 90.4478794,609.568642 C89.0133589,608.289005 87.7721534,606.837005 86.7247013,605.213514 C86.4864548,604.846314 86.3674411,604.437442 86.3674411,603.987114 C86.3674411,603.536787 86.4864548,603.127914 86.7247013,602.760278 C88.5462904,599.975405 90.807989,597.777223 93.5104548,596.165296 C96.2129205,594.553587 99.1652493,593.747623 102.36766,593.747623 C103.427167,593.747623 104.498729,593.848423 105.581907,594.049805 L105.581907,594.049805 L106.546071,592.325514 C106.665085,592.135914 106.83166,592.041005 107.046016,592.041005 Z M112.171058,596.769878 C113.302016,597.528496 114.388701,598.434823 115.430016,599.489514 C116.471331,600.544205 117.331386,601.634678 118.010181,602.760278 C118.248427,603.163478 118.367441,603.572351 118.367441,603.987114 C118.367441,604.40166 118.248427,604.810751 118.0104,605.213732 C117.545962,605.972132 116.897194,606.831332 116.063879,607.791332 C114.278236,609.829587 112.209633,611.411842 109.85851,612.537223 C107.507386,613.663042 105.01051,614.225951 102.367441,614.225951 L102.367441,614.225951 L103.689085,611.879405 C106.212921,611.666242 108.54914,610.854823 110.698181,609.44406 C112.846564,608.033951 114.641414,606.214751 116.081633,603.986896 C114.712647,601.865732 113.033962,600.123551 111.046016,598.760787 L111.046016,598.760787 Z M95.4567561,597.712423 C92.7306191,599.098751 90.4627835,601.19046 88.6532493,603.987332 C90.6411945,607.044714 93.1830027,609.266678 96.2782356,610.653223 L96.2782356,610.653223 L97.6711123,608.146532 C96.6352767,607.399914 95.825852,606.458023 95.2424,605.320423 C94.6589479,604.182605 94.3674411,602.979987 94.3674411,601.711914 C94.3674411,600.278023 94.7306191,598.944714 95.4567561,597.712423 Z M110.224537,600.218678 C110.319879,600.752132 110.367441,601.249805 110.367441,601.711914 C110.367441,603.358969 109.896866,604.861151 108.956373,606.218023 C108.015879,607.574678 106.772044,608.549732 105.224647,609.142096 L105.224647,609.142096 Z M102.367003,596.307769 C100.878784,596.307769 99.6020712,596.838169 98.5366465,597.898751 C97.4712219,598.959332 96.9384,600.23046 96.9384,601.711696 C96.9384,601.948642 97.0216876,602.150242 97.1884822,602.316278 C97.3552767,602.482096 97.557578,602.565223 97.7958246,602.565223 C98.033852,602.565223 98.2361534,602.482314 98.4029479,602.316278 C98.5695233,602.150242 98.6530301,601.94886 98.6530301,601.711696 C98.6530301,600.692569 99.015989,599.821587 99.7423452,599.098532 C100.468482,598.375696 101.34366,598.014169 102.367441,598.014169 C102.605468,598.014169 102.808208,597.93126 102.974784,597.765223 C103.140921,597.599623 103.224427,597.398242 103.224427,597.161078 C103.224427,596.924132 103.140921,596.722532 102.974345,596.556714 C102.807551,596.390896 102.60503,596.307769 102.367003,596.307769 Z"/>
  </defs>
  <use fill-rule="evenodd" transform="translate(-85.774 -592.038)" xlink:href="#teacher-eye-a"/>
</svg>
