<svg xmlns="http://www.w3.org/2000/svg" width="742" height="824" viewBox="0 0 742 824">
  <path fill="none" stroke="#FFF" stroke-linecap="square" stroke-linejoin="round" stroke-width="3" d="M112,-107 L181,-147 M180,-147 L249,-107 M112,-28 L112,-108 M181,-68 L112,-108 M112,-108 L181,-68 M180,-68 L249,-28 M249,-28 L180,-68 M112,-29 L181,11 M249,-28 L318,-68.0009697 L249,-108 M249,-108 L318,-68 M317,-69 L317,11 M318,11 L318,-69 L249,-28.9990303 M592,-68 L661,-108 M661,-108 L592,-68.0009697 L661,-28 M661,-28.9990303 L592,-69 L592,11 M593,11 L593,-69 M661,-28 L730,-68.0009697 L661,-108 M661,-108 L730,-68 M730,-69 L730,11 M730,11 L730,-69 L661,-28.9990303 M180,91 L249,50.9990303 L180,11 M180,11 L249,51 L249,-29 M249,-29 L249,51 L318,11 M318,11 L249,51 M249,131 L318,91 M249,51 L180,91.0009697 L249,131 M318,91 L387,50.9990303 L318,11 M318,11 L387,51 M387,51 L387,131 M387,131 L387,51 L318,91.0009697 M593,91 L593,11 M524,131 L593,91 M661,51 L661,-29 M661,-29 L661,51 M730,91 L730,11 M661,51 L661,131 L730,91.0009697 M592,91.0009697 L661,131 L661,51 M112,130 L43,169.99903 L112,210 M112,209.00097 L43,169 L43,249 M43,249 L43,169 M112,210 L181,169.99903 L112,130 M112,130 L181,170 L181,90 M180,90 L180,170 M180,169.99903 L249,210 L249,130 M249,209.00097 L180,169 L180,249 M181,249 L181,169 L112,209.00097 M249,209 L318,169 M318,170 L387,130 M387,130 L318,169.99903 L387,210 M387,209.00097 L318,169 L318,249 M318,249 L318,169 L249,209.00097 M387,210 L456,169.99903 L387,130 M387,130 L456,170 M455,170 L524,130 M524,130 L455,169.99903 L524,210 M524,209.00097 L455,169 L455,249 M456,249 L456,169 L387,209.00097 M592,249 L661,209 M524,209 L593,249 M661,210 L730,169.99903 L661,130 M661,130 L730,170 M730,169 L730,249 M730,249 L730,169 L661,209.00097 M43,249 L-26,289 M43,329 L112,288.99903 L43,249 M43,249 L112,289 L112,209 M112,209 L112,289 L181,249 M181,249 L112,289 M112,368 L181,328 M112,289 L43,329.00097 L112,369 M180,329 L249,288.99903 L180,249 M180,249 L249,289 M249,289 L249,369 M249,369 L249,289 L180,329.00097 M387,289 L318,249 M318,249 L387,289 L387,209 M387,209 L387,289 L456,249 M456,329 L456,249 L387,288.99903 M387,368 L456,328 M593,329 L593,249 M455,328 L524,368 M730,329 L730,249 M661,368 L730,328 M43,408 L43,328 M43,328 L43,408 M43,406.99903 L112,447 L112,367 M112,447 L43,407 M112,447 L181,407 M180,407 L249,367 M249,367 L180,407 M181,407 L112,447 M387,447 L387,367 M456,407 L387,367 M387,367 L456,407 M455,407 L524,367 M524,447 L524,367 L455,406.99903 M455,407 L455,487 L524,447.00097 M387,447.00097 L456,487 L456,407 M593,407 L524,367 M524,368 L593,408 L593,328 M592,328 L592,408 L661,368 M661,367 L592,407" opacity=".522"/>
</svg>
